<svg version="1.1" id="Layer_1" xmlns="http://www.w3.org/2000/svg" xmlns:xlink="http://www.w3.org/1999/xlink" x="0px" y="0px"
	 width="100%" viewBox="0 0 1280 896" enable-background="new 0 0 1280 896" xml:space="preserve">
<path fill="#FEFEFE" opacity="1.000000" stroke="none" 
	d="
M1.408726,751.020142 
	C1.000000,502.561371 1.014052,254.122726 0.880879,5.684159 
	C0.878632,1.492642 1.895485,0.897279 5.813591,0.898549 
	C344.229919,1.008257 682.646301,1.000000 1021.531372,1.000000 
	C1021.932800,3.530263 1019.706909,3.665659 1018.131958,4.161044 
	C1006.849487,7.709698 999.104492,15.385427 992.992126,25.131132 
	C983.724182,39.908249 977.165161,55.935986 971.255310,72.239983 
	C953.011536,122.570717 941.237305,174.494431 933.277039,227.353073 
	C929.729858,250.907425 926.321228,274.484161 923.780945,298.165314 
	C921.740051,317.190887 919.684509,336.218262 918.256531,355.312103 
	C916.531738,378.376648 915.061157,401.441620 914.203857,424.560516 
	C913.575012,441.518127 913.153259,458.497375 912.211060,475.428467 
	C910.108643,513.209167 910.436462,551.002747 910.368652,588.801086 
	C910.361938,592.561584 909.593506,596.098877 907.656189,599.315674 
	C899.127319,613.476990 890.126465,627.281494 877.839905,638.598145 
	C874.265503,641.890442 870.521729,644.923645 866.039612,646.897461 
	C860.771851,649.217346 857.912231,648.226501 855.617859,642.978516 
	C852.373230,635.556824 850.840332,627.652405 850.718933,619.630859 
	C850.416504,599.648926 850.183228,579.640198 851.751770,559.703491 
	C853.552429,536.817017 855.023682,513.902771 856.323914,490.995178 
	C857.529358,469.757233 858.885803,448.453766 856.850342,427.124237 
	C856.203003,420.340851 856.206421,413.487976 854.823486,406.778015 
	C853.433228,400.032654 849.588867,396.797882 842.699890,396.401794 
	C827.754028,395.542511 824.200806,399.069672 823.263062,414.033478 
	C822.482971,426.482391 821.340881,438.923462 819.974060,451.327698 
	C818.898376,461.089905 818.047668,470.896881 817.673889,480.669373 
	C817.106812,495.494507 813.533081,509.688354 810.125000,523.913025 
	C795.352722,585.570129 776.636230,646.043701 754.016235,705.260010 
	C744.496887,730.180359 733.477905,754.504700 716.849976,775.755676 
	C711.398376,782.723022 705.534912,789.345215 698.023438,794.209595 
	C691.145813,798.663574 687.444763,797.829041 683.148499,790.915100 
	C678.933838,784.132507 677.100342,776.488708 675.759827,768.755676 
	C673.680969,756.764221 673.190308,744.633423 672.360901,732.500916 
	C671.389893,718.296570 672.680359,704.227295 672.814941,690.110779 
	C672.952576,675.660156 674.460266,661.216614 675.838196,646.807312 
	C678.438110,619.619568 681.808167,592.520813 685.633240,565.481079 
	C690.463318,531.337219 695.463318,497.216675 700.057983,463.040314 
	C706.227966,417.146057 712.770569,371.302979 718.803162,325.389618 
	C721.623718,303.922791 724.219360,282.427124 726.319885,260.887421 
	C728.256897,241.023743 729.575256,221.098434 730.821289,201.166107 
	C732.516968,174.043762 733.267639,146.908264 732.460144,119.789970 
	C731.737854,95.532799 731.077454,71.197762 726.811646,47.178673 
	C726.224792,43.874531 725.269409,40.706043 724.235535,37.536568 
	C721.994263,30.665840 717.830322,25.931599 710.334229,24.813936 
	C702.705566,23.676506 696.058289,25.428602 691.078857,31.631840 
	C683.438232,41.150486 677.006775,51.464504 671.380066,62.280975 
	C643.487610,115.899597 622.890991,172.276688 607.437866,230.635269 
	C589.329041,299.022522 575.878052,368.340240 565.335510,438.255554 
	C564.690063,442.536163 564.108887,446.836853 563.024475,451.039215 
	C562.824890,451.812988 562.544067,452.742554 561.569519,452.819061 
	C560.529175,452.900726 560.247925,451.936371 559.974060,451.188995 
	C559.165405,448.982727 558.825806,446.679443 558.680847,444.337860 
	C555.475769,392.570068 549.227478,341.197113 538.545593,290.410309 
	C535.694275,276.853790 532.006042,263.533905 526.264709,250.860153 
	C524.468506,246.895157 522.607483,242.973831 519.258972,240.039139 
	C508.451080,230.566940 493.712280,233.021606 487.214386,245.839508 
	C480.203186,259.670013 474.375305,274.055573 469.767120,288.876923 
	C456.593445,331.247284 446.047546,374.280945 437.496185,417.813232 
	C437.043915,420.115692 437.263733,423.710144 434.201599,423.751740 
	C431.581909,423.787292 431.516327,420.360138 430.887085,418.188110 
	C426.669769,403.630280 423.161896,388.820221 416.082703,375.262604 
	C410.214050,364.023315 398.009583,358.861115 386.571167,362.594269 
	C381.132843,364.369141 378.835938,366.824249 379.479156,372.517578 
	C383.036102,404.000854 369.549255,430.449677 354.375549,456.085693 
	C337.427673,484.719208 313.966492,507.618652 287.529785,527.561829 
	C286.864563,528.063660 286.201538,528.570068 285.509979,529.034424 
	C281.080627,532.008667 278.734314,531.605591 276.117828,527.104675 
	C262.960388,504.470947 248.672379,482.552551 233.932816,460.936615 
	C215.434875,433.808807 197.208496,406.513672 180.496567,378.238434 
	C173.967606,367.191986 167.816406,355.932678 162.190948,344.393311 
	C159.101151,338.055237 159.356796,336.907288 164.866364,332.650879 
	C188.360489,314.500519 211.085693,295.435303 231.556213,273.898346 
	C257.474731,246.629608 280.899261,217.434998 297.713715,183.480957 
	C307.467712,163.784286 314.760651,143.156754 317.075989,121.254639 
	C319.893188,94.604630 316.028687,69.272987 297.938232,47.943176 
	C289.162415,37.595901 277.809814,31.121891 264.867310,27.426380 
	C234.613113,18.787792 206.107239,24.151846 178.965866,38.767128 
	C149.979233,54.376064 129.657791,78.412216 113.702454,106.657494 
	C99.690750,131.462021 90.428696,157.891159 86.273094,186.044281 
	C79.594284,231.291550 84.468765,275.374847 100.179420,318.297455 
	C103.102539,326.283630 106.402519,334.108673 109.854095,341.878052 
	C111.880913,346.440430 111.287201,348.391541 107.117111,351.152405 
	C88.463211,363.502625 69.193474,374.716797 48.300743,382.935577 
	C41.602478,385.570526 34.748020,387.515564 27.610296,388.550842 
	C24.897467,388.944336 20.607384,389.248596 20.860176,392.283478 
	C21.145329,395.706909 25.431322,394.488342 28.064194,394.588654 
	C45.822021,395.265106 62.242325,389.937256 78.341614,383.199249 
	C90.039856,378.303253 101.307533,372.525970 112.491852,366.583832 
	C118.475769,363.404602 120.157562,363.677704 123.656738,369.703857 
	C130.517548,381.519440 137.254333,393.404327 144.578766,404.946533 
	C156.280136,423.386047 169.143906,441.028870 181.481735,459.032166 
	C201.167267,487.757141 221.298538,516.189514 238.871750,546.303833 
	C239.459702,547.311340 240.089096,548.296082 240.601135,549.345276 
	C243.022781,554.307312 242.351471,557.132202 237.454941,559.657471 
	C230.345749,563.323975 223.358109,567.214539 216.250275,570.879272 
	C183.218719,587.909973 148.970978,602.438965 115.984528,619.556458 
	C95.239700,630.321472 75.060181,642.084106 57.384212,657.523438 
	C30.571138,680.943665 11.367889,709.143494 4.335491,744.683228 
	C3.890203,746.933594 3.812539,749.381348 1.408726,751.020142 
z"/>
<path fill="#FEFEFE" opacity="1.000000" stroke="none" 
	d="
M1280.581909,679.981689 
	C1281.000000,750.810120 1280.969727,821.620361 1281.087402,892.430298 
	C1281.093384,896.048462 1280.482788,897.104919 1276.572510,897.103760 
	C905.360779,896.992249 534.149048,897.000000 162.468658,897.000000 
	C161.914703,896.731018 161.829407,896.462097 161.998444,895.854980 
	C164.273895,894.180603 166.635422,894.043213 168.916077,893.587524 
	C228.819962,881.617065 274.984619,850.233215 305.124847,796.583252 
	C319.297241,771.356262 326.527344,744.064270 328.786774,715.199585 
	C331.799896,676.706421 324.377899,639.958618 311.854797,603.922424 
	C305.661407,586.100403 297.739380,569.026001 289.104309,552.272278 
	C288.417084,550.938904 287.752716,549.593262 287.207458,548.193848 
	C285.079712,542.732849 285.554657,540.610535 290.182678,536.907898 
	C300.329132,528.790161 310.494629,520.722351 319.890411,511.697327 
	C344.455078,488.101990 364.042145,461.026642 378.038422,429.928925 
	C379.132050,427.499023 379.663025,423.348907 383.021027,423.908752 
	C386.505280,424.489655 386.007874,428.641327 386.327637,431.496002 
	C390.294159,466.908051 393.527466,502.398865 397.543854,537.804077 
	C400.323242,562.304749 403.585815,586.752686 408.330078,610.973206 
	C409.776093,618.355591 411.987000,625.512939 414.575989,632.561707 
	C417.409729,640.276917 422.752411,644.906982 431.013397,646.076416 
	C436.689117,646.879883 442.296600,646.936768 447.848450,645.302124 
	C453.936798,643.509399 455.354401,641.617859 455.610352,635.386841 
	C456.179962,621.520203 454.441528,607.794250 453.266876,594.028442 
	C451.851746,577.445190 450.044586,560.900391 448.511719,544.328491 
	C447.208588,530.240417 446.334198,516.085510 444.276886,502.097107 
	C441.873108,485.753021 442.507172,469.608124 444.803436,453.344879 
	C450.818207,410.744629 458.346283,368.439636 468.902893,326.713684 
	C474.268433,305.505920 481.370636,284.885590 490.683563,265.059143 
	C490.966888,264.456024 491.206329,263.830231 491.550812,263.258881 
	C492.337250,261.954437 493.189636,260.562744 494.927765,260.691071 
	C496.866547,260.834167 497.011749,262.594788 497.346802,264.016876 
	C498.613281,269.392242 498.619080,274.925049 499.291473,280.376556 
	C502.023193,302.523499 504.719147,324.676575 506.903442,346.886169 
	C508.809448,366.266296 510.688416,385.648895 512.442017,405.044189 
	C513.865784,420.791138 515.256287,436.541870 516.805542,452.277802 
	C518.436401,468.842316 519.775024,485.434235 521.392761,501.999908 
	C524.046936,529.177795 525.992188,556.446106 531.586853,583.256226 
	C533.088806,590.453796 535.177734,597.485718 537.891113,604.306030 
	C542.056885,614.777100 549.222351,618.465393 560.156921,616.214966 
	C563.822815,615.460510 565.683105,613.607300 565.610596,609.742432 
	C565.460876,601.754517 565.170410,593.772827 564.888550,585.793640 
	C564.401306,572.004517 564.293152,558.185913 565.292969,544.347412 
	C566.167358,532.245056 566.468201,520.093567 567.431580,507.975372 
	C569.372925,483.556244 572.420410,459.273102 575.761963,435.019470 
	C583.365051,379.833862 593.689819,325.162079 607.311401,271.144440 
	C618.035034,228.619415 630.512756,186.606903 646.858032,145.860779 
	C659.770752,113.671547 673.920227,82.036942 691.959229,52.303741 
	C693.363831,49.988575 694.586365,46.342365 697.870667,47.194458 
	C701.290466,48.081741 700.372192,51.882614 700.345154,54.575573 
	C700.152893,73.723457 699.639587,92.872124 699.154968,112.008385 
	C698.548767,135.944473 697.372070,159.902969 695.235168,183.765366 
	C692.443604,214.938660 689.440491,246.092697 685.806030,277.189270 
	C679.345032,332.469849 671.115906,387.504303 663.203308,442.580566 
	C658.157104,477.704498 652.961731,512.804932 648.795288,548.044617 
	C646.919312,563.911255 645.589478,579.840332 644.374512,595.775146 
	C642.703979,617.685364 642.056763,639.639526 641.082397,661.583679 
	C639.813354,690.163574 640.613037,718.492798 645.412354,746.679993 
	C647.637695,759.749390 651.826843,772.179810 658.387146,783.770142 
	C673.401917,810.297180 701.584167,805.697266 715.052307,790.526550 
	C724.627380,779.741028 732.883911,768.089600 739.340942,755.211182 
	C758.967529,716.066528 773.823425,675.051697 787.004639,633.376465 
	C794.998352,608.102539 801.881165,582.521729 808.628357,556.898376 
	C809.239746,554.576782 809.572510,550.831299 812.445618,551.298218 
	C815.252869,551.754517 814.295410,555.469299 814.355774,557.837280 
	C814.869995,578.012878 816.118286,598.095093 821.133972,617.763062 
	C822.584595,623.451111 824.665955,628.883179 827.436523,634.039612 
	C839.215454,655.962891 864.682922,660.300476 882.989807,643.432617 
	C890.352600,636.648499 897.243042,629.402527 902.838806,621.031677 
	C903.209229,620.477600 903.566711,619.913391 903.987671,619.395813 
	C905.084106,618.047729 906.327759,616.890503 908.232849,617.548645 
	C909.942505,618.139282 910.271606,619.764099 910.237122,621.244995 
	C910.104675,626.932129 911.023254,632.543335 911.475586,638.174805 
	C914.229187,672.456970 918.248413,706.549072 931.300842,738.775330 
	C937.287598,753.556763 945.251038,767.111511 957.821899,777.559937 
	C974.994263,791.833008 994.159851,794.060364 1014.608704,786.934143 
	C1029.795532,781.641663 1042.148560,771.613464 1054.273560,761.325439 
	C1063.456665,753.533630 1071.397949,744.564087 1079.693848,735.912842 
	C1084.476074,730.925903 1085.889404,731.248169 1089.169189,737.242126 
	C1097.102905,751.741577 1106.940186,764.600952 1120.624390,774.219116 
	C1137.481689,786.067444 1156.051880,790.398376 1176.504761,787.869934 
	C1200.622314,784.888428 1218.964966,772.429199 1234.083008,754.199280 
	C1245.803589,740.065979 1256.600464,725.296509 1266.014160,709.510803 
	C1270.898926,701.319702 1275.393311,692.994568 1277.922974,683.733276 
	C1278.317017,682.290405 1278.784424,680.843140 1280.581909,679.981689 
z"/>
<path fill="#030303" opacity="1.000000" stroke="none" 
	d="
M1281.000000,679.555847 
	C1276.664429,693.139587 1270.469971,705.351196 1263.003540,716.990356 
	C1253.451660,731.880493 1242.699219,745.823120 1231.344971,759.378845 
	C1198.920532,798.090393 1134.270386,804.903442 1096.927124,752.290283 
	C1093.356445,747.259460 1089.873535,742.132935 1087.350098,736.529602 
	C1085.327881,732.039246 1083.858032,732.991028 1081.251709,735.944458 
	C1070.209717,748.457153 1058.457520,760.271912 1045.240479,770.509705 
	C1033.597656,779.528076 1021.305603,787.525024 1006.625854,790.654114 
	C983.877869,795.502808 964.927917,788.598267 949.508545,771.451843 
	C934.959412,755.273132 927.433044,735.608826 921.975586,715.033264 
	C914.083557,685.279175 910.871826,654.829346 909.177124,624.183289 
	C909.131104,623.351440 909.260681,622.477539 909.047668,621.694153 
	C908.652100,620.239807 909.862244,617.895325 907.642212,617.505249 
	C906.077576,617.230347 905.499634,619.268066 904.674988,620.486755 
	C898.106995,630.192993 890.643127,639.136597 881.474365,646.491028 
	C862.964111,661.338562 838.481995,656.546692 826.883484,635.828247 
	C819.057800,621.849060 816.870667,606.329224 815.037964,590.759766 
	C813.517273,577.840454 813.325867,564.831970 812.757446,551.485901 
	C810.320862,552.784729 810.491089,555.101746 810.005554,556.994202 
	C794.487000,617.480225 776.088074,677.008423 750.933472,734.278809 
	C741.800354,755.072205 731.450562,775.131531 715.525635,791.780334 
	C697.085510,811.058655 669.901611,807.547424 656.970764,784.153320 
	C646.848816,765.841003 642.869690,745.830627 641.030518,725.327637 
	C637.339478,684.179932 639.831238,643.069336 642.582825,601.999207 
	C647.063599,535.117493 658.207825,469.061493 667.693848,402.800537 
	C678.031921,330.587738 687.905029,258.315460 693.727112,185.559814 
	C697.318298,140.682861 698.517700,95.715210 698.818542,50.714096 
	C698.826050,49.593643 698.662048,48.472046 698.529175,46.698441 
	C695.397095,48.381760 694.303223,50.969307 692.939941,53.268711 
	C670.376160,91.325516 652.779175,131.678543 638.034912,173.292007 
	C614.294861,240.294449 598.018250,309.216644 585.862122,379.167633 
	C578.017822,424.306549 571.716980,469.649780 568.071594,515.337219 
	C565.602295,546.284546 565.756714,577.263855 566.983643,608.258179 
	C567.276978,615.670532 566.136902,616.866638 558.833313,617.959595 
	C547.860229,619.601685 541.093323,615.752136 536.805481,605.292664 
	C530.749451,590.519958 528.038879,574.931641 526.135437,559.219055 
	C519.783875,506.789368 515.828064,454.123779 510.893616,401.554688 
	C506.939850,359.433380 502.748535,317.339874 497.302582,275.379639 
	C496.687317,270.639191 496.832611,265.801086 495.526520,260.851471 
	C493.099915,261.498413 492.752563,263.558044 491.954163,265.253723 
	C476.740631,297.565063 468.325989,331.941925 461.027191,366.672211 
	C454.003082,400.095459 448.578217,433.780914 444.344696,467.658142 
	C442.570648,481.854370 445.109528,495.901398 446.428589,509.991577 
	C450.092316,549.127014 454.700775,588.176819 457.166595,627.421509 
	C457.250122,628.751099 457.264465,630.086304 457.272430,631.419067 
	C457.342255,643.076111 455.066223,645.951233 443.767548,647.706116 
	C437.953583,648.609131 432.120209,648.150879 426.464508,646.441650 
	C420.089600,644.515076 416.221466,640.029541 413.772705,633.970520 
	C407.851898,619.320801 405.522736,603.845825 403.055847,588.396912 
	C396.117493,544.945190 392.535004,501.104462 387.833710,457.392273 
	C386.628052,446.182220 386.057251,434.878082 383.762268,423.824463 
	C381.619476,423.547089 381.490967,425.150482 381.016327,426.267700 
	C361.901215,471.261475 331.452972,507.167297 292.755829,536.483765 
	C285.592560,541.910583 285.557007,542.029724 289.686005,550.155640 
	C305.415436,581.111511 318.528381,613.010437 325.430359,647.225830 
	C335.251099,695.910706 333.100861,743.591919 310.710388,788.620239 
	C281.095734,848.176758 232.314224,882.861389 167.241028,895.128052 
	C165.768494,895.405701 164.282410,895.611450 162.391037,895.910400 
	C158.619125,897.148621 155.134872,896.110962 151.366409,896.771606 
	C146.643097,897.000000 142.286194,897.000000 137.464645,897.000000 
	C134.920792,895.969299 132.721436,896.670471 130.289383,896.777222 
	C129.250000,897.000000 128.500000,897.000000 127.375000,897.000000 
	C112.495079,895.679810 98.537651,892.081726 85.245529,886.220947 
	C60.849815,875.464355 38.884384,861.282288 23.115374,839.192566 
	C10.830375,821.983276 2.622996,803.081665 1.225984,781.306702 
	C1.000000,780.250000 1.000000,779.500000 1.000000,778.375000 
	C2.030775,775.920776 1.329658,773.721436 1.222737,771.289368 
	C1.000000,767.969421 1.000000,764.938782 1.000000,761.454102 
	C2.030775,758.920776 1.329658,756.721436 1.222737,754.289368 
	C1.000000,753.250000 1.000000,752.500000 1.000000,751.375000 
	C2.699655,750.670410 2.168707,749.186096 2.347552,748.183472 
	C9.551327,707.794128 31.315094,676.451538 62.853775,651.331299 
	C86.454758,632.533264 113.231628,619.043884 140.260666,606.057007 
	C171.587021,591.005432 203.329559,576.806335 233.894974,560.200378 
	C243.870102,554.781006 242.986481,556.236938 237.886749,547.391602 
	C217.324432,511.726746 193.230988,478.379456 169.806061,444.606537 
	C152.912384,420.250031 136.336304,395.708649 122.237740,369.605194 
	C119.759743,365.017242 117.673462,365.022827 113.429153,367.382812 
	C93.769859,378.313995 73.598183,388.176880 51.553215,393.459930 
	C42.780727,395.562256 33.834209,396.595154 24.794123,396.170105 
	C22.005489,396.038971 18.379631,395.785797 18.143797,392.302124 
	C17.926899,389.098145 21.348867,388.318390 23.939915,387.934387 
	C52.235279,383.740936 75.987144,369.305359 99.532715,354.450470 
	C110.759567,347.367432 110.647354,347.245941 105.414497,335.037292 
	C81.366570,278.931793 74.763733,221.075058 90.153053,161.709610 
	C101.239204,118.943985 121.642921,81.084831 156.327484,52.505428 
	C181.006226,32.170620 209.332611,20.434715 241.876877,22.261208 
	C273.393127,24.030005 298.414673,36.774490 311.487152,67.324951 
	C318.798035,84.410583 320.812836,102.357048 318.486847,120.695587 
	C313.583710,159.353287 296.794556,193.052582 274.501160,224.357788 
	C243.953278,267.254303 206.189240,302.969421 164.269440,334.470093 
	C160.692703,337.157837 160.849930,339.038239 162.628998,342.625824 
	C181.318130,380.313782 204.676041,415.142639 228.034531,449.973572 
	C245.180862,475.541229 262.611237,500.927582 277.826080,527.726013 
	C279.450562,530.587219 280.679657,531.087646 283.411896,529.051880 
	C320.209503,501.634827 350.642029,468.985840 368.487976,425.949921 
	C373.025116,415.008514 376.379913,403.678833 378.710571,392.082214 
	C380.005585,385.638458 378.594086,379.126434 378.250122,372.651154 
	C377.888763,365.848480 379.582550,363.306854 386.033722,361.234283 
	C398.321442,357.286560 411.368225,362.782501 417.247711,374.423950 
	C424.198792,388.187042 427.881042,403.072693 432.070068,417.782623 
	C432.641510,419.789307 433.191254,421.802185 434.989288,423.805878 
	C435.987000,418.891022 436.979950,413.975159 437.983093,409.061401 
	C447.374664,363.057739 458.261200,317.439545 474.049683,273.147034 
	C477.390930,263.773590 481.797424,254.774673 485.825714,245.652939 
	C489.299072,237.787689 495.321411,233.177383 504.020508,233.110611 
	C513.195068,233.040161 520.378540,236.897644 524.841919,245.251389 
	C534.070435,262.523865 538.132263,281.412567 541.936829,300.341125 
	C551.569885,348.267761 556.832520,396.755890 560.180176,445.479767 
	C560.337708,447.772675 560.188538,450.135529 561.654541,453.285431 
	C563.854614,439.184448 565.797607,425.981384 567.987122,412.819336 
	C582.418335,326.066498 599.699463,239.975418 628.980591,156.774139 
	C641.695374,120.645554 656.869629,85.558578 675.599915,52.084061 
	C679.673157,44.804436 684.525757,38.041241 689.562012,31.407543 
	C694.849426,24.443213 702.000549,22.444359 710.375916,23.463232 
	C718.582336,24.461550 722.838928,29.743599 725.450195,36.938076 
	C728.958435,46.604111 729.810242,56.772564 730.714722,66.864601 
	C735.053528,115.274429 734.686646,163.724258 731.579590,212.189957 
	C726.971008,284.077026 715.843628,355.187836 706.347046,426.500153 
	C697.906372,489.883789 687.810303,553.043396 680.389282,616.559753 
	C675.611877,657.449707 671.907166,698.441528 673.842163,739.709717 
	C674.491089,753.549805 675.939575,767.270447 680.003052,780.592712 
	C681.321350,784.914734 683.290955,788.917297 685.823975,792.684631 
	C688.215576,796.241577 690.989685,796.958740 694.733215,794.822205 
	C700.303406,791.643066 704.958679,787.422485 709.273071,782.744141 
	C724.619385,766.103088 735.053162,746.402954 743.962097,725.902039 
	C764.885071,677.754944 780.385864,627.708984 794.827148,577.335632 
	C802.851074,549.346863 810.862000,521.271301 815.203796,492.450714 
	C817.877441,474.702820 818.372925,456.627441 819.865723,438.700714 
	C820.612244,429.736267 821.390076,420.774323 822.175171,411.813141 
	C823.494446,396.754639 831.946838,391.200531 846.593750,395.598938 
	C852.101135,397.252777 855.330383,400.519592 856.185242,406.381989 
	C859.228760,427.253662 859.220764,448.223816 858.529541,469.224579 
	C857.082397,513.191101 852.070007,556.974670 851.737549,600.997620 
	C851.644470,613.322510 851.344482,625.677124 854.913818,637.693420 
	C858.248718,648.920410 860.660217,649.837158 870.312500,642.997803 
	C881.498535,635.071655 889.386597,624.135864 897.554016,613.338867 
	C906.058838,602.095764 909.221375,590.191589 909.106628,575.913330 
	C908.536011,504.903564 911.170288,433.937347 916.392334,363.133148 
	C921.699585,291.174225 930.455444,219.587662 947.060547,149.227875 
	C956.008484,111.313347 967.007385,73.981026 983.971069,38.703053 
	C986.201965,34.063610 988.810486,29.593592 991.434631,25.157757 
	C998.417725,13.353519 1008.045654,4.893559 1021.859497,1.344740 
	C1027.687988,1.000000 1033.376099,1.000000 1039.531982,1.000000 
	C1054.341187,1.710660 1062.237061,10.670059 1067.834351,22.653545 
	C1073.498901,34.781277 1075.284546,47.870697 1077.121460,60.887939 
	C1080.369263,83.904305 1080.075806,107.130692 1079.100830,130.229401 
	C1078.111572,153.672623 1074.771240,176.957489 1070.723267,200.116501 
	C1060.799805,256.888367 1045.934082,312.356079 1027.003540,366.745361 
	C1012.810425,407.523590 996.766479,447.578735 979.046936,486.958923 
	C972.278992,502.000214 965.482605,517.027710 958.129883,531.794922 
	C956.453979,535.160889 955.709473,538.812805 955.607910,542.428162 
	C955.219788,556.240662 953.840088,569.992920 953.357422,583.796753 
	C952.484924,608.749023 950.536621,633.699402 951.479187,658.665405 
	C952.564819,687.419800 953.062561,716.312012 961.485107,744.237183 
	C964.636414,754.685120 968.855042,764.527527 976.091125,772.967407 
	C985.104797,783.480713 995.407471,785.955994 1008.329956,780.818787 
	C1020.638733,775.925537 1031.175659,768.341492 1040.759155,759.549622 
	C1052.910278,748.402222 1064.352905,736.507935 1074.298828,723.257446 
	C1076.871948,719.829407 1077.290649,716.646423 1075.830933,712.589111 
	C1066.529785,686.736511 1061.283203,660.009766 1058.499390,632.701538 
	C1056.449829,612.595093 1055.784668,592.421997 1056.797729,572.329285 
	C1059.670654,515.344055 1069.001343,459.708313 1095.004150,408.060547 
	C1101.432739,395.291504 1109.649292,383.753418 1121.420166,375.277069 
	C1136.015991,364.766296 1152.153076,363.079193 1169.013306,368.304138 
	C1179.933105,371.688171 1185.832764,380.404724 1189.954834,390.419495 
	C1194.769897,402.117523 1196.595093,414.509430 1197.302368,427.012817 
	C1199.932739,473.519958 1191.466553,518.531311 1178.330444,562.839722 
	C1165.641357,605.640686 1146.327026,645.422913 1122.465454,683.026794 
	C1118.580566,689.149109 1117.615356,694.783569 1119.477539,701.833923 
	C1123.363037,716.543945 1127.550049,731.095215 1134.840576,744.518433 
	C1139.869141,753.776733 1145.842163,762.296997 1154.395142,768.877991 
	C1162.245239,774.918091 1170.699219,776.050049 1179.865967,773.380188 
	C1195.052856,768.956970 1207.313110,759.762695 1217.920898,748.490662 
	C1235.008179,730.333069 1249.932861,710.550781 1260.586060,687.813782 
	C1262.353394,684.041809 1263.804199,680.129211 1265.768311,676.444092 
	C1267.117676,673.912231 1268.724487,671.597961 1270.968384,669.799072 
	C1274.704102,666.804443 1277.434692,667.264160 1280.771851,671.663147 
	C1281.000000,674.370544 1281.000000,676.741150 1281.000000,679.555847 
z"/>
<path fill="#FFFFFF" opacity="1.000000" stroke="none" 
	d="
M1281.000000,671.531372 
	C1275.911499,667.683899 1272.780396,668.028931 1268.945679,673.775879 
	C1267.210205,676.376831 1266.024170,679.360474 1264.717651,682.229126 
	C1250.717773,712.968384 1231.479736,739.819397 1205.453247,761.533447 
	C1198.644897,767.213623 1190.733154,771.167236 1182.394165,774.263855 
	C1171.820312,778.190369 1162.161377,776.752991 1153.262817,769.843567 
	C1140.569214,759.987427 1133.366089,746.341187 1127.325806,731.972656 
	C1122.411743,720.282898 1119.436279,707.975830 1116.526123,695.664978 
	C1115.489136,691.278320 1117.641113,687.962769 1119.821777,684.567139 
	C1139.934937,653.247803 1156.757324,620.279663 1169.366089,585.221863 
	C1185.074585,541.546143 1194.701416,496.618469 1196.298950,450.154694 
	C1196.941406,431.468353 1195.879883,412.844330 1190.076538,394.828979 
	C1188.488770,389.900177 1186.207520,385.283478 1183.253906,381.013885 
	C1178.151245,373.637939 1171.196533,369.342468 1162.300415,367.925201 
	C1140.988892,364.529907 1123.654297,371.290070 1110.014404,387.912964 
	C1095.601685,405.477509 1087.146851,426.110626 1080.201660,447.326202 
	C1060.067383,508.830933 1054.096802,571.958679 1060.323364,636.236328 
	C1062.897705,662.812622 1068.525024,688.834595 1077.816284,713.958435 
	C1078.929810,716.969727 1079.181396,719.552307 1076.995605,722.318848 
	C1063.639038,739.225281 1049.503052,755.363220 1032.283447,768.518433 
	C1023.904663,774.919556 1014.970032,780.322021 1004.846558,783.569519 
	C994.460693,786.901123 985.510315,784.524170 977.795410,776.963928 
	C966.620239,766.012878 961.837463,751.870972 958.082397,737.259705 
	C951.938232,713.352356 950.997314,688.851746 950.338196,664.372559 
	C949.224670,623.017029 952.007874,581.766602 954.308228,540.510254 
	C954.523376,536.651672 955.791443,533.083618 957.491699,529.579651 
	C992.466370,457.500000 1022.382935,383.420013 1044.574219,306.374390 
	C1059.939209,253.029007 1071.882935,198.928497 1076.645020,143.492355 
	C1079.621460,108.843773 1079.148560,74.255928 1072.061768,40.012360 
	C1070.570801,32.807415 1067.942749,26.007704 1064.617798,19.440611 
	C1059.504761,9.341617 1051.516235,3.323502 1040.129883,1.370135 
	C1118.628906,1.000000 1197.257812,1.029964 1275.886597,0.911330 
	C1279.809448,0.905411 1281.137939,1.340025 1281.134888,5.882073 
	C1280.980713,227.608871 1281.000000,449.335785 1281.000000,671.531372 
z"/>
<path fill="#FDFDFD" opacity="1.000000" stroke="none" 
	d="
M1.000000,781.468628 
	C3.412379,785.439636 3.190208,790.508972 4.358556,795.249817 
	C14.367240,835.862183 40.362778,862.845825 76.904129,881.005554 
	C92.696869,888.854004 109.395836,893.591980 126.878029,896.618591 
	C86.240608,897.000000 45.481075,896.956543 4.722088,897.084656 
	C1.549518,897.094604 0.913451,896.302368 0.923242,893.235168 
	C1.041682,856.136169 1.000000,819.036682 1.000000,781.468628 
z"/>
<path fill="#9A9A9A" opacity="1.000000" stroke="none" 
	d="
M151.458069,897.000000 
	C154.292709,895.988586 157.711441,896.037109 161.537781,895.884766 
	C161.913162,896.143005 161.846878,896.316040 161.890305,896.744568 
	C158.638718,897.000000 155.277420,897.000000 151.458069,897.000000 
z"/>
<path fill="#656565" opacity="1.000000" stroke="none" 
	d="
M1.000000,754.437500 
	C3.182264,755.989441 1.559220,758.242310 1.221272,760.695435 
	C1.000000,758.958313 1.000000,756.916687 1.000000,754.437500 
z"/>
<path fill="#464646" opacity="1.000000" stroke="none" 
	d="
M1.000000,771.437500 
	C2.417596,773.087463 2.207374,775.345093 1.346799,777.817261 
	C1.000000,775.958313 1.000000,773.916687 1.000000,771.437500 
z"/>
<path fill="#5E5E5E" opacity="1.000000" stroke="none" 
	d="
M130.437500,897.000000 
	C131.988388,894.846008 134.249100,896.314270 136.707367,896.758911 
	C134.958328,897.000000 132.916672,897.000000 130.437500,897.000000 
z"/>
<path fill="#030303" opacity="1.000000" stroke="none" 
	d="
M819.482727,305.441162 
	C824.709290,301.338623 830.291809,298.863037 836.525146,298.071503 
	C853.417053,295.926544 865.720825,306.415863 867.826477,324.653687 
	C869.778809,341.563721 861.986145,350.920013 844.925781,352.121216 
	C838.246338,352.591522 831.627869,352.444427 825.209656,350.168060 
	C807.727783,343.967682 802.505493,328.675385 812.564087,313.069641 
	C814.382202,310.248932 816.613037,307.796143 819.482727,305.441162 
z"/>
<path fill="#FEFEFE" opacity="1.000000" stroke="none" 
	d="
M266.811127,808.756348 
	C248.445892,839.373413 223.492538,861.921692 190.998611,876.243286 
	C151.481888,893.660217 113.969704,889.257935 77.553780,867.403687 
	C19.891693,832.798950 4.706578,757.981018 38.233822,701.096558 
	C53.728157,674.807861 75.626907,655.530029 101.472710,640.057800 
	C127.649940,624.387207 155.395401,611.894775 182.999832,599.103699 
	C203.673233,589.524292 224.260605,579.771118 244.261124,568.847168 
	C247.820450,566.903076 249.350357,567.651306 251.056747,571.048706 
	C271.595947,611.942444 287.291656,654.377502 290.666901,700.434326 
	C293.468109,738.658081 286.661957,775.018860 266.811127,808.756348 
z"/>
<path fill="#FEFEFE" opacity="1.000000" stroke="none" 
	d="
M286.750793,76.391861 
	C296.618500,105.295708 292.093658,132.940842 281.369415,160.071335 
	C268.096436,193.649734 247.021362,222.254059 223.587372,249.268829 
	C202.570786,273.496826 179.079605,295.143341 154.110733,315.225250 
	C152.050049,316.882599 150.681946,318.146942 149.302551,314.427887 
	C122.652336,242.575333 120.586487,171.424408 155.968979,101.633148 
	C167.439346,79.008087 183.772461,60.165874 205.244583,46.319584 
	C215.987869,39.391785 227.729691,34.352654 240.915329,35.467022 
	C257.713287,36.886681 269.103577,47.122032 278.487640,60.073303 
	C282.013123,64.938942 284.545868,70.379135 286.750793,76.391861 
z"/>
<path fill="#FDFDFD" opacity="1.000000" stroke="none" 
	d="
M963.762024,480.731354 
	C961.477539,485.338409 960.468994,490.122711 957.268616,494.722839 
	C955.911987,490.099548 956.869629,486.083893 957.190247,482.159363 
	C959.725342,451.119690 962.470215,420.097076 964.973633,389.054932 
	C969.512451,332.774506 975.318420,276.644409 983.657898,220.781372 
	C991.627930,167.392548 1002.686584,114.672417 1016.985962,62.630943 
	C1020.384583,50.261948 1024.872070,38.275810 1031.012329,26.969658 
	C1033.688354,22.042143 1034.454590,21.971977 1037.279663,26.849108 
	C1043.803223,38.111420 1046.771240,50.580341 1049.014526,63.227352 
	C1054.857788,96.171440 1053.871216,129.233826 1050.468628,162.321518 
	C1039.686890,267.159790 1009.616699,366.890991 970.508240,464.227051 
	C968.340149,469.623016 966.110779,474.994385 963.762024,480.731354 
z"/>
<path fill="#FDFDFD" opacity="1.000000" stroke="none" 
	d="
M1110.974976,571.964478 
	C1116.261719,517.647827 1125.956055,464.742279 1144.928711,413.840668 
	C1147.544434,406.823090 1150.800903,400.070709 1154.498657,393.561462 
	C1157.294312,388.640167 1157.859009,388.666351 1161.044067,393.217163 
	C1170.008301,406.025665 1173.554321,420.656921 1175.003296,435.895813 
	C1178.487671,472.540344 1172.554932,508.339020 1164.456299,543.822632 
	C1154.759644,586.308716 1137.873291,625.996582 1116.126831,663.675476 
	C1115.385986,664.959229 1114.758789,667.045471 1113.341309,666.867615 
	C1111.213623,666.600708 1111.895874,664.186584 1111.708496,662.712402 
	C1108.842896,640.170227 1108.431274,617.536438 1109.487671,594.865601 
	C1109.836548,587.378845 1110.453735,579.904602 1110.974976,571.964478 
z"/>
</svg>