<?xml version="1.0" encoding="UTF-8" standalone="no"?>
<!-- Created with Inkscape (http://www.inkscape.org/) -->

<svg
   version="1.1"
   id="svg297"
   width="478"
   height="409"
   viewBox="0 0 478 409"
   sodipodi:docname="marisopafinal.svg"
   inkscape:version="1.2.2 (732a01da63, 2022-12-09)"
   xmlns:inkscape="http://www.inkscape.org/namespaces/inkscape"
   xmlns:sodipodi="http://sodipodi.sourceforge.net/DTD/sodipodi-0.dtd"
   xmlns="http://www.w3.org/2000/svg"
   xmlns:svg="http://www.w3.org/2000/svg">
  <defs
     id="defs301" />
  <sodipodi:namedview
     id="namedview299"
     pagecolor="#ffffff"
     bordercolor="#000000"
     borderopacity="0.25"
     inkscape:showpageshadow="2"
     inkscape:pageopacity="0.0"
     inkscape:pagecheckerboard="0"
     inkscape:deskcolor="#d1d1d1"
     showgrid="false"
     inkscape:zoom="2.1442543"
     inkscape:cx="156.93101"
     inkscape:cy="235.04675"
     inkscape:window-width="1920"
     inkscape:window-height="1057"
     inkscape:window-x="-8"
     inkscape:window-y="535"
     inkscape:window-maximized="1"
     inkscape:current-layer="g303" />
  <g
     inkscape:groupmode="layer"
     inkscape:label="Image"
     id="g303">
    <path
       style="fill:none;stroke:#1e1e1e"
       d="m 145,19 c -1.137,0.9981 -2.188,2.0183 -5,3.8055 -1.523,0.9681 -3.484,2.1541 -5,3.4167 -2.96,2.4657 -6.405,6.0749 -7.528,9.7778 -1.68,5.5422 -1.318,10.2561 -0.055,16 0.362,1.6473 1.432,4.5596 0.777,5.8889 -1.332,2.7034 -3.357,1.819 -5.194,1.2778 -2.675,-0.7882 -6.235,-2.7493 -9,-3.7222 C 111.317,54.5006 107.808,53.6175 105,53 99.0145,51.6837 97.94,51.9236 94.3333,47.75 93.1658,46.3989 92.2214,42.4629 91.1667,40 88.9378,34.7952 86.8454,29.7583 86.4722,24 86.1785,19.4686 87.1667,14.5849 90.3889,11.2222 92.9378,8.56216 97.5998,6.20374 101,5.41666 104.28,4.65729 105.961,5 110,5 c 2.793,0 3.765,-0.09332 6,0.22223 3.969,0.56036 11.754,2.54501 16,4.16666 3.089,1.18001 6.501,2.49771 9,4.30561 1.735,1.2552 2.639,3.0516 4.611,4.611 1.648,1.3028 3.516,1.2081 5.389,2.3334 1.959,1.1771 3.276,2.6745 5,4.1389 1.793,1.5235 3.029,2.3065 4.972,4.25 2.025,2.0252 3.283,3.8355 5.084,5.9722 5.341,6.3387 10.447,12.9331 14.75,20 12.205,20.049 20.827,41.0723 29,63 5.193,13.936 10.243,31.992 13.777,46 1.252,4.96 1.662,4.615 3.723,9 3.174,6.755 5.994,11.301 15.694,6.917 l 1.944,-1.278 L 247,177 c 0.92,1.441 1.522,5.048 3.25,9 1.279,2.925 2.088,4.06 4.75,4.889 1.839,0.573 3.965,10e-4 6,-1 1.485,-0.73 3.223,-1.979 3.889,-3.889 0.852,-2.445 1.093,-3.607 -0.611,-7 -1.941,-3.863 -4.594,-4.807 -6.639,-8 -1.256,-1.961 -1.08,-2.982 -2.889,-4.694 -1.313,-1.243 -3.411,-1.778 -4.639,-2.806 -1.969,-1.649 -1.674,-2.269 -2.555,-4.5 -0.64,-1.621 -2.436,-4.863 -3.084,-7 -2.125,-7.007 -1.382,-17.977 2.389,-24 3.716,-5.934 11.244,-7.527 14.139,-14 M 94,48 c -1.9747,1.4603 -4.4895,1.6612 -7.9722,4.3333 -5.1292,3.9354 -3.5352,13.1925 -2.1667,18.6667 0.3342,1.3365 1.0899,3.9298 1.7778,4.9722 C 88.3355,80.0587 89.182,78.7993 93,81 c 2.7728,1.5982 12.525,8.0959 15,9.3333 2.306,1.1531 3.762,1.2342 6,1.6667 0,-1.8202 -0.022,-3.6465 0,-6 0.027,-2.9027 1.323,-7.5884 3.25,-10 5.057,-6.3292 17.067,-8.563 11.75,-17 l 2,6 7,2.3889 16,11.6944 L 165.583,93 205,164 l 9.306,21 2.055,8 4.639,8 4.139,-4.028 2.833,-4.972 0.028,-5 v -8 M 86,77 c -2.8462,2.7027 -7.3093,4.9934 -8.6667,9 -1.5771,4.6552 1.0947,8.8885 1.3611,13 0.3229,4.981 -2.049,9.834 -2.6111,15 -0.9325,8.572 -0.3691,19.003 3.1667,27 2.3038,5.211 7.6351,12.699 10.4722,17 1.1481,1.74 2.358,3.42 1.6945,6 -0.6315,2.456 -2.2662,3.419 -4.4167,5 -5.0662,3.724 -10.0128,7.279 -15,11.389 -1.7316,1.427 -3.2497,2.898 -5,4.389 -1.8086,1.54 -3.1647,2.471 -5,4.25 -2.5864,2.506 -3.8861,4.454 -6.0833,6.972 -1.8583,2.129 -3.196,3.528 -5.0556,6 -3.0001,3.988 -5.5995,8.241 -7.4722,13 -0.885,2.249 -1.9617,10.325 -1.6667,12 0.7776,4.413 2.9198,4.344 7.2778,6.361 6.056,2.804 12.6184,5.354 19,6.639 2.0585,0.415 3.9968,0.856 6,0.972 4.148,0.24 8.9394,1.23 10.0278,-2.083 0.48,-1.461 -4.3999,-7.974 -5.1667,-9.889 C 78.1067,227.116 78,223.981 78,222 c 0,-2.022 -0.063,-3.075 0.2222,-5 0.3277,-2.212 1.0313,-4.781 2.0278,-7 6.1556,-13.707 20.327,-21.752 32.75,-28.222 3.959,-2.062 10.272,-3.894 10.167,-7.778 -0.053,-1.962 -1.782,-3.114 -3.195,-4.389 -3.503,-3.161 -6.841,-6.808 -9.5,-10.611 -3.652,-5.224 -6.877,-10.763 -8.278,-17 -1.295,-5.771 -1.717,-8.911 -1.111,-15 0.527,-5.292 1.822,-10.505 4.195,-15 2.396,-4.54 8.689,-7.59 11,-12.0833 C 117.968,96.6301 116.054,95.3023 115,93 m 2,6 c 2.431,1.706 4.317,2.532 7,4.389 4.236,2.932 9.814,7.772 14,11.222 12.806,10.554 24.14,21.969 34.778,34.389 3.12,3.643 5.715,7.288 8.611,11 2.941,3.77 5.808,7.229 8.444,11 3.99,5.707 7.464,12.44 10.334,19 2.326,5.316 5.184,12.644 6.833,18 1.791,5.817 -0.189,8.333 4.972,8.333 1.516,0 3.592,-3.122 4.278,-4.333 2.442,-4.309 3.497,-7.685 3.75,-10 m 68,-75 c -2.057,10.877 1.134,21.643 -5.472,31 -1.995,2.825 -5.556,6.425 -8.528,8.083 -3.053,1.704 -6.993,1.724 -10,2.639 -1.786,0.544 -2.179,1.089 -2.944,1.528 L 259,172 m 7,14 c 1.831,-0.1 3.43,-0.138 6,-1.25 2.596,-1.123 7.124,-3.203 10,-4.361 9.043,-3.642 17.908,-7.091 27,-10.417 19.044,-6.965 38.887,-12.862 59,-16.028 14.958,-2.354 28.92,-4.563 44,-3.027 4.14,0.421 15.167,1.786 19,2.722 1.663,0.406 3.407,0.677 4.472,1.861 1.934,2.149 1.293,5.576 1.611,8.5 0.552,5.067 1.192,5.412 0.056,10 -0.745,3.009 -1.922,6.361 -4.222,9 -5.935,6.81 -12.026,7.618 -17.917,12 1.436,1.931 2.547,3.701 6,5.75 2.635,1.564 5.497,3.02 8,4.694 2.938,1.966 4.647,3.651 7,5.334 2.659,1.902 4.158,2.224 6,3.055 0.537,0.243 1.987,0.603 3.361,2.417 1.317,1.739 1.346,2.699 1.556,4.75 0.272,2.666 -1.269,9.294 -4,11.528 -4.095,3.348 -10.823,3.56 -14.584,7.111 -1.89,1.785 -1.177,4.21 -1.416,6.361 -0.305,2.742 -1.169,5.691 -3.167,7.917 -2.978,3.316 -7.474,2.316 -10.667,5.194 -3.08,2.777 -5.15,6.879 -8.083,9.889 -2.083,2.137 -3.703,3.818 -6,5.583 -4.166,3.202 -9.989,6.103 -15,8.028 -7.617,2.927 -16.028,3.371 -24,3.389 -2.309,0.005 -5.729,-0.521 -6.639,2.111 -0.743,2.15 0.615,6.323 0.639,8.889 0.019,2.04 0,3.838 0,6 0,4.096 0.035,7.198 0,11 -0.02,2.113 -0.27,3.924 -0.611,6 -0.785,4.775 -0.789,10.088 -1.778,15 -1.514,7.517 -3.782,15.39 -7.805,22 -2.023,3.322 -6.329,6.372 -7.639,10 -0.664,1.837 -0.332,3.265 -0.111,5 0.373,2.93 1.211,6.783 0.861,10 -0.32,2.942 -1.512,5.62 -2.945,8 -0.955,1.587 -1.669,2.519 -3.055,3.917 -1.407,1.417 -2.373,2.121 -3.917,3.222 -3.41,2.431 -7.489,4.736 -12,4.861 -10.898,0.303 -20.749,-9.179 -27.972,-16.083 -2.311,-2.209 -3.145,-3.711 -5.111,-5.917 -1.416,-1.589 -2.401,-2.436 -3.695,-4 -2.16,-2.611 -5.767,-7.274 -7.805,-10 -3.9,-5.215 -6.631,-9.504 -10.028,-15 -1.305,-2.111 -3.546,-5.906 -4.167,-8 -0.825,-2.783 -0.595,-3.343 -2.25,-6 -1.625,-2.61 -4.705,-6.135 -5.972,-9 -2.64,-5.972 -6.308,-13.611 -8.556,-20 -4.159,-11.822 -5.849,-23.928 -7.833,-36 -0.826,-5.028 -0.747,-9.902 -1.555,-14 -0.405,-2.05 -0.501,-2.852 -1.389,-3.861 -0.046,-0.052 -0.87,-1.354 -2.667,-1.306 -4.118,0.111 -4.092,1.926 -5.667,6.167 -0.986,2.658 -2.55,8.09 -3.722,11 -2.831,7.029 -7.178,14.898 -11.472,21 -1.492,2.121 -4.454,6.139 -5.945,8 -1.83,2.285 -2.796,3.649 -5.194,5.972 -1.973,1.912 -7.965,6.6 -10,7.611 -1.009,0.502 -2.195,1.213 -3.889,0.861 -2.307,-0.478 -2.07,-3.108 -2.111,-4.444 -0.059,-1.922 0.864,-7.551 1,-10 0.66,-11.875 5.077,-23.186 9.833,-34 1.552,-3.528 5.261,-7.388 6.139,-11 0.654,-2.69 -0.836,-4.806 -3.972,-6.639 -1.755,-1.026 -2.044,-1.322 -5,0.361 -2.016,1.148 -3.982,2.86 -6,4.028 -9.825,5.686 -21.163,10.722 -32,14.861 -6.619,2.528 -17.302,5.958 -24,6.361 -2.823,0.17 -6.086,-0.248 -9,0.5 -3.642,0.936 -3.878,2.016 -8,2.75 C 93.0952,278.701 77.7522,278 63,278 c -9.3467,0 -20.3415,-1.949 -29,-6.278 -2.5612,-1.28 -4.9476,-2.789 -6.9167,-4.805 -5.8238,-5.964 -5.7205,-17.286 -3.3889,-24.917 0.7207,-2.358 1.7498,-4.159 3.3889,-6 4.4798,-5.032 8.544,-4.501 13.9167,-8 m 396,-72 c 1.891,0.357 3.684,0.608 6,1.222 9.759,2.587 21.018,11.666 27.778,19.778 5.108,6.13 7.41,7.842 6.194,20 -0.46,4.605 -1.367,3.917 -4.361,6.944 -6.522,6.595 -19.299,9.738 -25.611,10.056 m -198,-50 -3,7 2,6 c 3.619,-2.068 4.66,-1.343 10,-5 m -30,0 c 0.901,-0.897 1.616,-1.957 4,-3.917 4.214,-3.463 10.306,-2.489 14,-0.083 m -122,7 c 2.291,0.443 4.353,0.898 7,1.694 10.227,3.078 21.192,8.012 30,13.639 7.137,4.56 14.481,7.879 22,11.917 2.581,1.386 5.652,3.102 8,4.611 2.182,1.402 3.277,3.008 5.389,4.833 1.759,1.521 4.76,2.664 6.611,3.667 3.519,1.906 4.178,1.96 5.889,3.75 1.721,1.8 2.325,5.41 1.889,7.889 -0.224,1.275 -0.213,2.41 -2.084,5 -1.109,1.537 -2.614,2.875 -3.694,4 -1.585,1.651 -4.462,5.204 -6.083,5.917 -4.957,2.178 -4.515,0.066 -9.917,4.083 m 50,-64 c 0,4.795 -0.508,4.081 0.694,7 0.769,1.865 1.76,3.133 2.667,5 1.265,2.602 2.403,4.366 3.639,6 3.394,-2.125 5.317,-3.07 8,-8 m 155,4 c 0,7.576 2.668,19.186 -6,26.778 -2.392,2.095 -3.821,3.273 -7,4.333 -2.085,0.695 -5.392,1.163 -7,0.75 -2.287,-0.588 -2.761,-1.315 -6,-2.222 -8.779,-2.459 -21.654,-5.541 -31,-7.25 -3.182,-0.582 -6.11,-1.055 -9,-1.389 -2.118,-0.245 -3.004,-0.5 -5,-0.778 -2.13,-0.296 -2.881,-0.122 -5,-0.25 -2.806,-0.169 -3.74,-0.756 -7,-0.944 -2.635,-0.153 -3.855,-0.028 -6,-0.028 -2.601,0 -9.084,0.027 -12,0 -3.779,-0.035 -5.102,-0.747 -9,-0.972 -6.422,-0.372 -9.661,0.44 -15,1.194 -7.588,1.072 -20.584,3.951 -28,6.611 -2.354,0.845 -7.665,3.063 -10,1.75 -3.455,-1.942 -4.052,-3.24 -4.583,-5.583 -0.308,-1.355 0.668,-4.346 1.25,-6 1.018,-2.894 1.027,-3.189 3.333,-7 1.804,1.676 2.649,4.346 7,3.5 4.533,-0.881 17.455,-6.885 23,-8.361 2.902,-0.773 4.404,-0.944 7,-1.167 1.76,-0.151 3.219,-0.427 5,-0.778 7.95,-1.564 16.158,-3.149 24,-5.055 7.82,-1.901 16.341,-3.835 24,-4.917 1.315,-0.185 2.531,-0.119 4,-0.305 1.75,-0.222 2.941,-0.629 5,-0.834 2.606,-0.259 3.551,0.031 6,-0.111 2.19,-0.127 3.801,-0.67 6,-0.889 5.189,-0.516 13.588,-0.233 19,-0.083 7.266,0.202 15.683,2.544 23,5 5.382,1.806 5.96,3.435 10,4.111 1.345,0.225 4.35,-0.09 6,-0.111 m -185,-3 c 2.087,-0.772 3.395,-0.762 8,-2 m 8,10 v 5 m -50,7 -5,2.889 -9,1.333 -23,3.167 -25,5.944 -14,5.056 -13,5.417 -7,2.805 -5,2 -5,-0.583 L 85,239 m 126,-22 v 2 m 29,1 -1.722,7 -4.528,7 -5.056,8 -1.694,10 m 19,-27 -6,4 h 3 l 1.5,1.389 c 4.095,2.718 4.178,2.123 8.5,3.583 2.445,0.827 3.263,0.676 6,1.5 4.516,1.359 8.039,3.444 12,5.278 2.322,1.075 4.577,1.929 7,3 8.336,3.686 16.889,6.868 25,10.417 2.078,0.909 3.941,1.537 6,2.666 5.495,3.015 11.424,8.787 17,11.278 2.739,1.224 4.763,0.931 8,1.5 2.158,0.38 3.079,0.444 5,0.778 2.276,0.395 2.961,0.573 5,0.611 2.218,0.041 3.079,-0.069 5,-0.389 2.887,-0.481 8.298,-1.183 12,-2.305 8.578,-2.602 15.839,-8.14 21.611,-15.306 6.376,-7.915 7.389,-17.051 7.389,-24 m 9,-2 c 0.888,0.776 2,2.083 4,3.083 2.958,1.479 13.917,5.143 17,6.556 3.207,1.47 4.437,2.478 7,3.361 m -217,-8 2.056,1.583 1.944,1.167 c 7.011,3.562 10.883,5.199 14,8.25 m 24,-9 c 0.376,1.943 0.381,3.499 2.083,7 2.725,5.605 8.314,14.445 11.528,20 7.26,12.546 13.533,25.17 17.695,39 1.616,5.372 2.787,10.554 4.388,16 0.916,3.113 2.896,9.492 3.612,12 0.954,3.345 1.424,7.201 7.694,10.278 2.236,1.097 3.311,0.741 6,0.722 2.343,-0.016 4.154,-0.139 6,-0.861 2.782,-1.089 6.749,-3.944 8.972,-6.167 C 330.294,321.651 330.816,306.607 329.083,293 327.986,284.384 326,275.165 326,269 M 94,242 c 0,7.065 0.4427,11.729 6.083,18 2.235,2.484 6.817,5.708 8.889,7.417 3.012,2.484 3.743,4.005 5.028,5.583 m 85,-30 c -0.28676,3.09236 -1.3377,6.61664 -4.14349,11.1328 M 255,338 c 1.67,-0.884 2.801,-1.897 7,-0.556 3.234,1.034 10.153,3.108 14,3.25 6.446,0.239 9.953,-3.513 15,-6.694 m 8,5 2.083,6 6.917,7.389 7,5.611 7,4.389 5,2.778 7,2.833"
       id="path546"
       sodipodi:nodetypes="cccccccccccsscsscsccccccccccccsccccscccccccsccccccccccccccccccccccccccccsccccsccccssssccscccccccccccccccscccccccccccccccccsccccccccccccccccccssccccccsccccssccccccccccccccccccsccccccscccsccccccccccccccccccccccccccccsccccccccsccccccccsscccccccccccccccscccscccccccccccccccccccccccccccccccccccccsccccsccccccccccccccccccccccccccccccccccc" />
  </g>
</svg>
