<?xml version="1.0" encoding="UTF-8" standalone="no"?>
<svg
   version="1.2"
   viewBox="0 0 478 409"
   width="478"
   height="409"
   id="svg22"
   sodipodi:docname="marisopa5.svg"
   inkscape:version="1.2.2 (732a01da63, 2022-12-09)"
   xmlns:inkscape="http://www.inkscape.org/namespaces/inkscape"
   xmlns:sodipodi="http://sodipodi.sourceforge.net/DTD/sodipodi-0.dtd"
   xmlns="http://www.w3.org/2000/svg"
   xmlns:svg="http://www.w3.org/2000/svg"
   xmlns:rdf="http://www.w3.org/1999/02/22-rdf-syntax-ns#"
   xmlns:cc="http://creativecommons.org/ns#"
   xmlns:dc="http://purl.org/dc/elements/1.1/">
  <defs
     id="defs26">
    <pattern
       id="EMFhbasepattern"
       patternUnits="userSpaceOnUse"
       width="6"
       height="6"
       x="0"
       y="0" />
  </defs>
  <sodipodi:namedview
     id="namedview24"
     pagecolor="#ffffff"
     bordercolor="#000000"
     borderopacity="0.25"
     inkscape:showpageshadow="2"
     inkscape:pageopacity="0.0"
     inkscape:pagecheckerboard="0"
     inkscape:deskcolor="#d1d1d1"
     showgrid="false"
     inkscape:zoom="2"
     inkscape:cx="298.25"
     inkscape:cy="155.5"
     inkscape:window-width="1920"
     inkscape:window-height="1057"
     inkscape:window-x="-8"
     inkscape:window-y="535"
     inkscape:window-maximized="1"
     inkscape:current-layer="Background" />
  <title
     id="title15">marisopa</title>
  <style
     id="style17">
		.s0 { fill: #161616 } 
		.s1 { fill: #ffffff } 
	</style>
  <g
     id="Background">
    <path
       id="path829"
       style="fill:#0e0e0e;stroke:none;stroke-width:0.261224"
       sodipodi:type="inkscape:offset"
       inkscape:radius="0"
       inkscape:original="M 351.22852 97.673828 C 343.13231 97.147616 334.31756 99.075581 329.53711 100.96094 C 301.23865 112.12108 279.53104 143.53733 260.38281 169.05664 C 255.40662 175.69027 241.3633 191.47156 245.49219 201.73242 C 248.25815 208.60586 260.68066 208.67902 266.13477 208.83984 C 285.16772 209.40015 304.87003 207.99978 323.29297 213.94922 C 320.52388 225.60289 335.01286 241.94433 335.75977 254.86523 C 336.14643 261.54006 329.84084 262.49859 327.33594 267.36719 C 325.59956 270.74041 325.96894 275.38596 323.88672 278.43555 C 321.77568 281.52406 317.6721 281.2555 315.15039 283.75586 C 305.52944 293.29559 289.78927 309.99487 275.50195 302.76172 C 268.05208 298.98987 266.95444 288.22783 263.82031 280.4375 C 256.13027 261.31627 245.2335 247.27975 247.64258 224.74609 C 253.1159 226.66484 254.94466 236.74314 256.52734 242.36328 C 260.47082 256.36075 265.2371 272.19205 274.07031 282.99219 C 282.71139 293.55679 293.0332 287.71071 293.0332 273.61719 C 300.25251 277.12026 309.62387 278.08324 313.625 268.21875 C 314.71534 265.53256 313.61887 261.42368 314.67578 259.24609 C 315.8718 256.77471 320.34591 255.78959 322.03906 252.87695 C 328.02394 242.57631 316.59975 235.43412 310.56445 231.28125 C 319.33762 226.11147 315.23193 217.69419 307.68359 215.33789 C 295.27435 211.46517 280.5883 211.96094 267.81641 211.96094 C 262.50879 211.96094 256.68638 210.80483 251.72461 213.74219 C 247.19897 216.42127 245.45271 223.86509 241.63867 227.87305 C 243.79966 217.134 242.97432 202.77165 242.33789 191.78711 C 242.18563 189.16116 239.31493 183.8692 239.63867 182.00586 C 240.97879 174.29367 248.40694 163.46847 251.86914 156.55469 C 253.25728 153.78411 256.32959 148.91268 255.15039 145.48633 C 253.50767 140.71774 248.91234 147.98011 248.02734 149.73633 C 243.71497 158.29353 236.78443 168.34207 235.63477 178.43359 C 226.91828 171.61328 226.29981 162.36544 221.46484 152.29297 C 220.13193 149.51643 217.85412 143.52797 214.5 144.09766 C 210.38408 144.7969 214.22125 153.58065 215.16797 155.70312 C 218.19163 162.48252 223.36619 166.80954 226.75586 173.03516 C 229.06791 177.28151 229.55827 183.58588 234.43359 184.96875 C 232.14003 195.98256 232.06113 209.02058 233.4082 220.20117 C 233.94161 224.62653 235.43019 230.79879 239.95703 231.28125 C 239.81797 235.11419 240.50713 257.79823 235.89648 257.53711 C 233.31568 257.39078 234.3161 247.4576 234.47461 245.48828 C 235.34568 234.66029 234.52776 220.02855 225.54688 213.91602 C 220.94126 210.78119 214.96217 211.93224 209.93555 211.96094 C 197.12547 212.03394 182.81966 211.54 170.30859 215.05273 C 162.77178 217.16894 156.54653 225.57645 166.22656 231.28125 C 164.54761 232.4406 162.58847 234.28817 160.70703 236.39062 C 166.34312 232.64971 174.23392 236.57864 180.87695 234.85547 C 183.33646 234.21731 192.37908 232.36802 191.75586 227.87305 C 190.52262 218.97745 171.70701 230.16371 168.38867 230.16797 C 165.8828 230.17097 161.8715 225.22853 162.83984 222.18945 C 164.53732 216.86198 173.73526 216.07055 177.75391 215.6543 C 190.17156 214.36775 204.24515 212.31691 216.66016 213.71484 C 221.84433 214.29844 227.72656 215.3127 228.66992 222.75781 C 222.90287 225.59913 221.03517 233.65738 219.22266 240.08984 C 215.4874 253.3446 207.8418 285.53909 193.36523 286.82422 C 188.59342 287.24786 183.05051 278.16504 185.6875 272.82422 C 187.5699 269.01173 212.41023 254.41183 201.77148 247.21875 C 197.79581 244.53086 192.89253 250.565 190.66406 253.72852 C 187.09235 258.79858 186.83552 266.69957 183.77344 271.16016 C 180.45918 275.98784 170.67329 274.90529 167.19141 271.28516 C 155.52859 259.15983 175.61982 257.95131 181.83789 253.55664 C 183.55746 252.34141 190.42935 247.47299 188.00586 244.43164 C 184.04821 239.46445 170.39921 248.0034 167.1875 251.25586 C 165.98188 252.47677 164.43133 256.08173 163.04102 256.65625 C 158.3038 258.61363 154.19355 248.90865 155.44336 244.63672 C 155.81167 243.37781 156.29255 242.51248 156.74219 241.54102 C 152.28282 248.67296 151.06219 256.79469 162.625 258.84375 C 159.25094 275.04666 174.19114 278.25934 183.75781 273.61719 C 183.85481 287.48823 193.79563 293.4595 202.49219 283.27734 C 212.66647 271.3654 216.59314 253.74352 221.50977 238.38477 C 221.968 236.95359 227.63752 221.85745 229.24805 225.6543 C 234.80015 238.74313 223.58476 258.92613 218.29492 269.35547 C 213.78561 278.24625 211.43994 292.52972 205.35156 299.73047 C 195.62662 311.23157 184.98236 300.93958 176.07422 295.35156 C 172.99989 293.42315 169.062 293.13039 166.23047 290.72266 C 164.05843 288.8758 163.57466 285.37637 161.41992 283.50195 C 158.83744 281.25504 154.77832 281.37269 152.83203 278.15234 C 150.6905 274.60893 151.29769 269.73268 148.85547 266.23047 C 146.16035 262.36542 140.45249 260.97265 141.07812 254.86523 C 142.00444 245.82358 145.77559 236.57887 149.51758 228.72461 C 151.65095 224.24726 155.20801 219.35113 153.49805 213.94922 C 171.50262 205.7324 192.52893 211.01548 211.37695 208.88477 C 217.18242 208.22843 228.36646 208.64525 231.33008 201.16406 C 235.33312 191.05919 221.27927 175.66981 216.48633 169.05664 C 197.99975 143.54955 174.4924 110.01964 146.05273 100.41797 C 135.45456 96.840175 106.60308 93.75318 107.88867 114.50391 C 109.0501 133.24611 126.8725 148.25882 131.01172 167.06836 C 133.15205 176.79448 134.07323 188.32922 138.77539 196.90234 C 142.74001 204.13066 148.36536 204.2462 151.33594 212.8125 L 151.33594 212.81445 C 141.35595 217.73022 132.92547 224.8813 122.27734 228.18945 C 99.449573 235.28138 75.461003 230.05549 52.628906 225.7168 C 42.908052 223.86937 33.158334 222.52123 23.330078 223.03125 C 21.275888 223.1378 14.805458 222.76005 13.494141 224.94531 C 12.395394 226.77654 21.447488 225.05237 22.609375 225.0293 C 32.535281 224.83297 42.058621 226.00062 51.908203 227.625 C 75.806865 231.56648 99.834741 237.35867 123.71875 229.89453 C 134.08781 226.654 142.33554 219.59092 152.05664 214.80273 C 153.52668 228.56353 133.31888 245.33225 140.20508 260.26367 C 141.88935 263.91562 145.86242 264.77166 147.83008 268.21875 C 149.83929 271.73858 149.33868 276.61305 151.65625 279.86523 C 153.95846 283.09552 157.84591 282.74103 160.45312 285.36328 C 170.11177 295.07832 184.93388 310.26215 199.36914 305.75781 C 209.50308 302.59542 210.55398 291.60826 214.44727 281.85742 C 222.35945 262.04007 232.61384 248.45217 231.07031 225.31445 L 231.31055 225.31445 C 234.09404 233.23633 229.0657 253.77091 234.03516 258.96484 C 236.44424 261.48282 239.53329 257.84202 240.1582 255.14844 C 241.91691 247.56894 239.89363 239.05903 241.71094 231.57812 C 242.26404 229.30138 244.66055 227.60881 245.48047 225.31445 L 245.7207 225.31445 C 245.55763 248.61526 253.98062 261.33862 262.30469 281.57422 C 265.62615 289.64755 266.61795 300.37298 274.30078 304.5 C 289.38544 312.60401 306.24865 295.76947 316.36914 285.41797 C 318.87884 282.85283 322.89718 283.20694 325.12109 280.12695 C 327.40985 276.95433 326.90359 272.24216 328.74805 268.78711 C 330.78944 264.96298 335.05928 263.9612 336.78125 259.97852 C 343.29689 244.92236 323.27417 228.75184 324.73438 215.08594 C 336.70171 217.60989 348.36974 229.48988 360.75977 233.13672 C 384.84336 240.22524 408.24672 232.48083 431.60742 225.5625 C 440.27492 222.99537 448.92794 220.48537 457.78516 218.98828 C 458.82507 218.81269 466.29219 218.28579 465.44922 216.5918 C 464.65908 215.00265 458.46941 216.80749 457.06445 217.03906 C 448.06073 218.52053 439.20104 221.11339 430.40625 223.78906 C 407.48025 230.76365 384.12759 238.31126 360.51953 230.95508 C 347.97819 227.04713 337.56412 217.22468 325.45508 213.09766 C 328.2794 203.28829 336.20298 202.47396 339.79102 193.20898 C 345.80952 177.67293 345.37464 160.13411 353.63867 145.47461 C 359.20325 135.60443 371.83388 122.47303 368.61328 109.10547 C 366.70399 101.17975 359.32472 98.20004 351.22852 97.673828 z M 156.74219 241.54102 C 157.89835 239.69195 159.28144 237.98368 160.70703 236.39062 C 159.18169 237.40306 157.86208 239.1214 156.74219 241.54102 z M 346.83008 99.740234 C 349.86815 99.89196 352.97465 100.20894 355.95508 100.98633 C 382.80055 107.99103 350.41748 145.21672 345.64062 160.81641 C 341.81962 173.30174 342.40033 196.92995 329.77734 202.01562 C 331.80192 193.64026 336.06816 186.10969 337.97266 177.58203 C 340.64808 165.59848 340.81545 152.33232 346.30078 141.49609 C 350.41238 133.3702 361.02063 120.09693 356.33984 109.67383 C 353.51072 103.37377 345.92492 104.82383 341.06641 106.03906 C 329.7331 108.87356 318.0446 115.12084 308.88477 123.53711 C 305.90434 126.27501 301.06676 130.24536 300.9707 135.24609 C 300.8746 140.38461 306.1619 141.11399 309.36328 141.61719 C 316.26798 142.70314 328.92869 140.43981 332.58398 149.73633 C 338.95311 165.93412 317.96911 159.22099 312.00586 160.21289 C 309.99329 160.5476 304.91211 161.48109 304.91211 164.79492 C 304.91211 168.16842 309.6353 168.20508 311.52539 168.20508 C 316.12932 168.20508 331.11876 161.39397 330.71289 170.47852 C 330.08366 184.59704 307.50351 175.27251 301.19922 175.30859 C 299.14582 175.32029 291.38867 175.45216 291.38867 179.16406 C 291.38867 182.2645 298.19682 183.00089 299.99805 183.21484 C 305.58905 183.87886 328.97578 177.30412 327.80859 189.79883 C 327.26342 195.62439 318.12353 196.56491 314.4082 196.61719 C 301.71076 196.79591 288.36998 196.75519 275.74219 194.79297 C 272.13013 194.23124 265.34385 194.38415 263.49219 189.79883 C 274.9696 182.57108 295.71142 170.83014 300.31055 155.41797 C 302.13099 149.31453 297.89178 146.52082 293.27344 147.44141 C 285.80436 148.92997 278.34457 153.69834 272.37891 159.08008 C 266.6366 164.26237 261.54672 171.18437 260.24023 179.85352 C 259.84156 182.50078 261.38178 187.41241 260.58203 189.48828 C 259.65741 191.88465 251.79696 195.18822 254.66211 198.85352 C 257.52726 202.5157 268.74778 201.02528 272.85938 201.49609 C 290.07428 203.46683 309.20111 208.93774 326.41602 205.14258 L 324.01367 211.96094 C 304.82701 208.60847 285.98921 209.07723 266.61523 206.89453 C 261.5814 206.3274 250.23133 207.13176 247.2168 201.16016 C 242.33884 191.49995 260.70129 171.48462 265.39648 165.36328 C 285.52218 139.11033 313.31047 98.067549 346.83008 99.740234 z M 132.44141 99.818359 C 164.78361 101.07008 190.17677 138.25108 210.41016 163.94336 C 216.52761 171.71124 222.96123 180.07603 227.56445 189.23047 C 229.09741 192.27921 231.39095 197.40273 229.49414 200.86914 C 226.07974 207.10811 214.04891 207.05211 208.49609 207.13281 C 189.68001 207.40614 171.09412 206.94516 152.77734 211.96094 L 150.375 205.42578 L 150.61523 205.14258 C 167.40529 209.92652 187.261 202.93906 204.17188 201.47266 C 208.04979 201.13624 219.73447 202.40304 222.32031 198.83008 C 225.02407 195.09431 217.11958 191.88994 216.23242 189.46289 C 215.59958 187.7311 217.04722 183.97105 216.83203 181.84375 C 216.08393 174.44211 212.83241 167.87565 208.25586 162.83203 C 201.90305 155.83101 193.47325 150.03449 184.95898 147.71484 C 181.14974 146.67719 175.21024 147.30283 176.18555 153.71484 C 178.71399 170.34167 202.43167 181.92866 213.29883 189.79883 C 211.43468 194.42734 204.47809 194.32031 200.81055 194.83203 C 188.16138 196.59791 174.85662 196.9818 162.14453 196.61328 C 158.48252 196.5073 148.90005 195.39955 148.98242 189.23047 C 149.14574 177.0253 171.20715 184.12226 177.27344 183.14258 C 179.32948 182.81043 184.9105 182.3822 185.44727 179.28516 C 186.06809 175.70425 177.59678 175.31854 175.83398 175.30859 C 168.62739 175.26739 159.0112 180.94525 152.53711 177.49219 C 150.02308 176.15137 145.7971 173.90619 146.13477 169.91016 C 146.84397 161.51974 160.37446 168.20508 165.26562 168.20508 C 167.1975 168.20508 171.51474 168.24707 171.88867 165.07812 C 172.32 161.42532 166.5587 160.51226 164.54492 160.17188 C 158.64291 159.17428 137.63035 165.83905 144.35156 149.45117 C 148.07626 140.36945 160.88383 142.70968 167.66797 141.61719 C 170.74134 141.12223 175.82502 140.37432 176.00586 135.5293 C 176.20496 130.19927 170.11286 125.34318 166.94727 122.66211 C 157.28309 114.47712 145.96215 108.4136 134.28516 105.69531 C 129.76097 104.64204 123.06451 103.94601 120.51758 109.67383 C 115.8488 120.1725 126.47727 133.30456 130.57422 141.49609 C 136.21109 152.76704 136.13962 166.38093 139.18945 178.7168 C 140.0196 182.07418 141.38431 185.41832 142.74805 188.76367 C 138.89878 175.78123 138.35596 159.79874 135.08594 148.31641 C 132.2412 138.32803 116.43202 121.65179 122.05664 110.24219 C 124.66722 104.94625 132.6393 107.15005 136.6875 108.28516 C 148.28115 111.53591 167.43082 119.58305 173.58789 132.6875 C 175.10524 135.91694 173.64801 138.27456 170.78906 139.08008 C 162.77385 141.33864 153.88244 138.61241 146.5332 144.17969 C 140.1864 148.98749 140.72201 159.38408 147.49414 163.375 C 143.95822 172.35812 145.00386 176.54667 153.97852 180.13867 L 153.97852 180.70703 C 146.39945 184.57094 145.2425 193.41989 153.73828 196.87891 C 167.17374 202.34902 184.55437 197.63181 198.4082 196.91406 C 203.6721 196.64158 211.11424 196.52207 214.74023 191.21875 C 217.04124 192.08762 220.43183 194.99528 221.22461 197.75391 C 205.11205 203.11065 184.20674 202.38681 167.42773 203.74609 C 163.53131 204.06205 152.28938 206.11828 149.33008 202.46094 C 147.89039 200.6817 146.69739 198.6485 145.64062 196.47656 C 146.2328 198.318 146.73434 200.16176 147.01367 202.01562 C 134.84843 197.10697 134.8048 173.87566 131.46484 161.66992 C 126.32439 142.88539 91.050411 103.9847 125.87891 100.06055 C 128.09734 99.810582 130.28526 99.734911 132.44141 99.818359 z M 145.64062 196.47656 C 144.81177 193.89916 143.79426 191.33013 142.74805 188.76367 C 143.55477 191.48452 144.48149 194.09423 145.64062 196.47656 z M 348.29883 106.8457 C 351.25194 106.87703 353.96299 107.80954 355.04492 110.81055 C 359.52637 123.23621 344.74596 137.79237 341.67188 148.59961 C 337.11118 164.62636 338.08292 189.51017 327.46289 202.46289 C 324.68901 205.84605 313.74167 204.31331 310.08398 203.80273 C 297.72757 202.07776 285.0452 200.51493 272.61914 199.48438 C 267.95997 199.09824 259.5887 200.214 255.56836 197.4707 L 255.56836 197.18555 C 256.67792 195.57821 259.85997 191.35331 261.8125 191.53516 C 264.71608 191.80593 268.41608 195.69871 271.89844 196.25391 C 285.53973 198.4278 299.6883 198.61367 313.44727 198.60742 C 318.23372 198.60542 329.98769 197.20187 329.50977 188.94727 C 329.21437 183.83432 324.68577 183.52041 322.8125 180.13867 C 332.0708 177.14307 332.76003 171.93562 329.29688 163.375 C 336.12712 159.53041 336.69667 149.21132 330.49805 144.30664 C 323.61497 138.86011 314.88355 140.95272 307.20312 139.33203 C 304.44124 138.749 301.58806 137.11693 303.07227 133.25586 C 308.2598 119.75448 328.91145 111.5992 340.10547 108.28906 C 342.15166 107.68386 345.34572 106.81438 348.29883 106.8457 z M 214.5 146.04297 C 219.48915 146.83257 224.41388 162.69332 225.06641 167.91992 L 224.82617 167.91992 C 221.1339 162.18671 213.52565 154.12113 214.5 146.04297 z M 253.64648 146.04297 C 253.57688 156.01316 242.85987 172.40242 238.27539 180.70703 C 235.71308 179.78616 238.6613 173.242 239.37891 171.33008 C 241.40156 165.9418 248.64604 147.23661 253.64648 146.04297 z M 182.3125 148.91797 C 186.09289 149.0924 190.82532 151.88412 193.36523 153.36133 C 204.19443 159.66025 218.43363 171.85749 214.5 188.37891 C 209.00938 185.34239 203.78434 180.83841 198.64844 177.02734 C 195.13125 174.41759 191.63052 171.7075 188.32227 168.73633 C 185.86924 166.53317 173.18366 153.91089 178.9668 149.76172 C 179.89893 149.09294 181.05237 148.85982 182.3125 148.91797 z M 295.09375 148.92578 C 296.29716 148.93602 297.39188 149.24946 298.26367 150.01953 C 303.37434 154.53552 290.70175 166.80955 288.23047 169.01953 C 284.84176 172.05008 281.25975 174.7955 277.66211 177.46094 C 273.32476 180.67362 267.30758 186.94983 262.29297 188.09375 C 258.39992 171.70501 273.34161 158.46442 284.38672 152.86133 C 286.89223 151.59041 291.48353 148.89505 295.09375 148.92578 z M 315.29883 161.45312 C 319.20839 161.46438 323.30074 162.40043 325.21484 163.375 C 321.28097 166.69537 310.69008 167.88191 306.48242 165.08008 C 307.66282 162.35568 311.38927 161.44187 315.29883 161.45312 z M 161.59961 161.71289 C 165.94336 161.62925 170.01953 162.37856 170.01953 164.76953 C 170.01953 169.20681 153.46674 164.17561 151.57617 163.6582 C 152.64406 162.71304 157.25586 161.79653 161.59961 161.71289 z M 230.10938 175.87695 C 232.13348 177.80734 235.42242 179.51008 234.67383 182.98047 C 232.69849 182.28634 229.73665 178.52364 230.10938 175.87695 z M 171.91211 176.86133 C 176.47002 176.64042 181.05261 177.32231 183.75781 179.00195 C 178.86616 183.6728 165.78821 182.36769 160.22266 180.13867 C 162.82183 178.20615 167.3542 177.08224 171.91211 176.86133 z M 299.22461 177.41602 C 305.10651 176.98216 310.82673 178.81231 316.80859 179.85352 L 316.80859 180.13867 C 310.08162 182.19749 299.64738 183.24284 293.27344 179.28516 L 293.27344 178.7168 C 295.28541 177.95568 297.26398 177.56063 299.22461 177.41602 z M 238.00195 184.05469 C 240.33526 184.5354 240.58828 192.62429 240.7793 194.3457 C 242.04232 205.72547 240.15612 217.87712 239.95703 229.29297 C 231.5429 226.92644 234.49916 202.48497 234.91992 195.19727 C 235.05681 192.82306 234.95165 185.63292 236.86914 184.35547 C 237.2933 184.07294 237.66862 183.98601 238.00195 184.05469 z M 269.79102 213.21875 C 279.4663 213.1996 289.7133 214.4569 298.79688 215.60742 C 303.12462 216.1558 310.31786 216.51731 313.35352 220.79492 C 315.69992 224.10335 311.67779 229.78252 308.64453 230.05273 C 306.02915 230.28572 284.76125 217.91925 285.23438 228.15625 C 285.43131 232.4205 291.4605 234.40006 294.23438 235.22461 C 299.52999 236.79842 304.74727 231.76538 309.12305 232.89453 C 320.20419 235.75403 327.42004 251.84302 313.6875 257.13867 C 309.8689 249.50688 303.17668 246.09667 296.1543 244.10547 C 294.26662 243.57045 289.64286 242.31982 288.48047 244.95117 C 287.36371 247.48335 291.62584 250.86575 293.0332 252.01562 C 299.14295 257.0064 305.36555 259.41016 312.72656 259.41016 C 314.02344 271.54203 301.568 279.7499 293.34961 271.35352 C 289.82641 267.75357 289.14457 257.14225 285.10742 252.30859 C 282.79465 249.53973 278.92662 245.0351 275.26172 247.11523 C 270.27113 249.94717 274.89515 257.33512 277.20312 260.26367 C 283.09915 267.74174 296.40215 271.56059 289.16602 283.83594 C 284.17303 292.30223 275.21946 282.17212 272.07812 277.02734 C 265.30791 265.94903 261.19723 252.67924 257.56836 239.80664 C 255.83438 233.65007 253.87256 225.1161 248.12305 222.75781 C 249.62335 215.26752 254.82572 214.33936 260.37109 213.71484 C 263.40496 213.37325 266.56592 213.22513 269.79102 213.21875 z M 290.09961 226.03711 C 295.19224 225.94017 304.89914 230.30827 306.48242 231.56641 C 303.6677 233.32121 285.79515 235.84269 287.01758 227.90234 C 287.21812 226.59704 288.40207 226.06942 290.09961 226.03711 z M 185.86719 226.74805 C 187.60002 226.84659 189.12873 227.27587 190.24219 228.15625 L 190.24219 228.44141 C 185.4053 233.57795 176.35574 234.60776 170.54883 231.56641 C 173.6419 229.13644 180.66868 226.45241 185.86719 226.74805 z M 186.88086 245.48828 C 185.02032 253.95143 171.13491 257.42187 165.02539 257.42188 C 167.87229 248.53877 179.85608 245.48828 186.88086 245.48828 z M 289.91016 245.48828 C 296.66836 245.48828 309.34958 248.472 311.76562 257.42188 C 305.31723 257.42188 292.33581 253.92842 289.91016 245.48828 z M 277.78906 247.99414 C 283.60957 247.7541 290.26235 266.04767 291.11133 269.92383 C 287.50167 268.69098 270.47356 254.90138 275.36328 249.32812 C 276.14141 248.44131 276.95756 248.02843 277.78906 247.99414 z M 199.08203 248.1543 C 199.91537 248.15696 200.72161 248.51313 201.47656 249.30664 C 206.55074 254.64008 189.36578 268.43981 185.91992 269.92383 C 186.08804 265.35775 193.24863 248.13563 199.08203 248.1543 z "
       d="m 351.22852,97.673828 c -8.09621,-0.526212 -16.91096,1.401753 -21.69141,3.287112 -28.29846,11.16014 -50.00607,42.57639 -69.1543,68.0957 -4.97619,6.63363 -19.01951,22.41492 -14.89062,32.67578 2.76596,6.87344 15.18847,6.9466 20.64258,7.10742 19.03295,0.56031 38.73526,-0.84006 57.1582,5.10938 -2.76909,11.65367 11.71989,27.99511 12.4668,40.91601 0.38666,6.67483 -5.91893,7.63336 -8.42383,12.50196 -1.73638,3.37322 -1.367,8.01877 -3.44922,11.06836 -2.11104,3.08851 -6.21462,2.81995 -8.73633,5.32031 -9.62095,9.53973 -25.36112,26.23901 -39.64844,19.00586 -7.44987,-3.77185 -8.54751,-14.53389 -11.68164,-22.32422 -7.69004,-19.12123 -18.58681,-33.15775 -16.17773,-55.69141 5.47332,1.91875 7.30208,11.99705 8.88476,17.61719 3.94348,13.99747 8.70976,29.82877 17.54297,40.62891 8.64108,10.5646 18.96289,4.71852 18.96289,-9.375 7.21931,3.50307 16.59067,4.46605 20.5918,-5.39844 1.09034,-2.68619 -0.006,-6.79507 1.05078,-8.97266 1.19602,-2.47138 5.67013,-3.4565 7.36328,-6.36914 5.98488,-10.30064 -5.43931,-17.44283 -11.47461,-21.5957 8.77317,-5.16978 4.66748,-13.58706 -2.88086,-15.94336 -12.40924,-3.87272 -27.09529,-3.37695 -39.86718,-3.37695 -5.30762,0 -11.13003,-1.15611 -16.0918,1.78125 -4.52564,2.67908 -6.2719,10.1229 -10.08594,14.13086 2.16099,-10.73905 1.33565,-25.1014 0.69922,-36.08594 -0.15226,-2.62595 -3.02296,-7.91791 -2.69922,-9.78125 1.34012,-7.71219 8.76827,-18.53739 12.23047,-25.45117 1.38814,-2.77058 4.46045,-7.64201 3.28125,-11.06836 -1.64272,-4.76859 -6.23805,2.49378 -7.12305,4.25 -4.31237,8.5572 -11.24291,18.60574 -12.39257,28.69726 -8.71649,-6.82031 -9.33496,-16.06815 -14.16993,-26.14062 -1.33291,-2.77654 -3.61072,-8.765 -6.96484,-8.19531 -4.11592,0.69924 -0.27875,9.48299 0.66797,11.60546 3.02366,6.7794 8.19822,11.10642 11.58789,17.33204 2.31205,4.24635 2.80241,10.55072 7.67773,11.93359 -2.29356,11.01381 -2.37246,24.05183 -1.02539,35.23242 0.53341,4.42536 2.02199,10.59762 6.54883,11.08008 -0.13906,3.83294 0.5501,26.51698 -4.06055,26.25586 -2.5808,-0.14633 -1.58038,-10.07951 -1.42187,-12.04883 0.87107,-10.82799 0.0531,-25.45973 -8.92773,-31.57226 -4.60562,-3.13483 -10.58471,-1.98378 -15.61133,-1.95508 -12.81008,0.073 -27.11589,-0.42094 -39.62696,3.09179 -7.53681,2.11621 -13.76206,10.52372 -4.08203,16.22852 -1.67895,1.15935 -3.63809,3.00692 -5.51953,5.10937 5.63609,-3.74091 13.52689,0.18802 20.16992,-1.53515 2.45951,-0.63816 11.50213,-2.48745 10.87891,-6.98242 -1.23324,-8.8956 -20.04885,2.29066 -23.36719,2.29492 -2.50587,0.003 -6.51717,-4.93944 -5.54883,-7.97852 1.69748,-5.32747 10.89542,-6.1189 14.91407,-6.53515 12.41765,-1.28655 26.49124,-3.33739 38.90625,-1.93946 5.18417,0.5836 11.0664,1.59786 12.00976,9.04297 -5.76705,2.84132 -7.63475,10.89957 -9.44726,17.33203 -3.73526,13.25476 -11.38086,45.44925 -25.85743,46.73438 -4.77181,0.42364 -10.31472,-8.65918 -7.67773,-14 1.8824,-3.81249 26.72273,-18.41239 16.08398,-25.60547 -3.97567,-2.68789 -8.87895,3.34625 -11.10742,6.50977 -3.57171,5.07006 -3.82854,12.97105 -6.89062,17.43164 -3.31426,4.82768 -13.10015,3.74513 -16.58203,0.125 -11.66282,-12.12533 8.42841,-13.33385 14.64648,-17.72852 1.71957,-1.21523 8.59146,-6.08365 6.16797,-9.125 -3.95765,-4.96719 -17.60665,3.57176 -20.81836,6.82422 -1.20562,1.22091 -2.75617,4.82587 -4.14648,5.40039 -4.73722,1.95738 -8.84747,-7.7476 -7.59766,-12.01953 0.36831,-1.25891 0.84919,-2.12424 1.29883,-3.0957 -4.45937,7.13194 -5.68,15.25367 5.88281,17.30273 -3.37406,16.20291 11.56614,19.41559 21.13281,14.77344 0.097,13.87104 10.03782,19.84231 18.73438,9.66015 10.17428,-11.91194 14.10095,-29.53382 19.01758,-44.89257 0.45823,-1.43118 6.12775,-16.52732 7.73828,-12.73047 5.5521,13.08883 -5.66329,33.27183 -10.95313,43.70117 -4.50931,8.89078 -6.85498,23.17425 -12.94336,30.375 -9.72494,11.5011 -20.3692,1.20911 -29.27734,-4.37891 -3.07433,-1.92841 -7.01222,-2.22117 -9.84375,-4.6289 -2.17204,-1.84686 -2.65581,-5.34629 -4.81055,-7.22071 -2.58248,-2.24691 -6.6416,-2.12926 -8.58789,-5.34961 -2.14153,-3.54341 -1.53434,-8.41966 -3.97656,-11.92187 -2.69512,-3.86505 -8.40298,-5.25782 -7.77735,-11.36524 0.92632,-9.04165 4.69747,-18.28636 8.43946,-26.14062 2.13337,-4.47735 5.69043,-9.37348 3.98047,-14.77539 18.00457,-8.21682 39.03088,-2.93374 57.8789,-5.06445 5.80547,-0.65634 16.98951,-0.23952 19.95313,-7.72071 4.00304,-10.10487 -10.05081,-25.49425 -14.84375,-32.10742 -18.48658,-25.50709 -41.99393,-59.037 -70.4336,-68.63867 -10.59817,-3.577795 -39.44965,-6.66479 -38.16406,14.08594 1.16143,18.7422 18.98383,33.75491 23.12305,52.56445 2.14033,9.72612 3.06151,21.26086 7.76367,29.83398 3.96462,7.22832 9.58997,7.34386 12.56055,15.91016 v 0.002 c -9.97999,4.91577 -18.41047,12.06685 -29.0586,15.375 -22.827767,7.09193 -46.816337,1.86604 -69.648434,-2.47265 -9.720854,-1.84743 -19.470572,-3.19557 -29.298828,-2.68555 -2.05419,0.10655 -8.52462,-0.2712 -9.835937,1.91406 -1.098747,1.83123 7.953347,0.10706 9.115234,0.084 9.925906,-0.19633 19.449246,0.97132 29.298828,2.5957 23.898662,3.94148 47.926538,9.73367 71.810547,2.26953 10.36906,-3.24053 18.61679,-10.30361 28.33789,-15.0918 1.47004,13.7608 -18.73776,30.52952 -11.85156,45.46094 1.68427,3.65195 5.65734,4.50799 7.625,7.95508 2.00921,3.51983 1.5086,8.3943 3.82617,11.64648 2.30221,3.23029 6.18966,2.8758 8.79687,5.49805 9.65865,9.71504 24.48076,24.89887 38.91602,20.39453 10.13394,-3.16239 11.18484,-14.14955 15.07813,-23.90039 7.91218,-19.81735 18.16657,-33.40525 16.62304,-56.54297 h 0.24024 c 2.78349,7.92188 -2.24485,28.45646 2.72461,33.65039 2.40908,2.51798 5.49813,-1.12282 6.12304,-3.8164 1.75871,-7.5795 -0.26457,-16.08941 1.55274,-23.57032 0.5531,-2.27674 2.94961,-3.96931 3.76953,-6.26367 h 0.24023 c -0.16307,23.30081 8.25992,36.02417 16.58399,56.25977 3.32146,8.07333 4.31326,18.79876 11.99609,22.92578 15.08466,8.10401 31.94787,-8.73053 42.06836,-19.08203 2.5097,-2.56514 6.52804,-2.21103 8.75195,-5.29102 2.28876,-3.17262 1.7825,-7.88479 3.62696,-11.33984 2.04139,-3.82413 6.31123,-4.82591 8.0332,-8.80859 6.51564,-15.05616 -13.50708,-31.22668 -12.04687,-44.89258 11.96733,2.52395 23.63536,14.40394 36.02539,18.05078 24.08359,7.08852 47.48695,-0.65589 70.84765,-7.57422 8.6675,-2.56713 17.32052,-5.07713 26.17774,-6.57422 1.03991,-0.17559 8.50703,-0.70249 7.66406,-2.39648 -0.79014,-1.58915 -6.97981,0.21569 -8.38477,0.44726 -9.00372,1.48147 -17.86341,4.07433 -26.6582,6.75 -22.926,6.97459 -46.27866,14.5222 -69.88672,7.16602 -12.54134,-3.90795 -22.95541,-13.7304 -35.06445,-17.85742 2.82432,-9.80937 10.7479,-10.6237 14.33594,-19.88868 6.0185,-15.53605 5.58362,-33.07487 13.84765,-47.73437 5.56458,-9.87018 18.19521,-23.00158 14.97461,-36.36914 -1.90929,-7.92572 -9.28856,-10.90543 -17.38476,-11.431642 z M 156.74219,241.54102 c 1.15616,-1.84907 2.53925,-3.55734 3.96484,-5.1504 -1.52534,1.01244 -2.84495,2.73078 -3.96484,5.1504 z M 346.83008,99.740234 c 3.03807,0.151726 6.14457,0.468706 9.125,1.246096 26.84547,7.0047 -5.5376,44.23039 -10.31446,59.83008 -3.821,12.48533 -3.24029,36.11354 -15.86328,41.19921 2.02458,-8.37536 6.29082,-15.90593 8.19532,-24.43359 2.67542,-11.98355 2.84279,-25.24971 8.32812,-36.08594 4.1116,-8.12589 14.71985,-21.39916 10.03906,-31.82226 -2.82912,-6.30006 -10.41492,-4.85 -15.27343,-3.63477 -11.33331,2.8345 -23.02181,9.08178 -32.18164,17.49805 -2.98043,2.7379 -7.81801,6.70825 -7.91407,11.70898 -0.0961,5.13852 5.1912,5.8679 8.39258,6.3711 6.9047,1.08595 19.56541,-1.17738 23.2207,8.11914 6.36913,16.19779 -14.61487,9.48466 -20.57812,10.47656 -2.01257,0.33471 -7.09375,1.2682 -7.09375,4.58203 0,3.3735 4.72319,3.41016 6.61328,3.41016 4.60393,0 19.59337,-6.81111 19.1875,2.27344 -0.62923,14.11852 -23.20938,4.79399 -29.51367,4.83007 -2.0534,0.0117 -9.81055,0.14357 -9.81055,3.85547 0,3.10044 6.80815,3.83683 8.60938,4.05078 5.591,0.66402 28.97773,-5.91072 27.81054,6.58399 -0.54517,5.82556 -9.68506,6.76608 -13.40039,6.81836 -12.69744,0.17872 -26.03822,0.138 -38.66601,-1.82422 -3.61206,-0.56173 -10.39834,-0.40882 -12.25,-4.99414 11.47741,-7.22775 32.21923,-18.96869 36.81836,-34.38086 1.82044,-6.10344 -2.41877,-8.89715 -7.03711,-7.97656 -7.46908,1.48856 -14.92887,6.25693 -20.89453,11.63867 -5.74231,5.18229 -10.83219,12.10429 -12.13868,20.77344 -0.39867,2.64726 1.14155,7.55889 0.3418,9.63476 -0.92462,2.39637 -8.78507,5.69994 -5.91992,9.36524 2.86515,3.66218 14.08567,2.17176 18.19727,2.64257 17.2149,1.97074 36.34173,7.44165 53.55664,3.64649 l -2.40235,6.81836 c -19.18666,-3.35247 -38.02446,-2.88371 -57.39844,-5.06641 -5.03383,-0.56713 -16.3839,0.23723 -19.39843,-5.73437 -4.87796,-9.66021 13.48449,-29.67554 18.17968,-35.79688 20.1257,-26.25295 47.91399,-67.295731 81.4336,-65.623046 z m -214.38867,0.07813 c 32.3422,1.251721 57.73536,38.432721 77.96875,64.125001 6.11745,7.76788 12.55107,16.13267 17.15429,25.28711 1.53296,3.04874 3.8265,8.17226 1.92969,11.63867 -3.4144,6.23897 -15.44523,6.18297 -20.99805,6.26367 -18.81608,0.27333 -37.40197,-0.18765 -55.71875,4.82813 l -2.40234,-6.53516 0.24023,-0.2832 c 16.79006,4.78394 36.64577,-2.20352 53.55665,-3.66992 3.87791,-0.33642 15.56259,0.93038 18.14843,-2.64258 2.70376,-3.73577 -5.20073,-6.94014 -6.08789,-9.36719 -0.63284,-1.73179 0.8148,-5.49184 0.59961,-7.61914 -0.7481,-7.40164 -3.99962,-13.9681 -8.57617,-19.01172 -6.35281,-7.00102 -14.78261,-12.79754 -23.29688,-15.11719 -3.80924,-1.03765 -9.74874,-0.41201 -8.77343,6 2.52844,16.62683 26.24612,28.21382 37.11328,36.08399 -1.86415,4.62851 -8.82074,4.52148 -12.48828,5.0332 -12.64917,1.76588 -25.95393,2.14977 -38.66602,1.78125 -3.66201,-0.10598 -13.24448,-1.21373 -13.16211,-7.38281 0.16332,-12.20517 22.22473,-5.10821 28.29102,-6.08789 2.05604,-0.33215 7.63706,-0.76038 8.17383,-3.85742 0.62082,-3.58091 -7.85049,-3.96662 -9.61329,-3.97657 -7.20659,-0.0412 -16.82278,5.63666 -23.29687,2.1836 -2.51403,-1.34082 -6.74001,-3.586 -6.40234,-7.58203 0.7092,-8.39042 14.23969,-1.70508 19.13085,-1.70508 1.93188,0 6.24912,0.042 6.62305,-3.12696 0.43133,-3.6528 -5.32997,-4.56586 -7.34375,-4.90624 -5.90201,-0.9976 -26.91457,5.66717 -20.19336,-10.72071 3.7247,-9.08172 16.53227,-6.74149 23.31641,-7.83398 3.07337,-0.49496 8.15705,-1.24287 8.33789,-6.08789 0.1991,-5.33003 -5.893,-10.18612 -9.05859,-12.86719 -9.66418,-8.18499 -20.98512,-14.24851 -32.66211,-16.9668 -4.52419,-1.05327 -11.22065,-1.7493 -13.76758,3.97852 -4.66878,10.49867 5.95969,23.63073 10.05664,31.82226 5.63687,11.27095 5.5654,24.88484 8.61523,37.22071 0.83015,3.35738 2.19486,6.70152 3.5586,10.04687 -3.84927,-12.98244 -4.39209,-28.96493 -7.66211,-40.44726 -2.84474,-9.98838 -18.65392,-26.66462 -13.0293,-38.07422 2.61058,-5.29594 10.58266,-3.09214 14.63086,-1.95703 11.59365,3.25075 30.74332,11.29789 36.90039,24.40234 1.51735,3.22944 0.0601,5.58706 -2.79883,6.39258 -8.01521,2.25856 -16.90662,-0.46767 -24.25586,5.09961 -6.3468,4.8078 -5.81119,15.20439 0.96094,19.19531 -3.53592,8.98312 -2.49028,13.17167 6.48438,16.76367 v 0.56836 c -7.57907,3.86391 -8.73602,12.71286 -0.24024,16.17188 13.43546,5.47011 30.81609,0.7529 44.66992,0.0352 5.2639,-0.27248 12.70604,-0.39199 16.33203,-5.69531 2.30101,0.86887 5.6916,3.77653 6.48438,6.53516 -16.11256,5.35674 -37.01787,4.6329 -53.79688,5.99218 -3.89642,0.31596 -15.13835,2.37219 -18.09765,-1.28515 -1.43969,-1.77924 -2.63269,-3.81244 -3.68946,-5.98438 0.59218,1.84144 1.09372,3.6852 1.37305,5.53906 -12.16524,-4.90865 -12.20887,-28.13996 -15.54883,-40.3457 -5.14045,-18.78453 -40.414429,-57.68522 -5.58593,-61.60937 2.21843,-0.249968 4.40635,-0.325639 6.5625,-0.242191 z m 13.19921,96.658201 c -0.82885,-2.5774 -1.84636,-5.14643 -2.89257,-7.71289 0.80672,2.72085 1.73344,5.33056 2.89257,7.71289 z M 348.29883,106.8457 c 2.95311,0.0313 5.66416,0.96384 6.74609,3.96485 4.48145,12.42566 -10.29896,26.98182 -13.37304,37.78906 -4.5607,16.02675 -3.58896,40.91056 -14.20899,53.86328 -2.77388,3.38316 -13.72122,1.85042 -17.37891,1.33984 -12.35641,-1.72497 -25.03878,-3.2878 -37.46484,-4.31835 -4.65917,-0.38614 -13.03044,0.72962 -17.05078,-2.01368 v -0.28515 c 1.10956,-1.60734 4.29161,-5.83224 6.24414,-5.65039 2.90358,0.27077 6.60358,4.16355 10.08594,4.71875 13.64129,2.17389 27.78986,2.35976 41.54883,2.35351 4.78645,-0.002 16.54042,-1.40555 16.0625,-9.66015 -0.2954,-5.11295 -4.824,-5.42686 -6.69727,-8.8086 9.2583,-2.9956 9.94753,-8.20305 6.48438,-16.76367 6.83024,-3.84459 7.39979,-14.16368 1.20117,-19.06836 -6.88308,-5.44653 -15.6145,-3.35392 -23.29493,-4.97461 -2.76188,-0.58303 -5.61506,-2.2151 -4.13085,-6.07617 5.18753,-13.50138 25.83918,-21.65666 37.0332,-24.9668 2.04619,-0.6052 5.24025,-1.47468 8.19336,-1.44336 z M 214.5,146.04297 c 4.98915,0.7896 9.91388,16.65035 10.56641,21.87695 h -0.24024 C 221.1339,162.18671 213.52565,154.12113 214.5,146.04297 Z m 39.14648,0 c -0.0696,9.97019 -10.78661,26.35945 -15.37109,34.66406 -2.56231,-0.92087 0.38591,-7.46503 1.10352,-9.37695 2.02265,-5.38828 9.26713,-24.09347 14.26757,-25.28711 z m -71.33398,2.875 c 3.78039,0.17443 8.51282,2.96615 11.05273,4.44336 10.8292,6.29892 25.0684,18.49616 21.13477,35.01758 -5.49062,-3.03652 -10.71566,-7.5405 -15.85156,-11.35157 -3.51719,-2.60975 -7.01792,-5.31984 -10.32617,-8.29101 -2.45303,-2.20316 -15.13861,-14.82544 -9.35547,-18.97461 0.93213,-0.66878 2.08557,-0.9019 3.3457,-0.84375 z m 112.78125,0.008 c 1.20341,0.0102 2.29813,0.32368 3.16992,1.09375 5.11067,4.51599 -7.56192,16.79002 -10.0332,19 -3.38871,3.03055 -6.97072,5.77597 -10.56836,8.44141 -4.33735,3.21268 -10.35453,9.48889 -15.36914,10.63281 -3.89305,-16.38874 11.04864,-29.62933 22.09375,-35.23242 2.50551,-1.27092 7.09681,-3.96628 10.70703,-3.93555 z m 20.20508,12.52734 c 3.90956,0.0113 8.00191,0.94731 9.91601,1.92188 -3.93387,3.32037 -14.52476,4.50691 -18.73242,1.70508 1.1804,-2.7244 4.90685,-3.63821 8.81641,-3.62696 z m -153.69922,0.25977 c 4.34375,-0.0836 8.41992,0.66567 8.41992,3.05664 0,4.43728 -16.55279,-0.59392 -18.44336,-1.11133 1.06789,-0.94516 5.67969,-1.86167 10.02344,-1.94531 z m 68.50977,14.16406 c 2.0241,1.93039 5.31304,3.63313 4.56445,7.10352 -1.97534,-0.69413 -4.93718,-4.45683 -4.56445,-7.10352 z m -58.19727,0.98438 c 4.55791,-0.22091 9.1405,0.46098 11.8457,2.14062 -4.89165,4.67085 -17.9696,3.36574 -23.53515,1.13672 2.59917,-1.93252 7.13154,-3.05643 11.68945,-3.27734 z m 127.3125,0.55469 c 5.8819,-0.43386 11.60212,1.39629 17.58398,2.4375 v 0.28515 c -6.72697,2.05882 -17.16121,3.10417 -23.53515,-0.85351 v -0.56836 c 2.01197,-0.76112 3.99054,-1.15617 5.95117,-1.30078 z m -61.22266,6.63867 c 2.33331,0.48071 2.58633,8.5696 2.77735,10.29101 1.26302,11.37977 -0.62318,23.53142 -0.82227,34.94727 -8.41413,-2.36653 -5.45787,-26.808 -5.03711,-34.0957 0.13689,-2.37421 0.0317,-9.56435 1.94922,-10.8418 0.42416,-0.28253 0.79948,-0.36946 1.13281,-0.30078 z m 31.78907,29.16406 c 9.67528,-0.0191 19.92228,1.23815 29.00586,2.38867 4.32774,0.54838 11.52098,0.90989 14.55664,5.1875 2.3464,3.30843 -1.67573,8.9876 -4.70899,9.25781 -2.61538,0.23299 -23.88328,-12.13348 -23.41015,-1.89648 0.19693,4.26425 6.22612,6.24381 9,7.06836 5.29561,1.57381 10.51289,-3.45923 14.88867,-2.33008 11.08114,2.8595 18.29699,18.94849 4.56445,24.24414 -3.8186,-7.63179 -10.51082,-11.042 -17.5332,-13.0332 -1.88768,-0.53502 -6.51144,-1.78565 -7.67383,0.8457 -1.11676,2.53218 3.14537,5.91458 4.55273,7.06445 6.10975,4.99078 12.33235,7.39454 19.69336,7.39454 1.29688,12.13187 -11.15856,20.33974 -19.37695,11.94336 -3.5232,-3.59995 -4.20504,-14.21127 -8.24219,-19.04493 -2.31277,-2.76886 -6.1808,-7.27349 -9.8457,-5.19336 -4.99059,2.83194 -0.36657,10.21989 1.9414,13.14844 5.89603,7.47807 19.19903,11.29692 11.9629,23.57227 -4.99299,8.46629 -13.94656,-1.66382 -17.0879,-6.8086 -6.77021,-11.07831 -10.88089,-24.3481 -14.50976,-37.2207 -1.73398,-6.15657 -3.6958,-14.69054 -9.44531,-17.04883 1.5003,-7.49029 6.70267,-8.41845 12.24804,-9.04297 3.03387,-0.34159 6.19483,-0.48971 9.41993,-0.49609 z m 20.30859,12.81836 c 5.09263,-0.0969 14.79953,4.27116 16.38281,5.5293 -2.81472,1.7548 -20.68727,4.27628 -19.46484,-3.66407 0.20054,-1.3053 1.38449,-1.83292 3.08203,-1.86523 z m -104.23242,0.71094 c 1.73283,0.0985 3.26154,0.52782 4.375,1.4082 v 0.28516 c -4.83689,5.13654 -13.88645,6.16635 -19.69336,3.125 3.09307,-2.42997 10.11985,-5.114 15.31836,-4.81836 z m 1.01367,18.74023 c -1.86054,8.46315 -15.74595,11.93359 -21.85547,11.9336 2.8469,-8.88311 14.83069,-11.9336 21.85547,-11.9336 z m 103.0293,0 c 6.7582,0 19.43942,2.98372 21.85546,11.9336 -6.44839,0 -19.42981,-3.49346 -21.85546,-11.9336 z m -12.1211,2.50586 c 5.82051,-0.24004 12.47329,18.05353 13.32227,21.92969 -3.60966,-1.23285 -20.63777,-15.02245 -15.74805,-20.59571 0.77813,-0.88681 1.59428,-1.29969 2.42578,-1.33398 z m -78.70703,0.16016 c 0.83334,0.003 1.63958,0.35883 2.39453,1.15234 5.07418,5.33344 -12.11078,19.13317 -15.55664,20.61719 0.16812,-4.56608 7.32871,-21.7882 13.16211,-21.76953 z" />
  </g>
  <metadata
     id="metadata885">
    <rdf:RDF>
      <cc:Work
         rdf:about="">
        <dc:title>marisopa</dc:title>
      </cc:Work>
    </rdf:RDF>
  </metadata>
</svg>
