<svg version="1.1" id="Layer_1" xmlns="http://www.w3.org/2000/svg" xmlns:xlink="http://www.w3.org/1999/xlink" x="0px" y="0px"
	 width="100%" viewBox="0 0 1200 1200" enable-background="new 0 0 1200 1200" xml:space="preserve">
<path fill="none" opacity="1.000000" stroke="#000000" stroke-linecap="round" stroke-linejoin="round" stroke-width="4.000000"
	d="
M768.500000,500.500000 
	C762.421570,497.245117 759.070801,491.201996 754.630371,486.379944 
	C733.760681,463.716797 712.081604,441.905304 688.992859,421.508057 
	C660.066101,395.953308 629.659607,372.256653 598.513184,349.481964 
	C572.009094,330.101776 544.576782,312.099243 515.918396,296.146637 
	C487.415009,280.280243 457.783508,266.612854 426.479279,257.067993 
	C404.956604,250.505600 383.074188,245.681152 360.512817,243.842560 
	C345.445282,242.614670 330.438599,242.556976 315.514252,244.134766 
	C292.555511,246.561935 270.369324,252.649261 249.567505,262.640533 
	C229.550308,272.254883 210.683044,284.025665 195.081879,300.079559 
	C180.562363,315.020447 172.286133,333.010895 169.850143,353.982605 
	C167.288162,376.038788 171.527740,396.947723 178.576096,417.473877 
	C186.605347,440.856537 197.949463,462.608093 211.934814,483.044617 
	C221.990326,497.738525 234.310043,510.208313 247.463959,522.040039 
	C261.409332,534.583801 275.075958,547.412598 283.020630,564.990662 
	C290.518097,581.579407 294.935699,599.028992 296.903564,617.010559 
	C299.562500,641.306702 305.572845,664.286438 319.986786,684.509399 
	C333.836365,703.940552 352.248688,717.689514 373.495361,728.009583 
	C396.466095,739.166992 420.772614,745.664917 446.000488,748.996399 
	C452.497253,749.854248 458.986572,750.816162 465.508820,751.401611 
	C467.280518,751.560669 468.522736,752.431824 470.000000,753.000000 
"/>
<path fill="none" opacity="1.000000" stroke="#000000" stroke-linecap="round" stroke-linejoin="round" stroke-width="4.000000"
	d="
M920.500000,717.500000 
	C929.396179,683.842773 938.094116,650.154175 945.196594,616.040955 
	C949.110840,597.240967 952.733521,578.389465 955.775269,559.463867 
	C957.815308,546.771118 959.026428,533.880981 960.208435,521.019165 
	C961.832031,503.352539 962.657837,485.694733 962.421265,468.001038 
	C962.130127,446.227386 960.604614,424.571381 957.223694,402.964996 
	C954.134521,383.222839 949.638977,363.897461 943.365601,345.044739 
	C935.083374,320.154968 924.184814,296.423431 909.557861,274.461456 
	C893.318848,250.078873 874.318542,228.510849 849.505371,212.491684 
	C837.488708,204.733826 824.682495,199.126312 810.514221,196.425507 
	C787.578735,192.053452 765.822998,200.814529 754.407837,221.449020 
	C747.626648,233.706970 744.990234,246.901001 743.526001,260.502808 
	C742.271545,272.155945 742.841614,283.855957 743.619690,295.492004 
	C744.132385,303.158875 744.203003,310.841125 744.810181,318.515015 
	C745.786255,330.851685 746.943970,343.176483 747.845154,355.511322 
	C749.179321,373.773468 751.597351,391.897797 754.161499,409.977112 
	C757.318848,432.239624 761.800781,454.311401 765.428711,476.511658 
	C766.731506,484.483948 770.355835,492.029266 769.247131,500.532227 
	C768.948853,502.819489 771.207397,505.927307 773.072754,507.932343 
	C787.851685,523.817566 800.345886,541.450195 813.075745,558.944885 
	C829.254822,581.179871 843.598755,604.493530 855.956604,629.021851 
	C864.249084,645.481262 871.243469,662.507935 875.444580,680.512939 
	C878.491760,693.572205 879.210205,706.679993 874.004700,719.501892 
	C873.469299,720.820862 873.218689,722.307739 872.464294,723.476990 
	C867.747192,730.788757 862.462219,731.324951 855.486877,725.515747 
	C845.702271,717.366882 839.818787,706.411682 834.062317,695.467224 
	C823.674500,675.717590 815.529236,654.977173 808.013428,633.995178 
	C796.795532,602.677612 787.602905,570.750244 779.500000,538.500000 
"/>
<path fill="none" opacity="1.000000" stroke="#000000" stroke-linecap="round" stroke-linejoin="round" stroke-width="4.000000"
	d="
M491.500000,751.500000 
	C498.322052,754.491211 505.536133,753.070129 512.494324,752.833740 
	C523.682068,752.453430 534.879272,751.354309 545.988892,749.914246 
	C561.358887,747.921875 576.765930,745.835571 591.014648,739.030640 
	C593.943726,737.631775 597.853394,736.810120 597.829834,733.001038 
	C597.804138,728.838135 593.569092,727.720886 590.466797,726.591125 
	C580.124573,722.824768 569.362122,722.392883 558.500183,723.502014 
	C530.437866,726.367432 504.329895,735.709167 479.590424,748.672546 
	C465.409363,756.103455 452.534119,765.692505 440.366425,776.347473 
	C426.036041,788.896423 414.390778,803.360596 405.592499,820.048767 
	C396.243896,837.780884 391.753326,856.715210 391.808289,877.000549 
	C391.861450,896.622742 394.854950,915.352905 403.527832,932.986328 
	C414.278137,954.843567 431.315308,970.554504 452.513123,981.975647 
	C470.347107,991.584473 489.454803,997.181763 509.492523,1000.052124 
	C543.817932,1004.969116 577.024109,1001.452637 609.543274,989.114136 
	C641.945251,976.820007 671.239136,959.119141 699.461487,939.444702 
	C718.967957,925.846252 737.695007,911.181335 755.986877,895.984192 
	C778.375183,877.383667 800.826111,858.853088 822.944031,839.934570 
	C837.769470,827.253662 852.903442,815.019897 869.016785,804.024597 
	C873.406311,801.029358 877.665283,797.315796 882.566895,795.703125 
	C894.284668,791.847595 899.221741,781.386047 905.849792,772.882935 
	C927.130798,745.581360 950.599915,720.680481 980.053833,702.085266 
	C990.127930,695.725159 1000.631409,690.253601 1012.985107,688.867310 
	C1030.349243,686.918640 1036.197998,698.934204 1031.469727,712.489441 
	C1028.316162,721.529968 1022.296082,728.595947 1013.946777,732.896606 
	C981.929443,749.388306 949.833984,765.748657 916.500000,779.500000 
"/>
<path fill="none" opacity="1.000000" stroke="#000000" stroke-linecap="round" stroke-linejoin="round" stroke-width="4.000000"
	d="
M889.000000,793.500000 
	C890.612000,795.703979 888.284851,796.735291 887.441406,797.959656 
	C872.222900,820.050476 859.132568,843.410828 847.668823,867.580078 
	C837.764832,888.460815 829.185852,909.936646 821.804504,931.934387 
	C813.582581,956.437134 806.634216,981.199097 801.500000,1006.500000 
"/>
</svg>