<svg version="1.1" id="Layer_1" xmlns="http://www.w3.org/2000/svg" xmlns:xlink="http://www.w3.org/1999/xlink" x="0px" y="0px"
	 width="100%" viewBox="0 0 1200 1200" enable-background="new 0 0 1200 1200" xml:space="preserve">
<path fill="none" opacity="1.000000" stroke="#000000" stroke-linecap="round" stroke-linejoin="round" stroke-width="4.000000"
	d="
M774.500000,511.000000 
	C779.133850,512.103394 780.879639,516.453247 783.387695,519.589844 
	C808.807007,551.379944 832.568237,584.304321 851.539307,620.479370 
	C861.608337,639.679382 870.331787,659.397766 875.429138,680.517090 
	C878.574890,693.550293 879.210205,706.679993 874.004700,719.501892 
	C873.469299,720.820862 873.218689,722.307739 872.464294,723.476990 
	C867.747192,730.788757 862.462219,731.324951 855.486877,725.515747 
	C845.702271,717.366882 839.818787,706.411682 834.062317,695.467224 
	C823.674500,675.717590 815.493408,654.989807 808.021301,633.992432 
	C796.122620,600.555786 786.199524,566.530273 777.986206,532.003296 
	C776.751526,526.813110 775.601501,521.576477 773.904907,516.531982 
	C772.790771,513.219482 774.328064,509.967407 772.292358,506.336090 
	C768.942749,500.361176 763.599792,496.518402 759.333984,491.645294 
	C746.372925,476.838898 732.602356,462.746429 718.500183,448.999817 
	C692.805298,423.952820 665.431458,400.909393 637.131653,378.831268 
	C614.734253,361.357819 591.990723,344.427277 568.464355,328.552856 
	C549.426025,315.706848 529.774963,303.846985 509.537445,292.930573 
	C490.716461,282.778351 471.415619,273.777924 451.517792,265.954773 
	C424.545074,255.350037 396.809204,247.824448 367.995728,244.537567 
	C352.368042,242.754852 336.742676,242.606445 320.987915,243.846298 
	C296.503387,245.773163 273.208008,251.885727 251.044403,262.096375 
	C230.350098,271.630188 211.113693,283.726166 195.092575,300.090637 
	C180.519333,314.976135 172.286133,333.010895 169.850143,353.982605 
	C167.288162,376.038788 171.527740,396.947723 178.576096,417.473877 
	C186.605347,440.856537 197.949463,462.608093 211.934814,483.044617 
	C221.990326,497.738525 234.310043,510.208313 247.463959,522.040039 
	C261.409332,534.583801 275.075958,547.412598 283.020630,564.990662 
	C290.518097,581.579407 294.935699,599.028992 296.903564,617.010559 
	C299.562500,641.306702 305.572845,664.286438 319.986786,684.509399 
	C333.836365,703.940552 352.248688,717.689514 373.495361,728.009583 
	C396.466095,739.166992 420.772614,745.664917 446.000488,748.996399 
	C452.497253,749.854248 458.986572,750.816162 465.508820,751.401611 
	C467.280518,751.560669 468.522736,752.431824 470.000000,753.000000 
"/>
<path fill="none" opacity="1.000000" stroke="#000000" stroke-linecap="round" stroke-linejoin="round" stroke-width="4.000000"
	d="
M920.500000,717.500000 
	C929.396179,683.842773 938.094116,650.154175 945.196594,616.040955 
	C949.110840,597.240967 952.733521,578.389465 955.775269,559.463867 
	C957.815308,546.771118 959.026428,533.880981 960.208435,521.019165 
	C961.832031,503.352539 962.657837,485.694733 962.421265,468.001038 
	C962.130127,446.227386 960.604614,424.571381 957.223694,402.964996 
	C954.134521,383.222839 949.638977,363.897461 943.365601,345.044739 
	C935.083374,320.154968 924.184814,296.423431 909.557861,274.461456 
	C893.318848,250.078873 874.318542,228.510849 849.505371,212.491684 
	C837.488708,204.733826 824.682495,199.126312 810.514221,196.425507 
	C787.578735,192.053452 765.822998,200.814529 754.407837,221.449020 
	C747.626648,233.706970 744.990234,246.901001 743.526001,260.502808 
	C742.271545,272.155945 742.841614,283.855957 743.619690,295.492004 
	C744.132385,303.158875 744.203003,310.841125 744.810181,318.515015 
	C745.786255,330.851685 746.943970,343.176483 747.845154,355.511322 
	C749.179321,373.773468 751.597351,391.897797 754.161499,409.977112 
	C757.318848,432.239624 761.616211,454.342224 765.531860,476.494385 
	C766.657837,482.864380 768.080383,489.186829 769.553650,495.487457 
	C769.984558,497.330292 770.201050,498.936768 769.000000,500.500000 
"/>
<path fill="none" opacity="1.000000" stroke="#000000" stroke-linecap="round" stroke-linejoin="round" stroke-width="4.000000"
	d="
M479.000000,750.500000 
	C481.290894,746.004761 486.225952,745.439697 490.067078,743.643433 
	C509.013519,734.783325 528.576965,727.828125 549.481934,724.872192 
	C560.025452,723.381287 570.453003,722.299744 580.993896,724.037109 
	C586.388428,724.926331 591.630676,726.259583 596.046082,729.944763 
	C598.798157,732.241760 598.848450,733.808594 596.030579,736.038696 
	C589.528564,741.184265 581.706848,743.087524 573.980164,744.916199 
	C556.413696,749.073608 538.572388,751.212402 520.509644,752.180481 
	C509.828430,752.752869 499.172485,752.852295 488.500000,753.000549 
	C485.950287,753.035950 483.267303,753.110352 481.038147,751.928040 
	C477.148376,749.865234 472.878845,751.440430 470.706451,753.248108 
	C463.328644,759.387268 454.842682,763.863892 447.457733,769.948730 
	C426.065460,787.574524 408.897034,808.367920 399.099365,834.537231 
	C394.730560,846.206177 392.042175,858.332397 391.915894,870.999146 
	C391.751587,887.479553 392.563934,903.698853 397.935760,919.521790 
	C406.139587,943.686462 421.416809,962.104797 442.506500,975.990112 
	C460.956573,988.137573 481.389862,994.971375 502.982483,999.091736 
	C523.611206,1003.028137 544.373474,1003.326416 564.969360,1000.754761 
	C585.483521,998.193420 605.006348,991.471375 624.057739,983.131958 
	C659.540283,967.600159 691.265015,946.110779 721.957092,922.943176 
	C749.187256,902.388855 775.067749,880.162048 801.064697,858.076172 
	C822.208923,840.113037 843.110168,821.798218 866.020752,806.030151 
	C871.882446,801.995850 878.106873,798.485962 883.933533,794.405090 
	C885.638733,793.210876 887.187378,793.013428 889.000000,793.000000 
"/>
<path fill="none" opacity="1.000000" stroke="#000000" stroke-linecap="round" stroke-linejoin="round" stroke-width="4.000000"
	d="
M897.000000,786.500000 
	C896.002258,783.411316 898.796265,781.806763 900.127319,780.099243 
	C915.975037,759.770203 932.323608,739.867615 951.993103,722.991943 
	C966.183960,710.816650 981.060913,699.679626 998.516968,692.541504 
	C1005.194580,689.810974 1012.036743,688.226685 1019.511719,688.862000 
	C1029.288818,689.692993 1034.482910,697.274658 1032.838379,706.972595 
	C1030.830200,718.815552 1023.775879,727.225769 1013.047180,733.086426 
	C980.157959,751.052185 946.110840,766.596497 911.907776,781.792480 
	C907.429077,783.782288 903.033875,786.472961 897.528442,786.882202 
	C894.162109,787.132507 891.163452,790.690735 889.238647,794.879944 
	C886.420654,801.013123 881.561401,806.170227 878.046997,812.028198 
	C862.601440,837.773682 848.467468,864.177307 836.918518,891.966125 
	C824.677429,921.420410 814.473755,951.484436 806.909668,982.477966 
	C804.961487,990.460632 803.188232,998.466736 801.500000,1006.500000 
"/>
</svg>