<?xml version="1.0" encoding="UTF-8" standalone="no"?>
<!-- Created with Inkscape (http://www.inkscape.org/) -->

<svg
   version="1.1"
   id="svg297"
   width="478"
   height="409"
   viewBox="0 0 478 409"
   sodipodi:docname="marisopa4.svg"
   inkscape:version="1.2.2 (732a01da63, 2022-12-09)"
   xmlns:inkscape="http://www.inkscape.org/namespaces/inkscape"
   xmlns:sodipodi="http://sodipodi.sourceforge.net/DTD/sodipodi-0.dtd"
   xmlns="http://www.w3.org/2000/svg"
   xmlns:svg="http://www.w3.org/2000/svg">
  <defs
     id="defs301" />
  <sodipodi:namedview
     id="namedview299"
     pagecolor="#ffffff"
     bordercolor="#000000"
     borderopacity="0.25"
     inkscape:showpageshadow="2"
     inkscape:pageopacity="0.0"
     inkscape:pagecheckerboard="0"
     inkscape:deskcolor="#d1d1d1"
     showgrid="false"
     inkscape:zoom="1.5162167"
     inkscape:cx="177.0855"
     inkscape:cy="126.63097"
     inkscape:window-width="1920"
     inkscape:window-height="1057"
     inkscape:window-x="-8"
     inkscape:window-y="535"
     inkscape:window-maximized="1"
     inkscape:current-layer="g303"
     inkscape:lockguides="true" />
  <g
     inkscape:groupmode="layer"
     inkscape:label="Image"
     id="g303">
    <path
       id="path560"
       style="fill:#1e1e1e;stroke-width:0.977901"
       sodipodi:type="inkscape:offset"
       inkscape:radius="0"
       inkscape:original="M 110.84375 10.050781 C 104.75305 10.255011 98.45074 12.235459 94.107422 16.664062 C 91.072497 19.722258 89.454122 23.98295 89.318359 28.253906 C 89.001461 34.00019 91.076019 39.505793 93.3125 44.693359 C 94.517098 47.476381 95.693832 50.271105 96.802734 53.09375 C 93.721017 54.306021 90.519779 55.644921 88.314453 58.220703 C 85.657924 61.182076 85.060695 65.376641 85.408203 69.207031 C 85.480103 71.131759 86.027541 72.980163 86.671875 74.78125 C 87.49059 77.264749 88.305719 80.122429 87.042969 82.605469 C 85.630815 85.726611 82.426023 87.441826 80.591797 90.25 C 79.176828 92.520697 79.504558 95.371406 80.34375 97.785156 C 81.292465 100.64959 82.354746 103.62681 81.916016 106.69336 C 81.379142 112.7317 78.776594 118.34964 78.591797 124.43555 C 78.372382 131.89045 80.219206 139.29112 83.328125 146.03711 C 86.878572 153.8118 91.685706 160.91435 96.140625 168.18359 C 92.785429 169.6361 89.467926 171.19439 86.355469 173.12109 C 86.033621 173.31766 85.359507 173.7436 84.902344 174.02734 C 75.863541 179.86033 67.870238 187.22332 60.904297 195.39062 C 57.076841 199.93904 53.510537 204.74669 50.669922 209.97656 C 48.38954 214.95159 48.159112 220.61939 45.722656 225.53906 C 44.557826 228.04176 42.399269 229.91652 39.996094 231.19922 C 37.025262 232.9043 33.510287 234.04814 31.423828 236.93164 C 28.050963 241.33683 26.584441 246.93751 26.330078 252.4082 C 26.141683 257.60777 27.060391 263.00734 29.826172 267.48828 C 29.963439 267.71329 30.375861 268.32829 30.654297 268.69141 C 33.636899 272.5002 37.950676 275.03502 42.384766 276.82227 C 47.840173 278.99615 53.660164 280.08999 59.476562 280.75195 C 60.611832 280.87589 61.990222 281.00975 63.224609 281.10156 C 71.690199 281.72801 80.190645 281.61788 88.669922 281.38867 C 90.617022 281.31587 92.762968 281.23552 94.785156 281.125 C 100.48941 280.84169 106.2951 280.36559 111.90234 279.75977 C 119.05787 278.96608 126.21262 277.88793 133.2207 276.4668 C 137.97416 275.50744 142.74262 274.36157 147.34766 273.06836 C 156.10342 270.59615 164.68336 267.45067 172.83203 263.39453 C 173.5403 263.02593 174.51482 262.54624 175.31445 262.11133 C 182.34387 258.41154 188.96285 253.92119 194.91406 248.66016 C 196.68446 247.29688 198.45616 245.9336 200.22656 244.57031 C 198.9956 247.89248 197.90162 251.27158 196.36914 254.47266 C 191.3231 265.71549 185.2521 276.59286 181.92773 288.52344 C 180.44967 293.70319 179.62986 299.05371 179.33594 304.42773 C 179.03741 308.44265 178.51386 312.51749 179.1875 316.52148 C 179.36519 317.5764 179.7903 318.78886 180.94141 319.10352 C 182.90836 319.69732 184.90724 318.68642 186.60547 317.77148 C 187.7534 317.13516 188.98491 316.24085 189.92578 315.52148 C 193.90761 312.36393 197.41939 308.66821 200.91602 304.99609 C 208.64036 296.65239 215.62506 287.47234 220.48828 277.1543 C 221.20585 275.63805 221.95381 273.79602 222.47852 272.41797 C 224.04618 268.26423 225.08065 263.91515 225.49609 259.49414 C 225.41229 258.73345 226.45382 259.24108 226.91602 259.0957 L 230.25 259.0957 C 230.3027 261.04037 230.3392 263.14821 230.42578 264.99023 C 230.54593 267.44972 230.72805 269.92985 230.96875 272.30664 C 231.38407 276.53191 232.02351 280.85891 232.7793 284.95703 C 234.29594 293.10757 236.4379 301.13659 239.08008 308.99414 C 239.66167 310.69115 240.31429 312.5717 240.96875 314.32617 C 244.2025 323.06962 248.10254 331.65763 252.47461 339.83008 C 260.68238 355.14881 270.77753 369.48406 282.69336 382.1582 C 288.58073 388.51755 294.70535 394.88415 302.25781 399.28516 C 303.96708 400.26948 305.97952 401.23854 307.95898 401.9043 C 312.49844 403.51469 317.61285 403.6429 322.12305 401.85938 C 327.55908 399.72478 332.31444 395.95088 335.80273 391.29102 C 338.05962 388.18898 339.87329 384.49604 339.80078 380.58203 C 339.63907 376.50672 338.11247 372.44557 338.98047 368.36133 C 339.8006 364.92722 342.71544 362.66496 344.79883 360.00195 C 345.51269 359.02564 346.19915 357.894 346.73633 356.95117 C 349.77243 351.49412 351.76291 345.50995 353.18555 339.44922 C 354.6959 332.86248 355.34948 326.00939 355.58594 319.33008 C 355.92212 309.35358 355.45241 299.37464 355.48242 289.39648 C 364.34731 289.45298 373.31195 288.84536 381.85156 286.32031 C 390.3944 283.8488 398.36775 279.38905 404.87109 273.32617 C 408.21645 269.92378 410.22408 265.35157 414.01367 262.36328 C 416.05088 260.87017 418.69134 260.9694 420.97266 260.11133 C 424.24719 258.64375 426.29527 255.30359 426.91406 251.86523 C 427.55061 248.86035 427.17705 245.77624 426.66211 242.78516 C 430.52311 242.31131 434.46624 241.67336 437.91602 239.77148 C 441.73849 237.8009 444.66382 234.22723 445.82422 230.08984 C 446.97523 226.32696 446.79088 222.33941 446.37305 218.47656 C 446.33205 217.8717 447.44683 218.26239 447.91016 218.0918 C 453.86075 217.77263 459.84219 216.52642 465.20898 213.88281 C 468.28499 212.30955 471.33941 210.10597 472.71094 206.82422 C 473.4992 204.55939 473.3965 201.9713 473.31836 199.70703 C 473.13082 196.37581 472.79037 193.04212 473.02148 189.70312 C 473.12842 186.69218 473.27266 183.38047 471.66602 180.65625 C 468.91325 175.50836 464.42343 171.55416 459.75195 168.16992 C 449.35212 160.77468 437.28423 155.83902 424.76758 153.41797 C 419.04628 152.29271 413.23407 151.64572 407.41016 151.38281 C 406.53324 151.35051 405.37698 151.2973 404.39062 151.2832 C 401.02713 151.2017 397.6618 151.2632 394.30078 151.40625 C 393.12801 151.46835 391.70758 151.53871 390.44141 151.63086 C 387.38203 151.84122 384.33198 152.13741 381.3457 152.49219 C 371.4372 153.67944 361.61568 155.61227 351.99609 157.96484 C 335.00184 162.11244 318.40942 167.6939 301.85156 173.28906 C 294.41486 175.85688 286.82551 178.6919 279.74609 182.11133 C 276.26781 183.76742 272.91441 185.66613 269.62109 187.66016 C 266.8539 182.59442 264.08659 177.527 261.31641 172.46289 C 262.05366 172.38529 271.76862 171.02487 272.50586 170.94727 C 268.98411 170.37549 257.62108 168.73542 254.57812 167.16211 C 253.62582 166.67319 252.56992 166.42363 251.50195 166.36719 C 251.45928 166.36493 251.42163 166.33749 251.37891 166.33594 C 251.98013 167.13371 251.0445 167.03061 250.45703 167.13086 C 247.62451 167.64088 244.74382 167.72796 241.87305 167.63086 C 239.32351 167.54046 236.64008 167.83225 234.47852 169.30273 C 232.91391 170.31368 231.57803 171.62686 230.13086 172.79102 C 225.00631 154.08016 219.93574 135.33767 213.63477 116.97852 C 205.30666 92.774905 194.71151 68.852327 179.02344 48.375 C 172.76271 40.238152 165.75872 32.634449 157.89258 26.017578 C 148.62595 18.383663 137.34104 13.251514 125.50586 11.210938 C 123.20239 10.800149 120.87973 10.512259 118.54883 10.310547 C 118.13997 10.279997 117.36806 10.223087 116.81836 10.1875 C 114.82987 10.07365 112.83548 10.009776 110.84375 10.050781 z M 251.50195 166.36719 C 250.65438 163.13023 246.86904 152.87758 246.25 149.65625 L 246.25586 149.69531 C 246.77035 152.92328 250.41198 163.21418 251.50195 166.36719 z M 115.56836 13.740234 C 124.15423 13.890208 132.54817 16.517921 140.1543 20.388672 C 143.00075 21.823772 145.67144 23.56854 148.31055 25.347656 C 146.25371 27.350731 144.11977 29.279993 141.77344 30.943359 C 141.18431 31.354179 142.28983 30.665765 142.53125 30.570312 C 145.4457 29.141182 148.79051 28.589415 152.01172 28.9375 C 155.23091 29.502533 157.48684 32.065917 159.76367 34.179688 C 168.41061 41.74539 175.30871 51.044126 181.63086 60.568359 C 194.56912 80.276657 204.07349 102.04024 211.55273 124.33398 C 215.51005 136.06141 218.80692 147.99701 221.86328 159.98633 C 224.21223 169.06691 226.64365 178.15498 228.0625 187.4375 C 228.44698 191.3969 227.60365 195.77524 224.69922 198.67578 C 223.50461 199.92368 221.86843 200.56134 220.37695 201.36719 C 220.70167 205.33112 220.28155 209.67668 217.69531 212.88086 C 216.29306 214.70279 214.20323 215.77928 212.11133 216.61719 C 211.61008 216.76644 210.761 217.52648 210.90625 216.53711 C 210.83445 215.86267 210.63057 215.21015 210.54297 214.53711 C 210.66835 215.71109 210.80707 216.88504 210.85742 218.06445 C 210.89802 218.67457 210.93792 219.28441 210.97852 219.89453 C 195.45166 210.3463 180.08773 200.52094 164.2207 191.53711 C 160.7303 189.5782 157.10377 187.5741 153.51172 185.6875 C 146.70039 182.08694 139.2634 179.58818 132.35352 176.02539 C 126.37756 172.98353 120.94841 168.74553 116.96094 163.32617 C 114.06544 159.53388 111.93452 155.20905 110.4375 150.69141 C 107.96749 143.20689 106.69171 135.22035 107.50391 127.3457 C 107.95839 123.04909 109.20007 118.68592 111.58594 115.05859 C 107.97184 120.46967 105.82382 126.83332 105.52344 133.33203 C 104.95749 144.89406 109.27286 156.36502 116.35156 165.41406 C 119.52954 169.48887 123.33016 173.06054 127.53125 176.06836 L 127.53125 179.17773 C 116.8319 185.65374 105.3593 191.0021 95.638672 198.97656 C 94.817139 199.65801 94.050902 200.31783 93.326172 200.98438 C 88.525968 205.34538 84.289512 210.73786 82.787109 217.16016 C 81.790207 221.38103 82.003502 225.88653 83.345703 230.00586 C 84.781051 233.83676 87.57197 236.92377 89.625 240.41602 C 90.089029 241.14935 90.55355 241.88387 91.017578 242.61719 C 85.962571 242.59059 80.884389 242.54209 75.884766 241.70898 C 72.50989 241.18659 69.177655 240.39613 65.923828 239.36133 C 68.109821 240.27076 70.464604 241.01542 72.671875 241.54102 C 80.512017 243.45855 88.682038 243.30489 96.654297 242.42773 C 97.09409 242.53772 98.158573 241.94652 98.134766 242.57617 C 98.123826 245.82705 98.291576 249.12537 99.328125 252.23438 C 101.17856 258.16409 105.47699 262.96367 110.25977 266.76953 C 111.32765 267.63023 112.39892 268.42136 113.41211 269.14453 C 114.79653 270.12124 116.19827 271.07252 117.58984 272.03906 C 115.24133 273.3208 112.92616 274.74983 110.29102 275.37109 C 103.30544 277.17219 96.027389 276.66287 88.886719 276.79492 C 77.300323 276.95191 65.56722 277.64034 54.132812 275.32031 C 48.918464 274.22909 43.747957 272.53552 39.216797 269.68945 C 34.503898 266.45775 31.932065 260.84575 31.355469 255.28516 C 30.736282 249.43912 32.209851 243.12049 36.345703 238.77734 C 40.090481 234.78885 45.936816 233.23345 51.259766 234.12305 C 52.360544 234.29064 53.446963 234.53948 54.517578 234.84375 C 52.386976 233.7897 50.732309 231.82777 50.189453 229.50195 C 49.219939 225.51131 50.489527 221.40472 52.050781 217.73828 C 55.201269 210.65504 59.934271 204.39316 65.099609 198.65625 C 72.6114 190.38623 81.459877 183.4878 90.382812 176.81641 C 94.592332 173.61404 98.859827 170.36308 103.76562 168.28711 C 103.0452 167.40701 102.44169 166.73575 101.6582 165.91992 C 99.245854 163.41136 96.627207 160.85763 94.615234 157.91211 C 88.193128 148.96662 84.231823 138.25003 83.410156 127.26953 C 83.100392 121.63401 85.166017 116.27404 86.755859 110.96875 C 87.465866 108.42554 88.186531 105.80294 88.058594 103.14258 C 87.558607 100.9525 85.675553 99.418114 84.974609 97.302734 C 84.040659 95.021814 84.807266 92.413161 86.324219 90.574219 C 88.308395 87.826236 91.641147 86.140699 95.037109 86.197266 C 96.491042 86.195266 97.938615 86.425753 99.337891 86.8125 C 95.0404 82.910469 91.795179 77.740042 90.710938 72 C 90.089247 68.941259 89.580442 65.590091 90.884766 62.634766 C 92.050051 60.04858 94.942299 58.818873 97.623047 58.558594 C 100.94922 58.19943 104.28808 58.677013 107.60156 58.958984 C 108.33016 59.043104 109.05931 59.126942 109.7832 59.246094 C 107.33449 58.14455 105.19694 56.449069 103.47852 54.396484 C 99.351163 49.501109 96.496171 43.577501 94.970703 37.376953 C 93.852181 32.583425 93.570794 27.303701 95.720703 22.746094 C 97.201498 19.52224 100.09212 17.102064 103.38867 15.869141 C 107.23758 14.299012 111.42681 13.694436 115.56836 13.740234 z M 139.0625 32.970703 C 135.5723 35.567431 132.46046 38.996775 131.29688 43.277344 C 129.98558 47.927091 130.85286 52.867666 131.55664 57.474609 C 132.0608 60.487758 132.41643 63.521018 132.78711 66.552734 C 131.44517 66.13729 130.10402 65.720948 128.76172 65.306641 C 130.68813 66.257616 132.53759 67.352188 134.38281 68.449219 L 134.38281 71.667969 C 129.44315 74.776162 124.27857 77.983599 120.93945 82.900391 C 118.59838 86.292467 117.6591 90.464556 117.73438 94.542969 L 117.68945 96.839844 C 116.48641 96.407938 115.28288 95.975362 114.08008 95.542969 C 117.16139 98.13315 119.95994 101.03796 122.59766 104.07227 C 119.5327 106.31381 116.52722 108.68721 114.08203 111.61328 C 113.16766 112.6651 112.41148 113.83464 111.63672 114.98828 C 112.42818 113.79592 113.34073 112.67965 114.39453 111.67773 C 116.81133 109.40034 119.8361 107.70953 123.08984 106.99805 C 124.52191 106.75908 126.00703 106.97885 127.34766 107.51758 C 123.72239 103.8096 120.43223 99.35656 119.65625 94.105469 C 119.02367 89.897306 120.33611 85.502981 123.05078 82.240234 C 125.51409 79.231437 128.6918 76.885394 131.97852 74.845703 C 134.54931 73.356893 137.42971 71.970854 140.48242 72.226562 C 136.59305 68.599957 134.5502 63.470744 133.47266 58.367188 C 132.23993 52.22005 132.28286 45.65016 134.55859 39.742188 C 135.5569 37.202593 137.04266 34.824834 139.0625 32.970703 z M 256.31641 126.21875 L 256.2832 126.24219 C 253.72578 127.86672 250.99698 129.49485 249.39062 132.1582 C 248.33133 133.76103 247.47819 135.50557 246.9043 137.33984 C 247.94004 134.37979 249.6074 131.61017 252.00195 129.54883 C 253.35458 128.33279 254.84495 127.28388 256.31641 126.21875 z M 289.35742 133.33203 L 289.32617 133.42383 L 289.3125 133.46484 C 288.64188 135.66636 288.55708 137.99161 288.6543 140.27539 C 288.83899 137.95605 289.038 135.63746 289.35742 133.33203 z M 402.42188 156.35547 C 409.05915 156.40857 415.67674 157.09993 422.21484 158.2207 C 425.27031 158.61138 428.65421 158.75399 431.12109 160.83398 C 432.67573 162.19424 433.46481 164.18608 434.22461 166.05469 C 436.03289 170.82084 435.61643 176.28783 433.33203 180.82031 C 430.24191 187.06383 424.52913 191.74318 418.16992 194.42188 C 414.15092 196.08637 409.73746 196.97906 405.38477 196.49609 C 405.55519 198.12839 405.76691 199.65147 406.02148 201.31055 C 406.78383 206.44002 407.79213 211.7524 406.50977 216.88477 C 405.62906 220.65492 403.03108 223.92232 399.62695 225.75 C 395.71062 227.93619 391.09896 228.78765 386.65234 228.23047 C 387.59603 232.88579 387.8717 237.73745 386.83398 242.40234 C 385.38858 249.39732 381.11297 255.58822 375.56055 260 C 368.18889 265.87548 359.00524 269.14701 349.72852 270.42383 C 345.19699 271.07845 340.54331 271.14133 336.05859 270.12695 C 328.51284 268.52728 321.85216 264.44863 315.30859 260.55664 C 311.29206 258.1423 307.17736 255.88184 302.87891 254.00391 C 290.10885 248.18063 277.03865 243.05408 264.08398 237.66602 C 258.7947 235.65082 252.93852 234.94283 248.13672 231.77344 C 247.2271 231.12419 246.31614 230.47703 245.40625 229.82812 C 246.89614 228.79808 248.32087 227.66584 249.89062 226.75586 C 247.50985 227.51095 245.1285 228.26532 242.74805 229.02148 C 243.90348 225.65354 244.87695 222.15747 246.90625 219.17969 C 249.15591 215.68799 252.30509 212.8359 255.82422 210.6543 C 254.26206 211.2517 252.69918 211.84874 251.13672 212.44531 C 251.67948 209.62945 251.96162 206.68042 253.42383 204.14648 C 256.04071 199.36191 260.6866 196.13021 265.38672 193.5957 C 272.53479 189.80368 280.32529 187.48788 287.7793 184.40039 C 313.37304 174.31397 339.73473 166.00207 366.76758 160.75391 C 374.59115 159.24613 382.45168 157.89961 390.36328 156.94336 C 394.36541 156.50077 398.39612 156.32877 402.42188 156.35547 z M 284.74414 160.97266 L 284.26953 161.66602 C 281.32801 165.77365 277.2535 169.12265 272.51758 170.94922 C 277.79221 169.62514 282.41571 165.89078 284.74414 160.97266 z M 435.48047 161.69922 C 436.40698 161.94413 437.33523 162.18869 438.26172 162.43359 C 445.43064 164.2694 452.05618 167.90309 457.84375 172.46289 C 463.26877 176.81729 468.12695 182.23555 470.57031 188.83594 C 471.89715 192.60186 472.59963 196.87452 471.10938 200.70117 C 469.39337 205.18721 465.37431 208.31433 461.17773 210.37305 C 455.23613 213.212 448.61427 214.56619 442.03906 214.53906 C 439.338 214.48356 436.58397 214.17906 434.09961 213.05078 C 437.16082 215.98684 440.08508 219.39587 441.16797 223.58789 C 441.98174 226.61695 441.16497 230.01163 438.99023 232.28906 C 436.76279 234.785 433.61862 236.13561 430.57031 237.3418 C 428.14788 238.46303 425.60198 239.69015 422.85352 239.45312 C 421.39042 239.39253 419.94415 239.11913 418.5293 238.75195 C 421.19486 240.88969 423.15439 244.16422 422.94922 247.66211 C 422.78354 250.3661 421.82774 253.35329 419.39648 254.8457 C 417.29691 256.18346 414.70597 255.72367 412.40234 256.33594 C 410.98283 256.84391 410.08832 258.16219 409.06055 259.19141 C 404.90157 263.95136 401.92521 269.74553 396.97656 273.80273 C 394.05257 276.22435 390.62612 277.94783 387.21094 279.56445 C 380.13824 282.77372 372.39386 284.66532 364.60352 284.59766 C 359.80441 284.51176 355.0063 283.60324 350.20703 284.1543 C 350.94027 287.84079 350.37858 291.63986 351.05664 295.33594 C 352.48175 306.917 352.40397 318.70684 350.60156 330.24219 C 349.16785 339.08696 346.68377 347.92092 341.98633 355.625 C 339.90532 358.92972 337.33917 362.25721 333.61719 363.78711 C 331.70944 364.58046 329.52814 364.5969 327.59375 363.88281 C 330.77644 366.21881 333.5088 369.37689 334.60938 373.22852 C 336.16483 378.26673 334.91165 383.84491 332.00781 388.1543 C 328.23338 393.83761 321.75893 397.94209 314.83008 398.05078 C 310.75964 398.11788 306.90649 396.47845 303.35156 394.65625 C 295.66774 390.50837 289.4072 384.22124 283.84961 377.58789 C 276.91965 369.2639 271.15461 360.07641 265.12109 351.10742 C 262.61359 347.26263 260.37433 343.15648 259.33398 338.65234 C 259.09505 337.78002 258.85611 336.90748 258.61719 336.03516 C 264.13228 338.08595 269.75668 340.35631 275.73242 340.41406 C 281.32346 340.54814 286.65802 338.34522 291.36914 335.51172 C 292.3769 334.91127 293.3682 334.28361 294.36914 333.67188 C 296.56368 336.55289 298.73922 339.44781 300.99023 342.28516 C 300.41319 341.24541 299.8413 340.20456 299.26562 339.16406 C 302.45263 339.15806 305.63605 339.35003 308.82227 339.30078 C 311.87612 339.20558 314.7399 337.92441 317.39453 336.51367 C 322.0228 333.92801 325.54248 329.64054 327.57812 324.78711 C 330.58549 317.66974 331.14012 309.80465 330.94922 302.16406 C 330.71912 294.54435 329.64007 286.97179 328.29102 279.38867 C 327.77165 276.48264 327.18978 273.46513 326.64062 270.51758 C 330.90119 270.93639 335.12136 271.66161 339.34961 272.31445 C 343.19454 272.89962 347.12477 273.04392 350.97266 272.40039 C 361.37723 270.92293 371.59265 266.56644 379.06055 259.05469 C 384.64673 253.48413 388.35601 246.07423 389.37695 238.25195 C 389.74487 235.75296 389.7556 233.22326 389.77148 230.70312 C 393.61285 230.72833 397.44677 231.09934 401.21875 231.82617 C 400.6569 231.64057 400.09657 231.45253 399.53516 231.26562 L 399.53516 227.78125 C 402.35556 226.04147 405.02118 223.85938 406.61523 220.90039 C 409.06878 216.4679 409.10862 211.21371 408.76758 206.29297 C 408.60054 203.80137 408.30459 201.32112 408.06445 198.83594 C 410.94471 199.54336 413.82445 200.3092 416.52344 201.5625 C 417.37743 201.97395 416.37712 201.40313 416.03906 201.17383 C 415.29811 200.7028 414.55735 200.23081 413.81641 199.75977 C 415.71337 198.15461 417.58885 196.47632 419.85938 195.40625 C 422.69248 193.96483 425.73066 192.78877 428.0918 190.58984 C 431.64847 187.64899 434.48934 183.69884 435.51367 179.15234 C 436.24683 176.15076 436.31807 172.89337 436.18359 169.91016 C 436.05759 167.16472 435.73428 164.43457 435.48047 161.69922 z M 251.20312 169.20703 L 252.76758 169.20703 L 255.96094 169.20703 C 256.5276 170.40305 257.21422 171.57067 257.70508 172.78516 L 257.70508 175.69727 C 254.81583 176.41736 251.92633 177.13915 249.03711 177.85938 C 249.75857 174.97517 250.48182 172.09126 251.20312 169.20703 z M 240.61719 170.26367 C 243.75359 170.21897 246.40622 172.95474 246.73242 175.98438 C 247.15073 178.5589 245.6942 181.30554 243.25391 182.29492 C 240.93391 183.39439 237.93906 182.96438 236.18164 181.04102 C 233.89041 178.74083 233.53119 174.58475 235.88477 172.20117 C 237.09402 170.93561 238.8798 170.26454 240.61719 170.26367 z M 259.15039 179.0625 C 262.17312 179.0097 264.73344 181.61633 265.09766 184.52734 C 265.56819 187.14941 264.09967 189.98401 261.60156 190.99023 C 259.39968 192.04345 256.54756 191.70112 254.83398 189.90234 C 252.40922 187.56715 252.14196 183.20629 254.6543 180.83398 C 255.84268 179.68836 257.50619 179.06533 259.15039 179.0625 z M 132.17578 180.13672 C 136.38141 180.33276 140.10168 182.52189 144.04688 183.74219 C 154.88834 187.57477 164.28789 194.35045 174.29102 199.84766 C 180.84012 203.51743 188.29385 205.62446 194.18945 210.41211 C 196.55044 212.25268 198.17785 214.78897 199.99609 217.12109 C 200.01819 217.14509 201.02052 217.19929 201.38086 217.26953 C 203.90575 217.5833 206.70867 218.59811 207.88867 221.0293 C 209.11648 223.54275 208.18855 226.45176 206.95312 228.77344 C 204.44397 233.34077 200.78722 237.14613 197.06445 240.74414 C 190.43496 247.04565 182.65636 252.0307 174.54297 256.20508 C 165.31259 260.94875 155.51419 264.4687 145.625 267.56836 C 139.72654 269.49321 133.76054 271.75001 127.47266 271.79102 C 121.03918 271.65973 114.92449 268.80654 109.95117 264.86133 C 106.25974 261.83072 102.89646 258.07596 101.43555 253.44727 C 100.39031 250.16161 100.03405 246.30717 101.90039 243.24023 C 102.57948 242.13649 103.57136 241.25285 104.69336 240.61328 C 100.66646 241.42979 96.216723 241.30107 92.626953 239.10156 C 88.637208 236.85271 85.859533 232.76337 84.974609 228.30273 C 83.652929 221.88424 85.396172 215.15884 88.677734 209.5918 C 92.823149 202.5187 99.344626 197.21879 106.19141 192.88477 C 110.41266 190.18632 114.87063 187.89036 119.23633 185.44141 C 122.79981 183.38293 126.32565 180.92773 130.4668 180.23047 C 131.03252 180.14387 131.60468 180.12594 132.17578 180.13672 z M 249.28906 183.44727 C 249.46047 184.07574 249.63133 184.70551 249.80273 185.33398 C 251.01154 189.75805 252.22038 194.18153 253.42969 198.60547 L 248.69727 198.60547 C 246.08166 194.25484 243.46627 189.90389 240.85156 185.55273 C 243.66406 184.85057 246.47589 184.14676 249.28906 183.44727 z M 234.85938 184.30859 C 235.49275 184.51978 236.12443 184.73022 236.75781 184.94141 C 238.19338 185.41867 239.63044 185.89702 241.06641 186.37305 L 241.06641 190.35156 C 238.07776 191.09647 235.08822 191.84282 232.09961 192.58789 C 233.01795 189.82746 233.93849 187.06818 234.85938 184.30859 z M 373.73438 188.78711 C 372.00585 188.76531 370.27737 188.76922 368.54883 188.79102 C 360.38746 188.91919 352.24388 189.60849 344.1543 190.67773 C 330.18352 192.52687 316.22498 195.5024 302.35938 198.31445 C 298.29154 199.14775 294.21964 199.95662 290.16016 200.83008 C 313.21168 196.74583 336.09382 190.64276 359.60352 189.38086 C 367.28666 188.97406 375.00696 189.06653 382.66211 189.86914 C 379.75721 189.06842 376.74283 188.75528 373.73438 188.78711 z M 242.24805 195.30664 C 242.56092 195.22674 242.82158 195.21614 242.83398 195.53125 C 242.89398 196.15152 242.95362 196.77232 243.01367 197.39258 C 243.96984 206.13961 242.92817 215.20914 239.24609 223.25586 C 237.43617 227.13973 235.22339 230.89557 232.30273 234.05469 C 230.36832 236.12802 227.63095 237.93132 224.66602 237.47461 C 221.1567 236.87661 218.47379 233.69685 217.88477 230.27539 C 217.14828 226.08949 218.59598 221.92237 220.09961 218.07031 C 222.56719 211.93113 225.80291 205.9556 230.50781 201.22852 C 233.44088 198.30832 237.17531 196.01649 241.3457 195.49805 C 241.56884 195.53605 241.93518 195.38658 242.24805 195.30664 z M 303.28711 215.80859 C 299.45839 215.83199 295.59757 216.04506 291.74219 216.51953 C 289.08126 216.83485 286.44783 217.22689 283.76562 217.70703 C 281.82247 218.06057 280.03835 218.40183 278.10156 218.83398 C 293.6035 215.86185 309.51346 215.76634 325.20703 217.04102 C 322.0561 216.74818 318.90814 216.41977 315.75 216.21484 C 313.82172 216.09379 311.69639 215.9782 309.68945 215.91016 C 307.55627 215.83716 305.4216 215.79656 303.28711 215.80859 z M 325.20703 217.04102 C 325.91246 217.10662 326.61902 217.15852 327.32422 217.22656 C 327.01078 217.19736 326.70025 217.14136 326.38672 217.11328 C 325.99467 217.07968 325.59937 217.07292 325.20703 217.04102 z M 327.32422 217.22656 C 337.88332 218.20931 348.3938 219.77299 358.75781 222.01758 C 366.66916 223.80336 374.42621 226.30645 382.46484 227.50195 C 378.57794 226.57416 374.73248 225.47487 370.81641 224.66797 C 363.56281 223.03524 356.22039 221.20269 348.98438 219.86133 C 343.22156 218.73889 337.37596 218.15326 331.53711 217.59375 C 330.13455 217.45273 328.72741 217.36194 327.32422 217.22656 z M 194.94336 217.18359 C 194.76298 217.17959 194.25322 217.19361 193.96094 217.19531 L 193.96094 217.19336 C 191.96938 217.23856 190.04718 217.31326 188.11328 217.42773 C 184.24558 217.65579 180.53098 218.01223 176.66406 218.5 C 172.79443 218.99265 168.84515 219.61586 164.94922 220.35547 C 153.36586 222.55236 141.80679 225.72947 130.7168 229.93164 C 128.53252 230.73349 126.16237 231.72664 124.05664 232.7793 C 140.21432 226.55317 157.22112 222.88027 174.28711 220.17383 C 181.15966 219.09195 188.04296 218.07084 194.94336 217.18359 z M 240.89844 233.60156 C 241.31694 233.63366 241.73581 233.66517 242.1543 233.69727 C 246.15293 233.8528 250.06586 235.52746 252.86914 238.39062 C 253.73769 239.2476 254.5217 240.18635 255.24219 241.16992 C 254.53985 239.81126 253.83422 238.45383 253.13086 237.0957 C 256.35413 237.53663 259.62438 237.85668 262.71094 238.94922 C 269.50531 241.20682 275.59268 245.09405 282.24805 247.68945 C 291.43118 251.45966 301.08045 254.51848 309.84961 259.35547 C 314.26414 261.76678 318.91295 264.02773 322.47852 267.66016 C 323.84195 269.01938 324.75595 270.74608 325.28711 272.58398 C 328.26603 281.54772 329.59609 291.01954 329.62891 300.44922 C 329.58461 308.14892 328.69767 315.98953 325.73633 323.1582 C 323.18864 328.91898 318.60318 333.9777 312.67383 336.33398 C 307.62859 338.35524 301.43805 337.72321 297.22461 334.17188 C 294.9956 332.34845 293.33486 329.74022 292.15625 327.25977 C 292.28912 329.75658 291.74549 332.45698 289.89062 334.26367 C 286.89303 337.62434 282.41534 339.47387 277.93555 339.50977 C 271.8813 339.60367 266.03154 337.26189 261.02148 334.00781 C 256.59885 331.04797 252.50384 327.27375 250.15234 322.42969 C 244.08767 309.56215 239.18596 296.06341 236.56055 282.05859 C 234.68297 271.86637 234.06488 261.27438 236.2793 251.08203 C 237.18331 246.69937 238.40679 242.39183 239.43164 238.03711 C 239.64869 237.11067 239.90457 235.91791 240.125 234.88672 C 240.34914 234.41316 240.1082 233.31822 240.89844 233.60156 z M 217.15234 240.26953 C 220.1582 240.16983 223.0664 242.31248 223.77344 245.24805 C 224.67163 248.75078 223.6703 252.37702 222.62109 255.73047 C 221.52447 259.00498 220.19555 262.19698 219.12305 265.48047 C 215.06162 276.83082 209.69516 287.8573 202.10352 297.29297 C 197.64902 302.82509 192.32698 307.70227 186.20117 311.33594 C 185.52395 311.76169 184.84713 312.18753 184.16992 312.61328 C 184.18822 307.76649 184.25162 302.90744 184.89648 298.0957 C 186.93291 281.97701 193.1733 266.40678 202.85156 253.34375 C 203.27437 252.72326 203.85908 251.86391 204.3418 251.15039 C 206.72216 247.71016 209.16911 244.13291 212.70117 241.76953 C 214.0272 240.91206 215.55705 240.30147 217.15234 240.26953 z M 278.04297 284.34961 C 278.26025 284.85087 278.47608 285.35227 278.69336 285.85352 C 281.81897 293.11481 284.45723 300.58174 286.62109 308.18359 C 286.86239 308.95437 287.13867 309.71363 287.41992 310.4707 C 285.43734 302.40644 282.58372 294.57445 279.23047 286.98242 C 278.87484 286.18925 278.44406 285.21068 278.04297 284.34961 z "
       d="m 110.84375,10.050781 c -6.0907,0.20423 -12.39301,2.184678 -16.736328,6.613281 -3.034925,3.058196 -4.6533,7.318888 -4.789063,11.589844 -0.316898,5.746284 1.75766,11.251887 3.994141,16.439453 1.204598,2.783022 2.381332,5.577746 3.490234,8.400391 -3.081717,1.212271 -6.282955,2.551171 -8.488281,5.126953 -2.656529,2.961373 -3.253758,7.155938 -2.90625,10.986328 0.0719,1.924728 0.619338,3.773132 1.263672,5.574219 0.818715,2.483499 1.633844,5.341179 0.371094,7.824219 -1.412154,3.121142 -4.616946,4.836357 -6.451172,7.644531 -1.414969,2.270697 -1.087239,5.121406 -0.248047,7.535156 0.948715,2.864434 2.010996,5.841654 1.572266,8.908204 -0.536874,6.03834 -3.139422,11.65628 -3.324219,17.74219 -0.219415,7.4549 1.627409,14.85557 4.736328,21.60156 3.550447,7.77469 8.357581,14.87724 12.8125,22.14648 -3.355196,1.45251 -6.672699,3.0108 -9.785156,4.9375 -0.321848,0.19657 -0.995962,0.62251 -1.453125,0.90625 -9.038803,5.83299 -17.032106,13.19598 -23.998047,21.36328 -3.827456,4.54842 -7.39376,9.35607 -10.234375,14.58594 -2.280382,4.97503 -2.51081,10.64283 -4.947266,15.5625 -1.16483,2.5027 -3.323387,4.37746 -5.726562,5.66016 -2.970832,1.70508 -6.485807,2.84892 -8.572266,5.73242 -3.372865,4.40519 -4.839387,10.00587 -5.09375,15.47656 -0.188395,5.19957 0.730313,10.59914 3.496094,15.08008 0.137267,0.22501 0.549689,0.84001 0.828125,1.20313 2.982602,3.80879 7.296379,6.34361 11.730469,8.13086 5.455407,2.17388 11.275398,3.26772 17.091796,3.92968 1.13527,0.12394 2.51366,0.2578 3.748047,0.34961 8.46559,0.62645 16.966036,0.51632 25.445313,0.28711 1.9471,-0.0728 4.093046,-0.15315 6.115234,-0.26367 5.704254,-0.28331 11.509944,-0.75941 17.117184,-1.36523 7.15553,-0.79369 14.31028,-1.87184 21.31836,-3.29297 4.75346,-0.95936 9.52192,-2.10523 14.12696,-3.39844 8.75576,-2.47221 17.3357,-5.61769 25.48437,-9.67383 0.70827,-0.3686 1.68279,-0.84829 2.48242,-1.2832 7.02942,-3.69979 13.6484,-8.19014 19.59961,-13.45117 1.7704,-1.36328 3.5421,-2.72656 5.3125,-4.08985 -1.23096,3.32217 -2.32494,6.70127 -3.85742,9.90235 -5.04604,11.24283 -11.11704,22.1202 -14.44141,34.05078 -1.47806,5.17975 -2.29787,10.53027 -2.59179,15.90429 -0.29853,4.01492 -0.82208,8.08976 -0.14844,12.09375 0.17769,1.05492 0.6028,2.26738 1.75391,2.58204 1.96695,0.5938 3.96583,-0.4171 5.66406,-1.33204 1.14793,-0.63632 2.37944,-1.53063 3.32031,-2.25 3.98183,-3.15755 7.49361,-6.85327 10.99024,-10.52539 7.72434,-8.3437 14.70904,-17.52375 19.57226,-27.84179 0.71757,-1.51625 1.46553,-3.35828 1.99024,-4.73633 1.56766,-4.15374 2.60213,-8.50282 3.01757,-12.92383 -0.0838,-0.76069 0.95773,-0.25306 1.41993,-0.39844 H 230.25 c 0.0527,1.94467 0.0892,4.05251 0.17578,5.89453 0.12015,2.45949 0.30227,4.93962 0.54297,7.31641 0.41532,4.22527 1.05476,8.55227 1.81055,12.65039 1.51664,8.15054 3.6586,16.17956 6.30078,24.03711 0.58159,1.69701 1.23421,3.57756 1.88867,5.33203 3.23375,8.74345 7.13379,17.33146 11.50586,25.50391 8.20777,15.31873 18.30292,29.65398 30.21875,42.32812 5.88737,6.35935 12.01199,12.72595 19.56445,17.12696 1.70927,0.98432 3.72171,1.95338 5.70117,2.61914 4.53946,1.61039 9.65387,1.7386 14.16407,-0.0449 5.43603,-2.1346 10.19139,-5.9085 13.67968,-10.56836 2.25689,-3.10204 4.07056,-6.79498 3.99805,-10.70899 -0.16171,-4.07531 -1.68831,-8.13646 -0.82031,-12.2207 0.82013,-3.43411 3.73497,-5.69637 5.81836,-8.35938 0.71386,-0.97631 1.40032,-2.10795 1.9375,-3.05078 3.0361,-5.45705 5.02658,-11.44122 6.44922,-17.50195 1.51035,-6.58674 2.16393,-13.43983 2.40039,-20.11914 0.33618,-9.9765 -0.13353,-19.95544 -0.10352,-29.9336 8.86489,0.0565 17.82953,-0.55112 26.36914,-3.07617 8.54284,-2.47151 16.51619,-6.93126 23.01953,-12.99414 3.34536,-3.40239 5.35299,-7.9746 9.14258,-10.96289 2.03721,-1.49311 4.67767,-1.39388 6.95899,-2.25195 3.27453,-1.46758 5.32261,-4.80774 5.9414,-8.2461 0.63655,-3.00488 0.26299,-6.08899 -0.25195,-9.08007 3.861,-0.47385 7.80413,-1.1118 11.25391,-3.01368 3.82247,-1.97058 6.7478,-5.54425 7.9082,-9.68164 1.15101,-3.76288 0.96666,-7.75043 0.54883,-11.61328 -0.041,-0.60486 1.07378,-0.21417 1.53711,-0.38476 5.95059,-0.31917 11.93203,-1.56538 17.29882,-4.20899 3.07601,-1.57326 6.13043,-3.77684 7.50196,-7.05859 0.78826,-2.26483 0.68556,-4.85292 0.60742,-7.11719 -0.18754,-3.33122 -0.52799,-6.66491 -0.29688,-10.00391 0.10694,-3.01094 0.25118,-6.32265 -1.35546,-9.04687 -2.75277,-5.14789 -7.24259,-9.10209 -11.91407,-12.48633 -10.39983,-7.39524 -22.46772,-12.3309 -34.98437,-14.75195 -5.7213,-1.12526 -11.53351,-1.77225 -17.35742,-2.03516 -0.87692,-0.0323 -2.03318,-0.0855 -3.01954,-0.0996 -3.36349,-0.0815 -6.72882,-0.02 -10.08984,0.12305 -1.17277,0.0621 -2.5932,0.13246 -3.85937,0.22461 -3.05938,0.21036 -6.10943,0.50655 -9.09571,0.86133 -9.9085,1.18725 -19.73002,3.12008 -29.34961,5.47265 -16.99425,4.1476 -33.58667,9.72906 -50.14453,15.32422 -7.4367,2.56782 -15.02605,5.40284 -22.10547,8.82227 -3.47828,1.65609 -6.83168,3.5548 -10.125,5.54883 -2.76719,-5.06574 -5.5345,-10.13316 -8.30468,-15.19727 0.73725,-0.0776 10.45221,-1.43802 11.18945,-1.51562 -3.52175,-0.57178 -14.88478,-2.21185 -17.92774,-3.78516 -0.9523,-0.48892 -2.0082,-0.73848 -3.07617,-0.79492 -0.0427,-0.002 -0.0803,-0.0297 -0.12304,-0.0312 0.60122,0.79777 -0.33441,0.69467 -0.92188,0.79492 -2.83252,0.51002 -5.71321,0.5971 -8.58398,0.5 -2.54954,-0.0904 -5.23297,0.20139 -7.39453,1.67187 -1.56461,1.01095 -2.90049,2.32413 -4.34766,3.48829 -5.12455,-18.71086 -10.19512,-37.45335 -16.49609,-55.8125 C 205.30666,92.774905 194.71151,68.852327 179.02344,48.375 172.76271,40.238152 165.75872,32.634449 157.89258,26.017578 c -9.26663,-7.633915 -20.55154,-12.766064 -32.38672,-14.80664 -2.30347,-0.410789 -4.62613,-0.698679 -6.95703,-0.900391 -0.40886,-0.03055 -1.18077,-0.08746 -1.73047,-0.123047 -1.98849,-0.11385 -3.98288,-0.177724 -5.97461,-0.136719 z m 140.6582,156.316409 c -0.84757,-3.23696 -4.63291,-13.48961 -5.25195,-16.71094 l 0.006,0.0391 c 0.51449,3.22797 4.15612,13.51887 5.24609,16.67188 z M 115.56836,13.740234 c 8.58587,0.149974 16.97981,2.777687 24.58594,6.648438 2.84645,1.4351 5.51714,3.179868 8.15625,4.958984 -2.05684,2.003075 -4.19078,3.932337 -6.53711,5.595703 -0.58913,0.41082 0.51639,-0.277594 0.75781,-0.373047 2.91445,-1.42913 6.25926,-1.980897 9.48047,-1.632812 3.21919,0.565033 5.47512,3.128417 7.75195,5.242188 8.64694,7.565702 15.54504,16.864438 21.86719,26.388671 12.93826,19.708298 22.44263,41.471881 29.92187,63.765621 3.95732,11.72743 7.25419,23.66303 10.31055,35.65235 2.34895,9.08058 4.78037,18.16865 6.19922,27.45117 0.38448,3.9594 -0.45885,8.33774 -3.36328,11.23828 -1.19461,1.2479 -2.83079,1.88556 -4.32227,2.69141 0.32472,3.96393 -0.0954,8.30949 -2.68164,11.51367 -1.40225,1.82193 -3.49208,2.89842 -5.58398,3.73633 -0.50125,0.14925 -1.35033,0.90929 -1.20508,-0.0801 -0.0718,-0.67444 -0.27568,-1.32696 -0.36328,-2 0.12538,1.17398 0.2641,2.34793 0.31445,3.52734 0.0406,0.61012 0.0805,1.21996 0.1211,1.83008 -15.52686,-9.54823 -30.89079,-19.37359 -46.75782,-28.35742 -3.4904,-1.95891 -7.11693,-3.96301 -10.70898,-5.84961 -6.81133,-3.60056 -14.24832,-6.09932 -21.1582,-9.66211 -5.97596,-3.04186 -11.40511,-7.27986 -15.39258,-12.69922 -2.8955,-3.79229 -5.02642,-8.11712 -6.52344,-12.63476 -2.47001,-7.48452 -3.74579,-15.47106 -2.93359,-23.34571 0.45448,-4.29661 1.69616,-8.65978 4.08203,-12.28711 -3.6141,5.41108 -5.76212,11.77473 -6.0625,18.27344 -0.56595,11.56203 3.74942,23.03299 10.82812,32.08203 3.17798,4.07481 6.9786,7.64648 11.17969,10.6543 v 3.10937 c -10.69935,6.47601 -22.17195,11.82437 -31.892578,19.79883 -0.821533,0.68145 -1.58777,1.34127 -2.3125,2.00782 -4.800204,4.361 -9.03666,9.75348 -10.539063,16.17578 -0.996902,4.22087 -0.783607,8.72637 0.558594,12.8457 1.435348,3.8309 4.226267,6.91791 6.279297,10.41016 0.464029,0.73333 0.92855,1.46785 1.392578,2.20117 -5.055007,-0.0266 -10.133189,-0.0751 -15.132812,-0.90821 -3.374876,-0.52239 -6.707111,-1.31285 -9.960938,-2.34765 2.185993,0.90943 4.540776,1.65409 6.748047,2.17969 7.840142,1.91753 16.010163,1.76387 23.982422,0.88671 0.439793,0.10999 1.504276,-0.48121 1.480469,0.14844 -0.01094,3.25088 0.15681,6.5492 1.193359,9.65821 1.850435,5.92971 6.148865,10.72929 10.931645,14.53515 1.06788,0.8607 2.13915,1.65183 3.15234,2.375 1.38442,0.97671 2.78616,1.92799 4.17773,2.89453 -2.34851,1.28174 -4.66368,2.71077 -7.29882,3.33203 -6.98558,1.8011 -14.263631,1.29178 -21.404301,1.42383 -11.586396,0.15699 -23.319499,0.84542 -34.753907,-1.47461 -5.214348,-1.09122 -10.384855,-2.78479 -14.916015,-5.63086 -4.712899,-3.2317 -7.284732,-8.8437 -7.861328,-14.40429 -0.619187,-5.84604 0.854382,-12.16467 4.990234,-16.50782 3.744778,-3.98849 9.591113,-5.54389 14.914063,-4.65429 1.100778,0.16759 2.187197,0.41643 3.257812,0.7207 -2.130602,-1.05405 -3.785269,-3.01598 -4.328125,-5.3418 -0.969514,-3.99064 0.300074,-8.09723 1.861328,-11.76367 3.150488,-7.08324 7.88349,-13.34512 13.048828,-19.08203 7.511791,-8.27002 16.360268,-15.16845 25.283203,-21.83984 4.20952,-3.20237 8.477015,-6.45333 13.382808,-8.5293 -0.72042,-0.8801 -1.32393,-1.55136 -2.10742,-2.36719 -2.412346,-2.50856 -5.030993,-5.06229 -7.042966,-8.00781 -6.422106,-8.94549 -10.383411,-19.66208 -11.205078,-30.64258 -0.309764,-5.63552 1.755861,-10.99549 3.345703,-16.30078 0.710007,-2.54321 1.430672,-5.16581 1.302735,-7.82617 -0.499987,-2.19008 -2.383041,-3.724466 -3.083985,-5.839846 -0.93395,-2.28092 -0.167343,-4.889573 1.34961,-6.728515 1.984176,-2.747983 5.316928,-4.43352 8.71289,-4.376953 1.453933,-0.002 2.901506,0.228487 4.300782,0.615234 C 95.0404,82.910469 91.795179,77.740042 90.710938,72 c -0.621691,-3.058741 -1.130496,-6.409909 0.173828,-9.365234 1.165285,-2.586186 4.057533,-3.815893 6.738281,-4.076172 3.326173,-0.359164 6.665033,0.118419 9.978513,0.40039 0.7286,0.08412 1.45775,0.167958 2.18164,0.28711 -2.44871,-1.101544 -4.58626,-2.797025 -6.30468,-4.84961 -4.127357,-4.895375 -6.982349,-10.818983 -8.507817,-17.019531 -1.118522,-4.793528 -1.399909,-10.073252 0.75,-14.630859 1.480795,-3.223854 4.371417,-5.64403 7.667967,-6.876953 3.84891,-1.570129 8.03814,-2.174705 12.17969,-2.128907 z m 23.49414,19.230469 c -3.4902,2.596728 -6.60204,6.026072 -7.76562,10.306641 -1.3113,4.649747 -0.44402,9.590322 0.25976,14.197265 0.50416,3.013149 0.85979,6.046409 1.23047,9.078125 -1.34194,-0.415444 -2.68309,-0.831786 -4.02539,-1.246093 1.92641,0.950975 3.77587,2.045547 5.62109,3.142578 v 3.21875 c -4.93966,3.108193 -10.10424,6.31563 -13.44336,11.232422 -2.34107,3.392076 -3.28035,7.564165 -3.20507,11.642578 l -0.0449,2.296875 c -1.20304,-0.431906 -2.40657,-0.864482 -3.60937,-1.296875 3.08131,2.590181 5.87986,5.494991 8.51758,8.529301 -3.06496,2.24154 -6.07044,4.61494 -8.51563,7.54101 -0.91437,1.05182 -1.67055,2.22136 -2.44531,3.375 0.79146,-1.19236 1.70401,-2.30863 2.75781,-3.31055 2.4168,-2.27739 5.44157,-3.9682 8.69531,-4.67968 1.43207,-0.23897 2.91719,-0.0192 4.25782,0.51953 -3.62527,-3.70798 -6.91543,-8.16102 -7.69141,-13.412111 -0.63258,-4.208163 0.67986,-8.602488 3.39453,-11.865235 2.46331,-3.008797 5.64102,-5.35484 8.92774,-7.394531 2.57079,-1.48881 5.45119,-2.874849 8.5039,-2.619141 -3.88937,-3.626605 -5.93222,-8.755818 -7.00976,-13.859374 -1.23273,-6.147138 -1.1898,-12.717028 1.08593,-18.625 0.99831,-2.539595 2.48407,-4.917354 4.50391,-6.771485 z m 117.25391,93.248047 -0.0332,0.0234 c -2.55742,1.62453 -5.28622,3.25266 -6.89258,5.91601 -1.05929,1.60283 -1.91243,3.34737 -2.48632,5.18164 1.03574,-2.96005 2.7031,-5.72967 5.09765,-7.79101 1.35263,-1.21604 2.843,-2.26495 4.31446,-3.33008 z m 33.04101,7.11328 -0.0312,0.0918 -0.0137,0.041 c -0.67062,2.20152 -0.75542,4.52677 -0.6582,6.81055 0.18469,-2.31934 0.3837,-4.63793 0.70312,-6.94336 z m 113.06446,23.02344 c 6.63727,0.0531 13.25486,0.74446 19.79296,1.86523 3.05547,0.39068 6.43937,0.53329 8.90625,2.61328 1.55464,1.36026 2.34372,3.3521 3.10352,5.22071 1.80828,4.76615 1.39182,10.23314 -0.89258,14.76562 -3.09012,6.24352 -8.8029,10.92287 -15.16211,13.60157 -4.019,1.66449 -8.43246,2.55718 -12.78515,2.07421 0.17042,1.6323 0.38214,3.15538 0.63671,4.81446 0.76235,5.12947 1.77065,10.44185 0.48829,15.57422 -0.88071,3.77015 -3.47869,7.03755 -6.88282,8.86523 -3.91633,2.18619 -8.52799,3.03765 -12.97461,2.48047 0.94369,4.65532 1.21936,9.50698 0.18164,14.17187 -1.4454,6.99498 -5.72101,13.18588 -11.27343,17.59766 -7.37166,5.87548 -16.55531,9.14701 -25.83203,10.42383 -4.53153,0.65462 -9.18521,0.7175 -13.66993,-0.29688 -7.54575,-1.59967 -14.20643,-5.67832 -20.75,-9.57031 -4.01653,-2.41434 -8.13123,-4.6748 -12.42968,-6.55273 -12.77006,-5.82328 -25.84026,-10.94983 -38.79493,-16.33789 -5.28928,-2.0152 -11.14546,-2.72319 -15.94726,-5.89258 -0.90962,-0.64925 -1.82058,-1.29641 -2.73047,-1.94532 1.48989,-1.03004 2.91462,-2.16228 4.48437,-3.07226 -2.38077,0.75509 -4.76212,1.50946 -7.14257,2.26562 1.15543,-3.36794 2.1289,-6.86401 4.1582,-9.84179 2.24966,-3.4917 5.39884,-6.34379 8.91797,-8.52539 -1.56216,0.5974 -3.12504,1.19444 -4.6875,1.79101 0.54276,-2.81586 0.8249,-5.76489 2.28711,-8.29883 2.61688,-4.78457 7.26277,-8.01627 11.96289,-10.55078 7.14807,-3.79202 14.93857,-6.10782 22.39258,-9.19531 25.59374,-10.08642 51.95543,-18.39832 78.98828,-23.64648 7.82357,-1.50778 15.6841,-2.8543 23.5957,-3.81055 4.00213,-0.44259 8.03284,-0.61459 12.0586,-0.58789 z m -117.67774,4.61719 -0.47461,0.69336 c -2.94152,4.10763 -7.01603,7.45663 -11.75195,9.2832 5.27463,-1.32408 9.89813,-5.05844 12.22656,-9.97656 z m 150.73633,0.72656 c 0.92651,0.24491 1.85476,0.48947 2.78125,0.73437 7.16892,1.83581 13.79446,5.4695 19.58203,10.0293 5.42502,4.3544 10.2832,9.77266 12.72656,16.37305 1.32684,3.76592 2.02932,8.03858 0.53907,11.86523 -1.71601,4.48604 -5.73507,7.61316 -9.93165,9.67188 -5.9416,2.83895 -12.56346,4.19314 -19.13867,4.16601 -2.70106,-0.0555 -5.45509,-0.36 -7.93945,-1.48828 3.06121,2.93606 5.98547,6.34509 7.06836,10.53711 0.81377,3.02906 -0.003,6.42374 -2.17774,8.70117 -2.22744,2.49594 -5.37161,3.84655 -8.41992,5.05274 -2.42243,1.12123 -4.96833,2.34835 -7.71679,2.11132 -1.4631,-0.0606 -2.90937,-0.33399 -4.32422,-0.70117 2.66556,2.13774 4.62509,5.41227 4.41992,8.91016 -0.16568,2.70399 -1.12148,5.69118 -3.55274,7.18359 -2.09957,1.33776 -4.69051,0.87797 -6.99414,1.49024 -1.41951,0.50797 -2.31402,1.82625 -3.34179,2.85547 -4.15898,4.75995 -7.13534,10.55412 -12.08399,14.61132 -2.92399,2.42162 -6.35044,4.1451 -9.76562,5.76172 -7.0727,3.20927 -14.81708,5.10087 -22.60742,5.03321 -4.79911,-0.0859 -9.59722,-0.99442 -14.39649,-0.44336 0.73324,3.68649 0.17155,7.48556 0.84961,11.18164 1.42511,11.58106 1.34733,23.3709 -0.45508,34.90625 -1.43371,8.84477 -3.91779,17.67873 -8.61523,25.38281 -2.08101,3.30472 -4.64716,6.63221 -8.36914,8.16211 -1.90775,0.79335 -4.08905,0.80979 -6.02344,0.0957 3.18269,2.336 5.91505,5.49408 7.01563,9.34571 1.55545,5.03821 0.30227,10.61639 -2.60157,14.92578 -3.77443,5.68331 -10.24888,9.78779 -17.17773,9.89648 -4.07044,0.0671 -7.92359,-1.57233 -11.47852,-3.39453 -7.68382,-4.14788 -13.94436,-10.43501 -19.50195,-17.06836 -6.92996,-8.32399 -12.695,-17.51148 -18.72852,-26.48047 -2.5075,-3.84479 -4.74676,-7.95094 -5.78711,-12.45508 -0.23893,-0.87232 -0.47787,-1.74486 -0.71679,-2.61718 5.51509,2.05079 11.13949,4.32115 17.11523,4.3789 5.59104,0.13408 10.9256,-2.06884 15.63672,-4.90234 1.00776,-0.60045 1.99906,-1.22811 3,-1.83984 2.19454,2.88101 4.37008,5.77593 6.62109,8.61328 -0.57704,-1.03975 -1.14893,-2.0806 -1.72461,-3.1211 3.18701,-0.006 6.37043,0.18597 9.55665,0.13672 3.05385,-0.0952 5.91763,-1.37637 8.57226,-2.78711 4.62827,-2.58566 8.14795,-6.87313 10.18359,-11.72656 3.00737,-7.11737 3.562,-14.98246 3.3711,-22.62305 -0.2301,-7.61971 -1.30915,-15.19227 -2.6582,-22.77539 -0.51937,-2.90603 -1.10124,-5.92354 -1.6504,-8.87109 4.26057,0.41881 8.48074,1.14403 12.70899,1.79687 3.84493,0.58517 7.77516,0.72947 11.62305,0.0859 10.40457,-1.47746 20.61999,-5.83395 28.08789,-13.3457 5.58618,-5.57056 9.29546,-12.98046 10.3164,-20.80274 0.36792,-2.49899 0.37865,-5.02869 0.39453,-7.54883 3.84137,0.0252 7.67529,0.39622 11.44727,1.12305 -0.56185,-0.1856 -1.12218,-0.37364 -1.68359,-0.56055 v -3.48437 c 2.8204,-1.73978 5.48602,-3.92187 7.08007,-6.88086 2.45355,-4.43249 2.49339,-9.68668 2.15235,-14.60742 -0.16704,-2.4916 -0.46299,-4.97185 -0.70313,-7.45703 2.88026,0.70742 5.76,1.47326 8.45899,2.72656 0.85399,0.41145 -0.14632,-0.15937 -0.48438,-0.38867 -0.74095,-0.47103 -1.48171,-0.94302 -2.22265,-1.41406 1.89696,-1.60516 3.77244,-3.28345 6.04297,-4.35352 2.8331,-1.44142 5.87128,-2.61748 8.23242,-4.81641 3.55667,-2.94085 6.39754,-6.891 7.42187,-11.4375 0.73316,-3.00158 0.8044,-6.25897 0.66992,-9.24218 -0.126,-2.74544 -0.44931,-5.47559 -0.70312,-8.21094 z m -184.27735,7.50781 h 1.56446 3.19336 c 0.56666,1.19602 1.25328,2.36364 1.74414,3.57813 v 2.91211 c -2.88925,0.72009 -5.77875,1.44188 -8.66797,2.16211 0.72146,-2.88421 1.44471,-5.76812 2.16601,-8.65235 z m -10.58593,1.05664 c 3.1364,-0.0447 5.78903,2.69107 6.11523,5.72071 0.41831,2.57452 -1.03822,5.32116 -3.47851,6.31054 -2.32,1.09947 -5.31485,0.66946 -7.07227,-1.2539 -2.29123,-2.30019 -2.65045,-6.45627 -0.29687,-8.83985 1.20925,-1.26556 2.99503,-1.93663 4.73242,-1.9375 z m 18.5332,8.79883 c 3.02273,-0.0528 5.58305,2.55383 5.94727,5.46484 0.47053,2.62207 -0.99799,5.45667 -3.4961,6.46289 -2.20188,1.05322 -5.054,0.71089 -6.76758,-1.08789 -2.42476,-2.33519 -2.69202,-6.69605 -0.17968,-9.06836 1.18838,-1.14562 2.85189,-1.76865 4.49609,-1.77148 z m -126.97461,1.07422 c 4.20563,0.19604 7.9259,2.38517 11.8711,3.60547 10.84146,3.83258 20.24101,10.60826 30.24414,16.10547 6.5491,3.66977 14.00283,5.7768 19.89843,10.56445 2.36099,1.84057 3.9884,4.37686 5.80664,6.70898 0.0221,0.024 1.02443,0.0782 1.38477,0.14844 2.52489,0.31377 5.32781,1.32858 6.50781,3.75977 1.22781,2.51345 0.29988,5.42246 -0.93555,7.74414 -2.50915,4.56733 -6.1659,8.37269 -9.88867,11.9707 -6.62949,6.30151 -14.40809,11.28656 -22.52148,15.46094 -9.23038,4.74367 -19.02878,8.26362 -28.91797,11.36328 -5.89846,1.92485 -11.86446,4.18165 -18.15234,4.22266 -6.43348,-0.13129 -12.54817,-2.98448 -17.52149,-6.92969 -3.69143,-3.03061 -7.05471,-6.78537 -8.51562,-11.41406 -1.04524,-3.28566 -1.4015,-7.1401 0.46484,-10.20704 0.67909,-1.10374 1.67097,-1.98738 2.79297,-2.62695 -4.0269,0.81651 -8.476637,0.68779 -12.066407,-1.51172 -3.989745,-2.24885 -6.76742,-6.33819 -7.652344,-10.79883 -1.32168,-6.41849 0.421563,-13.14389 3.703125,-18.71093 4.145415,-7.0731 10.666892,-12.37301 17.513676,-16.70703 4.22125,-2.69845 8.67922,-4.99441 13.04492,-7.44336 3.56348,-2.05848 7.08932,-4.51368 11.23047,-5.21094 0.56572,-0.0866 1.13788,-0.10453 1.70898,-0.0937 z m 117.11328,3.31055 c 0.17141,0.62847 0.34227,1.25824 0.51367,1.88671 1.20881,4.42407 2.41765,8.84755 3.62696,13.27149 h -4.73242 c -2.61561,-4.35063 -5.231,-8.70158 -7.84571,-13.05274 2.8125,-0.70216 5.62433,-1.40597 8.4375,-2.10546 z m -14.42968,0.86132 c 0.63337,0.21119 1.26505,0.42163 1.89843,0.63282 1.43557,0.47726 2.87263,0.95561 4.3086,1.43164 v 3.97851 c -2.98865,0.74491 -5.97819,1.49126 -8.9668,2.23633 0.91834,-2.76043 1.83888,-5.51971 2.75977,-8.2793 z m 138.875,4.47852 c -1.72853,-0.0218 -3.45701,-0.0179 -5.18555,0.004 -8.16137,0.12817 -16.30495,0.81747 -24.39453,1.88671 -13.97078,1.84914 -27.92932,4.82467 -41.79492,7.63672 -4.06784,0.8333 -8.13974,1.64217 -12.19922,2.51563 23.05152,-4.08425 45.93366,-10.18732 69.44336,-11.44922 7.68314,-0.4068 15.40344,-0.31433 23.05859,0.48828 -2.9049,-0.80072 -5.91928,-1.11386 -8.92773,-1.08203 z m -131.48633,6.51953 c 0.31287,-0.0799 0.57353,-0.0905 0.58593,0.22461 0.06,0.62027 0.11964,1.24107 0.17969,1.86133 0.95617,8.74703 -0.0855,17.81656 -3.76758,25.86328 -1.80992,3.88387 -4.0227,7.63971 -6.94336,10.79883 -1.93441,2.07333 -4.67178,3.87663 -7.63671,3.41992 -3.50932,-0.598 -6.19223,-3.77776 -6.78125,-7.19922 -0.73649,-4.1859 0.71121,-8.35302 2.21484,-12.20508 2.46758,-6.13918 5.7033,-12.11471 10.4082,-16.84179 2.93307,-2.9202 6.6675,-5.21203 10.83789,-5.73047 0.22314,0.038 0.58948,-0.11147 0.90235,-0.19141 z m 61.03906,20.50195 c -3.82872,0.0234 -7.68954,0.23647 -11.54492,0.71094 -2.66093,0.31532 -5.29436,0.70736 -7.97657,1.1875 -1.94315,0.35354 -3.72727,0.6948 -5.66406,1.12695 15.50194,-2.97213 31.4119,-3.06764 47.10547,-1.79296 -3.15093,-0.29284 -6.29889,-0.62125 -9.45703,-0.82618 -1.92828,-0.12105 -4.05361,-0.23664 -6.06055,-0.30468 -2.13318,-0.073 -4.26785,-0.1136 -6.40234,-0.10157 z m 21.91992,1.23243 c 0.70543,0.0656 1.41199,0.1175 2.11719,0.18554 -0.31344,-0.0292 -0.62397,-0.0852 -0.9375,-0.11328 -0.39205,-0.0336 -0.78735,-0.0404 -1.17969,-0.0723 z m 2.11719,0.18554 c 10.5591,0.98275 21.06958,2.54643 31.43359,4.79102 7.91135,1.78578 15.6684,4.28887 23.70703,5.48437 -3.8869,-0.92779 -7.73236,-2.02708 -11.64843,-2.83398 -7.2536,-1.63273 -14.59602,-3.46528 -21.83203,-4.80664 -5.76282,-1.12244 -11.60842,-1.70807 -17.44727,-2.26758 -1.40256,-0.14102 -2.8097,-0.23181 -4.21289,-0.36719 z m -132.38086,-0.043 c -0.18038,-0.004 -0.69014,0.01 -0.98242,0.0117 v -0.002 c -1.99156,0.0452 -3.91376,0.1199 -5.84766,0.23437 -3.8677,0.22806 -7.5823,0.5845 -11.44922,1.07227 -3.86963,0.49265 -7.81891,1.11586 -11.71484,1.85547 -11.58336,2.19689 -23.14243,5.374 -34.23242,9.57617 -2.18428,0.80185 -4.55443,1.795 -6.66016,2.84766 16.15768,-6.22613 33.16448,-9.89903 50.23047,-12.60547 6.87255,-1.08188 13.75585,-2.10299 20.65625,-2.99024 z m 45.95508,16.41797 c 0.4185,0.0321 0.83737,0.0636 1.25586,0.0957 3.99863,0.15553 7.91156,1.83019 10.71484,4.69335 0.86855,0.85698 1.65256,1.79573 2.37305,2.7793 -0.70234,-1.35866 -1.40797,-2.71609 -2.11133,-4.07422 3.22327,0.44093 6.49352,0.76098 9.58008,1.85352 6.79437,2.2576 12.88174,6.14483 19.53711,8.74023 9.18313,3.77021 18.8324,6.82903 27.60156,11.66602 4.41453,2.41131 9.06334,4.67226 12.62891,8.30469 1.36343,1.35922 2.27743,3.08592 2.80859,4.92382 2.97892,8.96374 4.30898,18.43556 4.3418,27.86524 -0.0443,7.6997 -0.93124,15.54031 -3.89258,22.70898 -2.54769,5.76078 -7.13315,10.8195 -13.0625,13.17578 -5.04524,2.02126 -11.23578,1.38923 -15.44922,-2.1621 -2.22901,-1.82343 -3.88975,-4.43166 -5.06836,-6.91211 0.13287,2.49681 -0.41076,5.19721 -2.26563,7.0039 -2.99759,3.36067 -7.47528,5.2102 -11.95507,5.2461 -6.05425,0.0939 -11.90401,-2.24788 -16.91407,-5.50196 -4.42263,-2.95984 -8.51764,-6.73406 -10.86914,-11.57812 -6.06467,-12.86754 -10.96638,-26.36628 -13.59179,-40.3711 -1.87758,-10.19222 -2.49567,-20.78421 -0.28125,-30.97656 0.90401,-4.38266 2.12749,-8.6902 3.15234,-13.04492 0.21705,-0.92644 0.47293,-2.1192 0.69336,-3.15039 0.22414,-0.47356 -0.0168,-1.5685 0.77344,-1.28516 z m -23.7461,6.66797 c 3.00586,-0.0997 5.91406,2.04295 6.6211,4.97852 0.89819,3.50273 -0.10314,7.12897 -1.15235,10.48242 -1.09662,3.27451 -2.42554,6.46651 -3.49804,9.75 -4.06143,11.35035 -9.42789,22.37683 -17.01953,31.8125 -4.4545,5.53212 -9.77654,10.4093 -15.90235,14.04297 -0.67722,0.42575 -1.35404,0.85159 -2.03125,1.27734 0.0183,-4.84679 0.0817,-9.70584 0.72656,-14.51758 2.03643,-16.11869 8.27682,-31.68892 17.95508,-44.75195 0.42281,-0.62049 1.00752,-1.47984 1.49024,-2.19336 2.38036,-3.44023 4.82731,-7.01748 8.35937,-9.38086 1.32603,-0.85747 2.85588,-1.46806 4.45117,-1.5 z m 60.89063,44.08008 c 0.21728,0.50126 0.43311,1.00266 0.65039,1.50391 3.12561,7.26129 5.76387,14.72822 7.92773,22.33007 0.2413,0.77078 0.51758,1.53004 0.79883,2.28711 -1.98258,-8.06426 -4.8362,-15.89625 -8.18945,-23.48828 -0.35563,-0.79317 -0.78641,-1.77174 -1.1875,-2.63281 z"
       transform="translate(-17.721779,-6.062714)" />
  </g>
</svg>
