<svg version="1.1" id="Layer_1" xmlns="http://www.w3.org/2000/svg" xmlns:xlink="http://www.w3.org/1999/xlink" x="0px" y="0px"
	 width="100%" viewBox="0 0 478 409" enable-background="new 0 0 478 409" xml:space="preserve">
<path fill="#FFFFFF" opacity="1.000000" stroke="none" 
	d="
M478.613831,200.934677 
	C479.000000,269.316345 478.970886,337.632751 479.088623,405.948883 
	C479.094330,409.259705 478.581757,410.103546 475.052917,410.100922 
	C318.425262,409.984192 161.797546,409.980774 5.169939,410.113464 
	C1.343211,410.116730 0.919197,409.056274 0.921536,405.671906 
	C1.013795,272.205170 1.016951,138.738342 0.907843,5.271624 
	C0.904945,1.727626 1.558760,0.895604 5.226415,0.898374 
	C161.687408,1.016552 318.148529,1.019383 474.609497,0.890433 
	C478.601105,0.887143 479.089844,2.059440 479.082977,5.607510 
	C478.966949,65.425735 479.000000,125.244240 479.000000,185.531342 
	C476.794830,186.229889 476.404449,184.282852 475.477936,183.020798 
	C468.471497,173.477310 460.174042,165.241898 449.164490,160.642868 
	C437.787292,155.890244 425.819611,153.072754 413.409698,152.288071 
	C385.259979,150.508133 358.198792,156.222198 331.474854,164.103897 
	C312.130493,169.809128 293.364044,177.143143 274.823730,185.056381 
	C273.443085,185.645645 272.049530,186.191650 270.583710,186.541824 
	C268.250031,187.099304 266.594757,186.430634 266.122986,183.926880 
	C265.582642,181.059113 264.235535,178.710159 262.355377,176.468689 
	C259.958160,173.610809 260.467041,172.015778 263.943878,170.379791 
	C265.133148,169.820206 266.359192,169.173813 267.701691,169.085754 
	C279.906464,168.285217 288.032928,155.079803 288.035248,143.945572 
	C288.036133,139.816620 287.611053,135.656052 288.372528,131.551590 
	C287.647400,135.492645 288.141479,139.489243 287.991455,143.456573 
	C287.690704,151.409592 285.289368,158.436172 279.130737,163.858749 
	C276.733673,165.969315 274.247864,167.778214 270.967987,168.334198 
	C269.845551,168.524475 268.730896,168.879517 267.577393,169.058258 
	C263.748840,169.651566 260.054901,174.016342 256.122986,168.516876 
	C253.799500,165.267044 250.065216,163.376999 248.155807,159.272873 
	C244.729218,151.907684 243.495407,144.660812 244.968796,136.680450 
	C246.120972,130.439896 249.869186,126.248970 254.587387,122.682350 
	C256.318726,121.373566 257.977020,120.020546 259.532654,118.521729 
	C258.126587,119.620354 257.049988,121.073158 255.464355,122.001205 
	C243.154648,129.205841 241.837570,145.514740 246.916519,156.322739 
	C247.980438,158.586777 249.146698,160.824448 249.640656,163.268219 
	C250.358765,166.821030 248.454422,168.834015 244.902603,168.026810 
	C239.743637,166.854385 235.172562,166.931244 231.026367,170.971146 
	C228.186798,173.737930 226.506058,171.180878 225.599350,168.693375 
	C224.003677,164.315872 222.933334,159.761856 221.754074,155.256836 
	C213.924805,125.347191 203.065399,96.590889 189.052536,69.034500 
	C182.377823,55.908653 174.039688,43.872749 164.353897,32.812935 
	C159.741272,27.545948 154.386459,23.164623 147.973343,19.955423 
	C143.315903,17.624786 140.143402,13.062742 134.844818,11.207911 
	C124.971146,7.751526 115.022842,5.385341 104.537254,6.379817 
	C94.387230,7.342466 86.070999,14.236815 88.081802,27.293949 
	C88.956970,32.976849 91.268799,38.135654 93.335373,43.389519 
	C94.843979,47.224865 94.670593,49.968079 90.170898,51.656799 
	C85.810242,53.293331 84.009186,56.768780 84.236343,61.559818 
	C84.441467,65.886139 84.161018,70.251007 85.742065,74.375374 
	C86.818810,77.184227 86.034889,79.164917 83.670990,80.824982 
	C78.267563,84.619576 77.167046,89.828506 79.109505,95.822601 
	C80.406639,99.825340 79.821953,103.709702 78.916649,107.627930 
	C75.052864,124.350761 77.076927,139.834442 87.458290,154.097107 
	C94.848152,164.249847 94.383705,165.267441 84.327858,172.858368 
	C72.488266,181.795792 60.842075,190.900757 52.024448,203.092117 
	C47.265709,209.671616 43.213776,216.425339 43.210011,224.898651 
	C43.208435,228.443588 40.780510,230.108780 37.900936,231.440048 
	C24.627462,237.576630 19.773506,250.367416 25.537569,263.881714 
	C27.521959,268.534271 31.600422,270.842438 35.824757,272.874695 
	C43.593407,276.612061 51.963669,278.491058 60.458015,278.550171 
	C74.256477,278.646240 88.102058,279.672363 101.867271,277.706024 
	C102.359947,277.635620 102.871666,277.693298 103.363029,277.614838 
	C132.062500,273.034027 160.126755,266.579346 184.752563,249.992645 
	C187.729294,247.987656 190.787247,246.914474 193.837234,249.775940 
	C197.073776,252.812454 196.091812,255.992416 194.041840,259.227295 
	C184.722458,273.933411 180.632980,290.254272 179.407196,307.410004 
	C179.264816,309.402985 178.337830,312.067291 180.840271,313.259308 
	C183.134644,314.352173 185.315079,313.231659 187.349030,311.859344 
	C198.320709,304.456726 205.220627,293.653503 211.698456,282.559174 
	C215.397171,276.224487 218.337799,269.496460 220.348389,262.400909 
	C220.756760,260.959686 221.226624,259.529541 221.836746,258.159912 
	C222.755646,256.097107 224.007767,254.220840 226.544861,254.314102 
	C229.308777,254.415741 230.463577,256.432312 231.155533,258.845001 
	C232.638092,264.014587 232.439621,269.396393 233.162125,274.664154 
	C236.271713,297.335999 242.866257,318.520294 254.802567,338.427155 
	C261.189056,349.078308 266.473450,360.437531 274.169403,370.301880 
	C281.128540,379.221863 288.172241,388.104645 297.288696,395.043060 
	C299.415497,396.661743 301.559845,398.224884 303.899414,399.510162 
	C312.774719,404.386047 320.974701,403.470917 328.961945,397.187347 
	C336.115875,391.559418 339.024567,384.668213 337.125610,375.726013 
	C336.179840,371.272552 336.778320,367.184326 340.067810,363.640015 
	C347.634674,355.487091 350.754974,345.278168 352.514191,334.683899 
	C354.423706,323.184875 355.210785,311.552368 354.700897,299.868866 
	C354.635559,298.371948 354.698364,296.870026 354.498077,295.378418 
	C353.484650,287.832428 354.453217,286.726959 362.323669,286.706940 
	C371.549866,286.683472 380.467682,285.547363 389.043396,281.642670 
	C398.110260,277.514313 405.458862,271.556366 411.086365,263.439575 
	C413.182739,260.415863 415.755432,258.438812 419.382446,257.522614 
	C424.763428,256.163330 427.454651,252.205704 427.563293,246.908615 
	C427.669525,241.728745 430.092773,238.890488 434.817780,237.502716 
	C435.925110,237.177460 436.926270,236.435898 438.046722,236.174698 
	C446.292542,234.252441 448.039825,227.377838 447.401611,220.738342 
	C447.005280,216.615204 448.197479,214.673401 452.020203,214.182770 
	C462.352966,212.856552 470.826233,207.933182 478.613831,200.934677 
z"/>
<path fill="#1D1D1D" opacity="1.000000" stroke="none" 
	d="
M479.000000,200.533875 
	C471.121094,211.204269 459.873779,214.563614 447.584534,216.267059 
	C448.720093,219.457520 449.195587,222.504257 448.737305,225.874924 
	C447.600983,234.233078 441.436005,236.919220 434.723755,238.940628 
	C430.734100,240.142105 428.848083,242.006012 428.863983,246.542557 
	C428.889679,253.859726 424.906586,258.182404 418.627319,258.960663 
	C414.173340,259.512665 412.639099,263.350403 410.518311,266.168243 
	C401.288879,278.431122 389.081848,284.966217 374.017242,287.147949 
	C369.047394,287.867706 364.151093,288.042908 359.227997,287.916107 
	C355.392181,287.817261 354.569794,289.649750 355.032684,292.818756 
	C356.854218,305.289917 355.869324,317.608826 354.261139,330.079529 
	C353.061127,339.385071 350.929199,348.156677 346.804291,356.473541 
	C345.447662,359.208801 343.945312,362.014008 341.482788,363.953674 
	C337.856842,366.809723 337.096954,370.844116 338.140289,374.661591 
	C341.696136,387.672302 335.109863,395.488770 324.957977,401.423798 
	C316.335480,406.464722 308.115387,404.030701 300.433075,398.894592 
	C287.001770,389.914825 277.480316,377.174103 268.177551,364.366241 
	C262.619934,356.714600 258.801941,347.948944 254.311401,339.656799 
	C249.322174,330.443787 244.361374,321.269653 240.293442,311.628815 
	C236.389679,302.377106 234.902191,292.451080 233.086838,282.669922 
	C231.663315,275.000092 230.885574,267.200867 230.073990,259.432739 
	C229.829803,257.095703 228.843964,255.431519 226.817108,255.135834 
	C224.547318,254.804733 223.576508,256.621643 222.942215,258.754669 
	C219.760956,269.452942 215.628708,279.787170 209.371307,289.073700 
	C203.112442,298.362305 196.866776,307.698700 186.927322,313.765442 
	C184.313217,315.361023 181.806747,315.363678 179.425858,314.589844 
	C176.991852,313.798767 177.947525,311.103973 178.056030,309.267853 
	C179.137436,290.968597 183.029541,273.498016 193.477509,257.991699 
	C195.099503,255.584412 195.956177,253.237259 193.238632,250.567215 
	C190.663635,248.037216 188.351105,248.951767 186.194870,250.395599 
	C170.268799,261.060028 152.817001,268.211212 134.413513,273.223785 
	C132.088974,273.856934 129.656494,275.111359 127.417168,274.850250 
	C120.499367,274.043610 114.256233,276.606262 107.783630,278.019104 
	C99.862907,279.748047 91.855515,280.199707 83.781532,280.002838 
	C73.028198,279.740570 62.222427,280.798676 51.533363,278.969543 
	C43.401535,277.578003 35.366589,275.475098 28.851032,270.200775 
	C21.899086,264.573212 21.431242,256.480713 22.268270,248.333069 
	C23.243736,238.837860 28.540833,232.823608 37.646362,229.991058 
	C39.705875,229.350388 42.190472,228.893890 42.029350,225.655014 
	C41.466743,214.345215 47.918526,206.191116 54.451992,197.995514 
	C63.626171,186.487396 75.542404,178.210983 86.994438,169.295242 
	C92.881416,164.712036 92.700996,164.498230 88.844467,158.262329 
	C84.137337,150.651001 78.225517,143.684418 76.901489,134.258011 
	C75.658073,125.405464 75.208961,116.675980 77.534439,107.963333 
	C78.624672,103.878632 79.081718,99.813614 77.966293,95.628151 
	C75.780930,87.427933 76.974602,83.648399 83.646317,79.117233 
	C85.079468,78.143883 85.996979,77.964470 85.053497,76.063347 
	C82.160110,70.233154 82.881218,63.907547 83.097809,57.748947 
	C83.249321,53.440926 86.796852,51.121731 90.337387,50.162273 
	C94.135376,49.133057 93.323746,47.497009 92.492683,44.917789 
	C90.572868,38.959534 87.728691,33.395996 86.804062,26.986614 
	C85.284409,16.452528 91.589508,6.140622 102.308853,5.145866 
	C116.472816,3.831452 130.145660,6.242298 142.531479,13.878843 
	C161.918564,25.832071 175.910675,42.615597 186.864853,62.364742 
	C199.146835,84.507782 208.293610,107.946449 216.330673,131.839096 
	C220.063644,142.936478 222.922272,154.337082 225.881882,165.677307 
	C226.431015,167.781372 227.656265,169.470505 228.391403,172.318100 
	C233.174866,165.244553 239.515366,164.842087 246.586319,167.082611 
	C248.287872,167.621765 249.108383,165.588608 248.545288,163.027618 
	C247.476410,158.166382 244.287354,154.264648 243.706924,148.939926 
	C242.515869,138.013321 243.985550,128.688004 253.535583,121.989571 
	C256.214783,120.110359 259.028046,118.422905 260.411285,115.209656 
	C260.559723,114.864815 260.962463,113.828079 261.846863,114.451340 
	C262.531311,114.933693 262.764099,115.321693 262.304413,116.379395 
	C261.113464,119.119537 258.986603,121.281723 256.728638,122.548309 
	C244.324951,129.506027 243.269012,145.610764 248.276718,157.297836 
	C250.828308,163.252747 257.148834,164.975067 259.294495,170.592056 
	C259.375824,170.804962 260.279083,170.973892 260.576965,170.794388 
	C266.970367,166.941452 275.573364,167.872406 280.657806,160.985687 
	C285.312439,154.681091 287.295502,147.837601 287.036133,140.120789 
	C286.893616,135.880066 286.586243,131.576859 288.413147,127.476555 
	C289.413696,127.574135 290.211548,128.341919 289.934509,129.315933 
	C287.639954,137.381912 290.432495,145.939484 287.120880,153.994553 
	C283.516785,162.761002 277.911560,168.663071 268.238861,169.982300 
	C265.567261,170.346664 263.436279,171.735931 260.893402,173.386551 
	C264.481201,176.462723 267.249786,179.887253 267.661041,184.694382 
	C267.778076,186.062836 268.087250,186.167755 269.946564,185.439270 
	C278.757751,181.986923 287.514191,178.394241 296.336548,174.971237 
	C318.056274,166.544235 340.036774,158.963379 363.093506,155.006729 
	C374.186035,153.103180 385.268677,151.457245 396.572418,150.851181 
	C416.341949,149.791275 435.400146,152.510651 453.082550,161.222641 
	C463.841949,166.523712 472.674866,174.765335 478.653564,185.903946 
	C479.000000,190.689255 479.000000,195.378510 479.000000,200.533875 
z"/>
<path fill="#FFFFFF" opacity="1.000000" stroke="none" 
	d="
M229.987671,179.542023 
	C226.447495,180.169266 228.115158,183.054184 228.079453,184.782806 
	C227.891571,193.877258 227.536819,195.100510 222.434448,199.879837 
	C218.622696,195.729340 217.856613,190.284576 216.003357,185.303925 
	C210.382095,170.196732 202.466812,156.214005 194.650604,142.182053 
	C185.704483,126.121574 177.290070,109.745201 167.808472,94.009941 
	C161.913879,84.227516 153.465897,76.393463 143.657166,70.295235 
	C140.963959,68.620842 138.569443,66.390205 135.162231,65.937675 
	C131.412460,65.439644 131.870071,61.645260 131.160828,59.385071 
	C129.402100,53.780453 127.835144,48.047390 128.455231,41.940899 
	C129.268539,33.931458 134.577194,29.355059 140.496078,25.165535 
	C147.909195,19.918358 148.752991,20.222996 156.015366,26.443914 
	C168.151230,36.839466 176.940033,49.810341 184.768738,63.462166 
	C197.272217,85.265877 206.326096,108.588272 214.068893,132.432663 
	C217.836929,144.036621 221.224625,155.748947 224.144882,167.611893 
	C225.154129,171.711761 227.873245,175.390732 229.987671,179.542023 
z"/>
<path fill="#FFFFFF" opacity="1.000000" stroke="none" 
	d="
M349.534119,270.734253 
	C336.081909,271.253693 324.448151,268.047058 314.216248,259.205719 
	C307.617798,253.504028 298.446014,252.145981 290.625153,248.363419 
	C281.255219,243.831665 271.554779,239.966171 261.907654,236.032425 
	C257.486176,234.229523 252.494614,234.028107 248.261261,231.632156 
	C247.083572,230.965637 244.743179,230.742874 245.238968,229.004410 
	C245.584579,227.792557 247.402527,226.573868 248.800476,226.158768 
	C257.247772,223.650513 265.656097,220.797562 274.287659,219.185120 
	C282.408356,217.668091 290.531677,215.470291 298.956665,215.993591 
	C323.333405,217.507736 347.870422,217.418655 371.598114,224.741486 
	C376.610504,226.288406 381.860535,227.226212 386.874847,228.956665 
	C389.394806,229.826324 390.335846,231.254150 390.049011,233.984268 
	C388.883362,245.078018 383.949921,254.015503 375.255768,260.965057 
	C367.834229,266.897369 359.195526,269.512726 349.534119,270.734253 
z"/>
<path fill="#FFFFFF" opacity="1.000000" stroke="none" 
	d="
M143.240311,120.734924 
	C150.549179,126.549011 156.995834,132.819946 162.872223,139.531174 
	C176.632416,155.246231 190.977539,170.644821 199.514587,190.117828 
	C203.279800,198.706268 207.373642,207.264969 208.521866,216.971420 
	C202.872910,215.081573 198.585297,211.495316 194.014725,208.135208 
	C184.146057,200.880173 172.528107,196.562180 162.143829,190.083359 
	C151.327530,183.334961 139.608032,178.488464 127.306503,175.097473 
	C123.682114,174.098404 122.277206,170.507736 120.051361,168.182053 
	C109.515831,157.173950 101.687569,144.745972 102.938255,128.416626 
	C103.790291,117.292061 109.805069,109.426659 117.854973,102.585594 
	C119.224854,101.421432 119.759407,102.668808 120.735474,103.194633 
	C129.126633,107.715080 135.506653,114.802162 143.240311,120.734924 
z"/>
<path fill="#FFFFFF" opacity="1.000000" stroke="none" 
	d="
M358.082428,157.999222 
	C371.016113,155.763382 383.487946,153.700409 396.216522,152.774643 
	C408.596588,151.874207 420.457306,153.836365 432.425873,155.995560 
	C434.649200,156.396652 436.742279,157.613708 436.786621,159.778946 
	C436.929260,166.743530 439.264771,173.941071 434.863556,180.550644 
	C433.127258,183.158203 431.249359,185.370987 428.602814,187.217819 
	C424.722321,189.925766 420.378723,191.693665 416.358826,194.091080 
	C413.217834,195.964355 409.725739,195.423950 406.535828,193.816803 
	C389.816010,185.393173 372.164703,184.978989 353.981659,186.784286 
	C345.043213,187.671738 336.084503,188.109238 327.268951,189.990387 
	C313.866791,192.850266 300.554626,196.409775 287.010803,198.242386 
	C275.589966,199.787720 265.573029,204.961151 254.790588,208.043289 
	C251.029846,209.118286 247.845215,206.929916 248.009521,203.321030 
	C248.044434,202.554214 247.685806,201.602585 248.632477,201.123703 
	C253.393677,198.715256 256.078247,193.998245 261.433228,191.632202 
	C269.636902,188.007492 278.063019,184.912491 286.300446,181.399185 
	C307.438110,172.383835 329.184906,165.027740 351.443420,159.247040 
	C353.480804,158.717911 355.575928,158.411041 358.082428,157.999222 
z"/>
<path fill="#FFFFFF" opacity="1.000000" stroke="none" 
	d="
M92.011765,159.129028 
	C86.444351,150.480637 80.152191,142.635330 78.672707,132.291016 
	C77.570648,124.585663 77.304108,116.919533 79.366829,109.376892 
	C80.808907,104.103729 81.322121,99.084045 79.433426,93.717598 
	C77.521408,88.284882 81.085030,82.090408 86.318550,80.214554 
	C87.597343,79.756187 88.136459,80.686691 88.962883,81.014030 
	C97.929108,84.565536 104.905800,91.857231 114.522926,94.356209 
	C117.626213,95.162582 117.409821,99.302109 114.941971,102.625984 
	C112.499626,105.915482 108.426918,107.211372 106.254028,111.041847 
	C101.078293,120.165886 99.879364,129.901550 101.473389,139.845993 
	C103.549019,152.794998 110.910919,162.976440 120.306900,171.828339 
	C124.145615,175.444748 123.876633,176.547943 118.977776,178.998581 
	C107.051376,184.964676 95.139214,190.964325 86.213921,201.311005 
	C78.983833,209.692490 75.911369,219.229691 79.069344,230.136368 
	C79.810936,232.697617 81.331345,235.141953 82.929924,237.319687 
	C85.049767,240.207565 83.345329,240.736725 81.038155,240.980576 
	C74.904266,241.628937 68.955322,240.253418 63.193253,238.545227 
	C57.997459,237.004913 53.056385,234.596802 48.021004,232.527512 
	C45.414047,231.456161 43.974808,229.852646 43.900768,226.627411 
	C43.693996,217.620972 47.769623,210.506027 52.849396,203.591034 
	C63.131660,189.593964 76.764740,179.440170 90.775871,169.611984 
	C94.353775,167.102264 95.281807,163.340424 92.011765,159.129028 
z"/>
<path fill="#FFFFFF" opacity="1.000000" stroke="none" 
	d="
M365.154419,269.344513 
	C377.445129,264.065765 386.221832,255.936615 390.188599,243.276093 
	C391.049011,240.529984 391.355988,237.614517 392.017609,234.800491 
	C392.391724,233.209229 390.814087,230.586288 393.189240,230.185181 
	C395.761902,229.750732 398.201874,227.890488 401.409698,230.507339 
	C404.741486,233.225296 409.455017,234.260345 413.582336,235.988312 
	C416.098053,237.041565 418.692230,237.916168 421.171265,239.046234 
	C424.382690,240.510132 427.889587,241.540649 427.099884,246.569672 
	C426.342194,251.394730 424.088715,255.722946 419.703064,256.439117 
	C413.174652,257.505127 410.415405,262.279877 407.183014,266.509857 
	C399.042694,277.162445 387.865417,282.159668 375.307343,285.019501 
	C369.765778,286.281464 364.158936,285.927795 358.562103,286.009674 
	C353.909973,286.077667 352.198547,288.418243 353.027710,293.104950 
	C354.676086,302.422577 354.050079,311.707031 353.193726,321.103210 
	C352.363953,330.207703 350.850433,339.005951 348.201050,347.762848 
	C345.906464,355.347137 340.455658,360.701324 336.414490,367.048950 
	C335.575562,368.366699 334.689850,367.727783 333.500671,367.241638 
	C322.183533,362.615509 312.423676,355.811829 304.235535,346.745850 
	C303.023987,345.404388 301.638092,343.810364 302.155701,342.037506 
	C302.796936,339.841370 305.043640,340.979401 306.447021,341.074188 
	C315.420746,341.680389 325.480652,332.287384 328.940887,322.837921 
	C332.921844,311.966431 332.609863,300.855255 330.346405,289.641205 
	C329.285126,284.383240 328.735535,279.020081 328.009674,273.696960 
	C327.470367,269.741669 330.546692,270.908905 332.289032,271.086243 
	C336.142731,271.478577 339.929718,272.717926 343.779541,272.914917 
	C350.985321,273.283539 357.948669,271.487823 365.154419,269.344513 
z"/>
<path fill="#FFFFFF" opacity="1.000000" stroke="none" 
	d="
M119.025253,231.000153 
	C112.720558,233.554306 106.891075,236.275742 100.863693,238.448105 
	C98.915894,239.150116 97.207008,240.720612 94.698463,240.284271 
	C90.979454,239.637375 87.093300,240.148514 84.579979,236.161346 
	C80.796494,230.159134 78.756393,224.045258 80.567261,216.847504 
	C84.042511,203.034180 94.528442,195.746094 105.602135,188.653961 
	C111.878532,184.634232 119.278557,182.660141 124.918701,177.615417 
	C125.934715,176.706650 126.587456,177.527374 127.497444,177.736115 
	C140.024582,180.609940 151.334579,186.260818 162.276459,192.776566 
	C165.577072,194.742035 168.773834,196.907455 172.183945,198.658401 
	C180.328278,202.840134 189.078415,205.974228 195.529358,212.678787 
	C190.496048,216.165863 184.309402,216.206085 178.466751,216.867233 
	C167.978378,218.054047 157.658142,219.906143 147.371063,222.204086 
	C137.792877,224.343674 128.484482,227.222839 119.025253,231.000153 
z"/>
<path fill="#FFFFFF" opacity="1.000000" stroke="none" 
	d="
M270.713684,267.281158 
	C265.950806,258.830719 261.505188,250.631195 256.845367,242.555267 
	C255.704727,240.578445 255.131851,238.468277 254.269104,236.229019 
	C262.729309,237.415771 269.716400,242.233093 277.406219,245.167465 
	C287.009460,248.831985 296.379761,253.102432 305.898132,256.995148 
	C313.189270,259.976990 318.591492,265.749084 325.129364,269.854401 
	C327.646393,271.434937 326.332672,275.200043 326.601318,277.719482 
	C327.604340,287.125519 330.354736,296.354340 329.968170,305.885590 
	C329.477478,317.984314 325.969177,328.579163 315.484955,336.115448 
	C307.188721,342.079010 297.469299,339.359802 293.865448,329.826233 
	C289.475647,318.213654 287.341217,305.952637 283.125122,294.284576 
	C279.779602,285.025970 275.894958,276.077087 270.713684,267.281158 
z"/>
<path fill="#FFFFFF" opacity="1.000000" stroke="none" 
	d="
M293.182343,334.372864 
	C291.644745,334.373810 290.109039,334.517578 288.683411,335.769073 
	C283.165466,340.613007 277.145020,341.564453 270.033752,339.172363 
	C266.005920,337.817474 261.737946,336.497040 257.169678,336.867798 
	C254.114334,337.115784 253.190613,333.872894 252.054062,331.799896 
	C243.154144,315.567200 237.296936,298.372314 234.804947,279.905640 
	C233.805420,272.498688 233.814209,264.857361 231.766144,257.723389 
	C230.382935,252.905258 228.529541,248.505356 231.047653,243.764862 
	C233.224091,239.667618 235.760757,235.762985 238.058472,231.727829 
	C238.501892,230.949112 239.104843,231.116776 239.706253,231.002304 
	C242.873611,230.399368 251.577866,235.192795 252.588333,238.168015 
	C255.886978,247.880722 261.788818,256.201141 267.038727,264.836121 
	C279.667145,285.607208 285.370544,308.901947 292.030334,331.866516 
	C292.251495,332.629089 292.676514,333.332550 293.182343,334.372864 
z"/>
<path fill="#FFFFFF" opacity="1.000000" stroke="none" 
	d="
M143.324005,268.294098 
	C134.972504,271.272339 126.881645,273.525696 118.257225,273.053406 
	C116.529144,272.958832 115.645584,272.446106 114.387138,271.109222 
	C111.514618,268.057709 107.963531,265.648651 104.714195,262.947235 
	C99.368454,258.502899 96.359337,252.891357 95.951538,245.862259 
	C95.809937,243.421570 96.891747,242.259430 98.971352,241.507156 
	C114.779190,235.788788 129.814743,228.027008 146.522751,224.662170 
	C157.287369,222.494263 168.000137,220.290573 178.902771,218.840225 
	C184.726944,218.065430 190.977676,218.241028 196.209412,214.841125 
	C197.528854,213.983658 198.324371,214.697464 199.221115,215.063095 
	C200.856583,215.729950 202.392380,216.643204 203.963379,217.465820 
	C212.292892,221.827515 212.718597,227.577133 206.930374,234.890808 
	C202.015610,241.100815 194.760101,242.686325 188.736465,246.604172 
	C175.230667,255.388474 160.679337,262.143951 145.592026,267.752289 
	C144.992523,267.975159 144.305359,267.962219 143.324005,268.294098 
z"/>
<path fill="#FFFFFF" opacity="1.000000" stroke="none" 
	d="
M286.708069,200.999420 
	C296.123962,198.999451 305.093750,197.005249 314.060059,194.995636 
	C327.376740,192.010956 340.739960,189.817673 354.426270,188.725815 
	C369.809448,187.498611 384.734222,187.575195 399.305298,193.022202 
	C402.005066,194.031433 404.557983,195.437439 407.163666,196.691589 
	C407.844177,197.019104 408.623840,197.036499 409.002441,198.041580 
	C412.248077,206.657486 407.956085,220.422577 400.158203,225.255615 
	C395.921722,227.881332 391.795471,228.340576 386.461029,226.483643 
	C375.237152,222.576553 363.509644,220.057800 351.752747,218.038452 
	C337.120697,215.525269 322.245880,215.875778 307.538696,214.650192 
	C288.473724,213.061508 270.883179,217.559113 253.216034,223.070953 
	C250.423965,223.942032 248.195221,224.655411 245.613556,222.252426 
	C242.911636,219.737549 243.702164,217.084015 244.310394,214.352020 
	C244.688934,212.651672 245.474976,211.020325 246.249130,209.441895 
	C246.509598,208.910812 247.002640,207.691132 247.972366,208.568024 
	C253.194717,213.290466 257.907715,209.216125 262.670502,207.667557 
	C268.462799,205.784256 273.882172,202.886780 279.874969,201.452606 
	C282.056854,200.930450 284.145050,201.245651 286.708069,200.999420 
z"/>
<path fill="#FFFFFF" opacity="1.000000" stroke="none" 
	d="
M200.751007,157.350189 
	C205.289413,166.992569 209.774658,176.247986 213.872391,185.671921 
	C215.955780,190.463303 216.303284,195.859680 219.592026,200.341934 
	C221.373352,202.769684 216.652054,214.284531 213.860458,215.613007 
	C211.731186,216.626266 210.473770,215.737640 209.989441,213.429276 
	C206.916199,198.781570 200.610184,185.369888 192.836899,172.816818 
	C187.559662,164.294601 180.723129,156.711990 174.345291,148.904099 
	C167.005035,139.917984 158.799484,131.680801 150.228210,123.912140 
	C140.965042,115.516365 131.654266,107.077362 120.947533,100.441475 
	C117.569382,98.347725 115.209351,88.888794 116.576027,83.846230 
	C117.968567,78.708199 120.604805,74.935081 125.658371,72.694023 
	C128.458420,71.452301 129.823746,67.663498 133.662582,67.891876 
	C137.472580,68.118523 140.100708,70.665787 143.033600,72.562447 
	C156.869919,81.510193 165.888580,94.396278 173.463562,108.752693 
	C182.071152,125.066162 191.478073,140.957870 200.751007,157.350189 
z"/>
<path fill="#FFFFFF" opacity="1.000000" stroke="none" 
	d="
M23.999016,254.749603 
	C24.758123,239.963898 28.368902,235.286804 39.909023,231.485153 
	C41.354477,231.008987 42.160511,231.078506 43.442165,231.887375 
	C53.822941,238.438782 65.156326,242.166016 77.429939,243.007980 
	C83.116768,243.398102 88.605377,239.632965 94.467072,242.798798 
	C90.719543,258.617310 105.117859,264.599182 113.870651,274.179840 
	C106.509628,276.977661 99.745819,277.734833 92.999092,277.922119 
	C82.192749,278.222107 71.343857,278.487640 60.565437,277.862610 
	C50.277882,277.265991 40.288353,275.089752 31.347052,269.141266 
	C26.088898,265.643097 25.605453,260.271576 23.999016,254.749603 
z"/>
<path fill="#FFFFFF" opacity="1.000000" stroke="none" 
	d="
M293.265656,334.766449 
	C301.515350,347.242310 310.802704,358.681091 324.373169,365.817352 
	C325.645508,366.486450 326.909149,367.198120 328.244202,367.716522 
	C330.801758,368.709564 335.445282,369.258392 335.648102,370.552124 
	C336.632507,376.830566 338.897064,383.524902 334.762024,389.557251 
	C327.901093,399.566254 315.464478,406.850769 302.101410,397.163025 
	C292.027405,389.859741 283.820465,380.995758 276.234741,371.464752 
	C269.917847,363.527924 263.952454,355.241974 259.562836,345.992218 
	C258.606781,343.977631 257.805908,341.889435 256.880219,339.709442 
	C259.959747,337.920685 262.866425,339.174286 265.366058,340.192383 
	C275.666199,344.387695 284.869537,343.288605 293.178436,335.052185 
	C293.358154,334.682129 293.296600,334.738434 293.265656,334.766449 
z"/>
<path fill="#FFFFFF" opacity="1.000000" stroke="none" 
	d="
M441.180695,159.001312 
	C456.278778,162.977020 467.009979,172.203476 475.112793,184.682877 
	C478.474152,189.859787 478.373383,196.091827 475.655243,201.054947 
	C473.472565,205.040268 468.900635,208.001297 464.402191,209.742035 
	C458.683929,211.954834 452.727112,213.631729 446.761719,215.081223 
	C444.687073,215.585342 442.395569,213.758423 440.736542,212.712021 
	C432.977448,207.818161 425.587982,202.338318 417.676514,196.794678 
	C420.375732,194.513763 422.890686,193.048721 425.588928,191.768829 
	C433.610626,187.963730 438.369568,181.458496 439.898041,172.866776 
	C440.639771,168.697205 438.392700,164.500031 438.942200,160.156540 
	C439.131653,158.659103 439.260254,157.994965 441.180695,159.001312 
z"/>
<path fill="#FFFFFF" opacity="1.000000" stroke="none" 
	d="
M115.653870,6.998020 
	C122.833115,8.610262 129.520660,10.131245 136.009552,12.755116 
	C139.817535,14.294919 142.110916,16.960754 145.051590,19.548714 
	C141.623016,21.905800 138.230133,24.012812 135.086334,26.442135 
	C125.849747,33.579571 124.885597,43.201973 127.408562,53.656223 
	C127.886429,55.636318 128.761887,57.774559 127.136017,59.084236 
	C125.965279,60.027290 124.089989,58.827374 122.537529,58.181747 
	C115.715157,55.344509 108.599083,53.493019 101.383469,51.900612 
	C98.408752,51.244118 96.141907,48.619484 95.149368,45.987000 
	C92.504700,38.972637 89.426468,32.069141 88.172432,24.576378 
	C87.367043,19.764235 91.104706,13.083364 96.093483,9.928134 
	C102.102600,6.127577 108.700089,7.126780 115.653870,6.998020 
z"/>
<path fill="#FFFFFF" opacity="1.000000" stroke="none" 
	d="
M212.005768,279.979919 
	C207.806259,288.263306 202.403412,295.344086 196.984863,302.371277 
	C193.794373,306.508911 189.314438,309.438782 185.006180,312.356873 
	C181.918259,314.448395 179.807480,313.125031 180.040649,309.297058 
	C180.831009,296.321442 183.358582,283.774841 188.568909,271.722870 
	C192.610245,262.374908 199.307419,254.372940 201.413254,243.927475 
	C202.130447,240.369934 206.999130,237.646362 209.981430,234.551865 
	C210.394211,234.123566 210.710373,234.415909 211.159836,234.668350 
	C216.201645,237.500275 221.370880,240.118607 226.304932,243.124222 
	C229.349991,244.979156 228.401169,251.676544 225.001694,252.983810 
	C222.677383,253.877655 221.673630,255.416077 220.914856,257.745422 
	C218.477539,265.227905 216.351440,272.865509 212.005768,279.979919 
z"/>
<path fill="#FFFFFF" opacity="1.000000" stroke="none" 
	d="
M440.173248,234.349152 
	C437.328949,235.525223 434.242920,235.817703 432.301666,237.461838 
	C428.431854,240.739487 425.504272,238.790298 422.028107,237.065369 
	C415.193207,233.673782 407.467407,232.224564 401.029419,227.783752 
	C407.506042,223.317825 411.202850,217.615768 411.010925,209.735947 
	C410.929871,206.408295 410.943176,203.075562 411.031097,199.748245 
	C411.057129,198.762772 410.356476,197.082626 412.211548,197.094437 
	C413.478180,197.102478 414.647247,196.707321 416.104401,198.045029 
	C423.343506,204.690887 431.913422,209.602631 440.184418,214.781143 
	C443.369202,216.775131 446.975433,218.023300 446.842926,222.003021 
	C446.683746,226.785248 445.982361,231.872147 440.173248,234.349152 
z"/>
<path fill="#FFFFFF" opacity="1.000000" stroke="none" 
	d="
M87.012177,55.148918 
	C91.015915,51.269295 94.734543,51.544144 99.990211,53.062191 
	C109.390289,55.777298 118.237999,60.382549 128.145004,61.518726 
	C131.098022,61.857388 130.504150,64.519157 129.102936,66.251434 
	C127.797585,67.865196 126.177460,69.172722 124.303452,70.337410 
	C116.597160,75.126831 112.804405,82.084778 114.146393,91.408607 
	C109.533592,91.119286 106.188293,88.584290 102.839767,86.259232 
	C100.049995,84.322151 97.339317,82.108063 94.148071,81.110252 
	C87.409218,79.003181 85.442268,73.620361 85.192017,67.739944 
	C85.022163,63.748528 83.054901,59.091057 87.012177,55.148918 
z"/>
<path fill="#FFFFFF" opacity="1.000000" stroke="none" 
	d="
M244.005814,209.026306 
	C242.297440,211.746826 241.968292,214.565887 241.467804,217.195404 
	C239.860229,225.641693 234.952286,232.435150 230.734299,239.574814 
	C230.027054,240.771927 229.174545,242.381897 226.988983,241.056488 
	C223.010727,238.643906 218.827072,236.572174 214.802643,234.231781 
	C213.985123,233.756363 212.472153,232.844727 212.473465,232.779541 
	C212.530991,229.917969 213.454636,226.888702 212.798218,224.246246 
	C212.033905,221.169479 211.939758,219.208069 214.931763,217.447723 
	C216.723755,216.393387 218.260208,214.610626 218.788925,212.497147 
	C220.520569,205.575302 225.263229,200.418671 229.115891,194.778442 
	C230.792938,192.323227 234.367096,193.936066 236.682236,192.643890 
	C240.719406,190.390640 241.117386,193.678726 242.511597,195.958160 
	C244.983536,199.999603 248.042587,203.843704 244.005814,209.026306 
z"/>
<path fill="#FFFFFF" opacity="1.000000" stroke="none" 
	d="
M239.347229,181.264709 
	C235.111862,181.684921 230.611862,178.540558 230.030945,175.205627 
	C229.671967,173.144669 234.150589,168.633316 237.171036,168.013351 
	C243.010132,166.814850 247.326447,170.181839 246.941681,175.987274 
	C246.651108,180.371262 242.419418,179.795563 239.347229,181.264709 
z"/>
<path fill="#FFFFFF" opacity="1.000000" stroke="none" 
	d="
M251.222076,184.581421 
	C251.152893,182.128967 248.098389,179.288452 251.956451,178.092606 
	C254.827896,177.202576 257.132843,172.901108 260.951752,176.382324 
	C263.922607,179.090485 266.235931,182.317307 264.735657,186.221466 
	C263.568207,189.259491 260.639313,191.224228 256.922211,190.999313 
	C253.115753,190.769012 253.040741,187.139832 251.222076,184.581421 
z"/>
<path fill="#FFFFFF" opacity="1.000000" stroke="none" 
	d="
M252.145142,190.636932 
	C255.564133,195.314743 250.702377,196.434433 248.922165,198.294128 
	C247.067413,200.231628 245.898895,197.456818 245.077835,196.128693 
	C243.816833,194.088959 242.919113,191.818939 241.927856,189.619324 
	C239.717621,184.714844 241.494827,181.689285 246.770935,180.580902 
	C248.395508,180.239609 247.784866,181.098450 247.994537,181.694244 
	C249.049683,184.692520 249.935120,187.769455 252.145142,190.636932 
z"/>
<path fill="#FFFFFF" opacity="1.000000" stroke="none" 
	d="
M230.073151,179.914673 
	C231.954681,181.346527 233.624435,183.184418 236.109299,183.609528 
	C238.036591,183.939224 239.053833,184.457993 239.160172,186.945175 
	C239.284134,189.844452 237.511276,189.915894 235.791031,190.597656 
	C234.147003,191.249237 232.221909,190.704361 230.011368,192.918198 
	C230.011368,188.187408 230.011368,184.484283 230.087677,180.301620 
	C230.164001,179.822067 230.106461,179.886917 230.073151,179.914673 
z"/>
<path fill="#FFFFFF" opacity="1.000000" stroke="none" 
	d="
M248.225784,171.410080 
	C250.091492,169.595459 249.438858,164.356735 253.980576,167.525772 
	C255.753311,168.762726 258.195587,171.733566 257.551758,172.365387 
	C255.730133,174.153015 252.929825,175.450745 250.357559,175.808212 
	C248.235199,176.103149 249.076279,173.021484 248.225784,171.410080 
z"/>
<path fill="#FFFFFF" opacity="1.000000" stroke="none" 
	d="
M193.620453,248.110703 
	C193.803574,244.416916 196.306702,245.068710 198.624664,245.297318 
	C196.880188,246.080261 199.572723,253.524918 193.620453,248.110703 
z"/>
<path fill="#FFFFFF" opacity="1.000000" stroke="none" 
	d="
M243.062622,227.423965 
	C239.330002,227.901581 241.491837,225.294952 241.107590,224.013153 
	C240.990616,223.622971 241.963150,222.906189 242.436691,222.338989 
	C243.485947,223.311279 244.535187,224.283585 245.584442,225.255875 
	C244.826157,225.883881 244.067871,226.511887 243.062622,227.423965 
z"/>
</svg>