<?xml version="1.0" standalone="no"?>
<!DOCTYPE svg PUBLIC "-//W3C//DTD SVG 20010904//EN"
 "http://www.w3.org/TR/2001/REC-SVG-20010904/DTD/svg10.dtd">
<svg version="1.0" xmlns="http://www.w3.org/2000/svg"
 width="210.000000pt" height="300.000000pt" viewBox="0 0 210.000000 300.000000"
 preserveAspectRatio="xMidYMid meet">

<g transform="translate(0.000000,300.000000) scale(0.100000,-0.100000)"
fill="#000000" stroke="none">
<path d="M754 2990 c-239 -35 -440 -221 -564 -522 -71 -172 -124 -384 -155
-623 -28 -221 -37 -498 -33 -1115 3 -675 0 -640 75 -697 l36 -28 289 -3 288
-3 0 339 c0 335 0 339 23 372 45 67 65 75 207 78 104 3 134 0 160 -13 58 -30
60 -47 60 -430 l0 -345 365 0 365 0 0 203 c0 182 -7 341 -26 627 l-6 95 35 13
c57 20 133 96 167 166 46 92 63 203 56 366 -5 141 -42 381 -77 509 -31 115
-99 248 -156 305 -46 47 -130 96 -165 96 -11 0 -23 20 -38 67 -67 209 -199
363 -385 453 -174 83 -355 114 -521 90z m281 -126 c318 -61 519 -289 554 -631
6 -54 22 -190 35 -303 71 -581 136 -1408 136 -1732 l0 -88 -255 0 -255 0 0
301 c0 325 -4 355 -51 413 -54 64 -95 76 -265 76 -135 0 -154 -2 -199 -24 -28
-13 -69 -44 -91 -69 -68 -77 -74 -110 -74 -423 l0 -274 -205 0 c-186 0 -207 2
-224 19 -17 17 -19 49 -25 468 -8 462 -2 833 15 1053 44 570 192 967 422 1136
128 95 271 118 482 78z m736 -651 c108 -101 178 -333 209 -693 18 -218 -10
-351 -92 -433 -27 -27 -51 -47 -54 -44 -2 2 -13 100 -24 218 -25 270 -64 628
-90 829 -11 85 -20 158 -20 163 0 17 24 4 71 -40z"/>
<path d="M583 2416 c-85 -27 -159 -92 -205 -178 -19 -37 -23 -61 -26 -180 -4
-133 -3 -138 23 -186 15 -27 40 -59 56 -71 65 -48 89 -51 453 -51 389 0 401 3
451 79 27 39 27 40 23 203 -3 147 -5 167 -26 206 -35 67 -98 129 -161 159
l-56 28 -245 2 c-182 2 -256 -1 -287 -11z"/>
</g>
</svg>
