<svg version="1.1" id="Layer_1" xmlns="http://www.w3.org/2000/svg" xmlns:xlink="http://www.w3.org/1999/xlink" x="0px" y="0px"
	 width="100%" viewBox="0 0 210 300" enable-background="new 0 0 210 300" xml:space="preserve">
<path fill="#000000" opacity="1.000000" stroke="none" 
	d="
M1.230256,290.360840 
	C1.000000,240.312439 1.000000,190.624878 1.000000,140.468658 
	C2.050491,137.590958 1.298635,135.074387 1.220399,132.305573 
	C1.000000,131.555557 1.000000,131.111099 1.000000,130.333328 
	C3.191989,125.691498 2.221345,120.925468 2.415452,116.477806 
	C3.607316,89.168098 10.807854,63.569824 23.415230,39.463840 
	C30.462446,25.989182 40.059010,14.732330 53.312069,6.752730 
	C59.877167,2.799916 67.008453,2.020903 74.652641,1.225816 
	C82.687576,1.000000 90.375153,1.000000 98.531364,1.000000 
	C102.574554,1.785762 106.240799,1.632583 109.850876,2.061092 
	C133.459869,4.863433 149.933182,18.138597 162.192902,37.645912 
	C165.492218,42.895714 167.661392,48.660950 170.020691,54.339928 
	C171.141617,57.038086 172.588577,59.471676 175.332932,60.684006 
	C193.175018,68.565849 200.982956,83.882263 205.913208,101.470764 
	C208.514069,110.749222 209.400009,120.216812 209.899094,129.766663 
	C209.979416,131.303543 210.180466,132.839722 210.776611,134.671509 
	C211.000000,135.000000 211.000000,135.500000 211.000000,135.750000 
	C210.269836,136.729904 210.530182,137.626694 210.790405,138.744080 
	C211.000000,152.020889 211.000000,165.041794 211.000000,178.531342 
	C209.904617,180.102020 209.878021,181.653442 209.806686,182.955414 
	C209.236893,193.357162 203.889206,201.063858 195.586990,206.490448 
	C189.669022,210.358612 188.062958,215.093597 188.841736,221.726685 
	C189.849792,230.312469 190.115356,238.981339 190.475754,247.624496 
	C191.113922,262.929199 191.934982,278.233368 191.487915,293.562103 
	C191.417786,295.966797 191.918839,298.570190 189.310379,300.691528 
	C164.312439,301.000000 139.624878,301.000000 114.468658,301.000000 
	C111.345169,299.164429 111.498810,296.387054 111.498558,293.638916 
	C111.496964,276.181580 111.537361,258.724121 111.485703,241.266891 
	C111.446098,227.885849 109.107925,225.568481 95.791931,225.510468 
	C92.468163,225.495987 89.134773,225.377808 85.828835,225.822510 
	C78.891075,226.755768 74.756096,230.582962 73.233864,237.437988 
	C72.507317,240.709747 72.513641,244.041718 72.509064,247.367401 
	C72.487778,262.829590 72.523209,278.291870 72.479240,293.753937 
	C72.472572,296.097473 72.889877,298.633942 70.314117,300.690125 
	C50.979103,301.000000 31.958210,301.000000 12.468657,301.000000 
	C11.333240,300.439850 10.467584,300.301605 9.690866,300.225677 
	C3.902357,299.659943 2.440274,295.412903 1.230256,290.360840 
z"/>
<path fill="#47704C" opacity="1.000000" stroke="none" 
	d="
M211.000000,134.531342 
	C207.445496,130.034073 208.375275,123.977783 207.087189,118.467316 
	C203.785110,104.340981 201.395203,89.961632 192.487335,77.847015 
	C187.258881,70.736366 181.168228,64.882233 172.209915,62.933659 
	C169.658646,62.378712 168.855682,60.450108 168.253098,58.393986 
	C162.171768,37.643154 150.238739,21.385126 131.023666,11.128417 
	C121.235886,5.903846 110.630363,2.707942 99.243515,1.322562 
	C135.102234,1.000000 171.204697,1.052994 207.306351,0.909619 
	C210.550613,0.896735 211.077759,1.796497 211.070572,4.793519 
	C210.967346,47.883049 211.000000,90.972908 211.000000,134.531342 
z"/>
<path fill="#47704C" opacity="1.000000" stroke="none" 
	d="
M70.468658,301.000000 
	C70.000534,280.873260 70.015579,260.746490 69.993858,240.619781 
	C69.986092,233.427917 72.656647,227.808304 79.209946,224.351532 
	C81.003456,223.405472 82.851860,222.942017 84.919090,222.970917 
	C91.238647,223.059280 97.560616,222.959274 103.880920,223.014542 
	C110.456001,223.072021 113.972435,226.579575 113.983597,233.195343 
	C114.021202,255.484390 113.999199,277.773560 114.000000,300.531342 
	C99.645775,301.000000 85.291542,301.000000 70.468658,301.000000 
z"/>
<path fill="#47704C" opacity="1.000000" stroke="none" 
	d="
M74.531342,1.000000 
	C66.839912,3.475385 58.783997,6.120444 51.562031,10.901141 
	C40.654922,18.121283 32.711823,27.977690 26.453093,39.197250 
	C15.371234,59.062874 9.564364,80.693932 5.964650,102.998817 
	C4.676468,110.980759 2.972862,118.912292 2.968504,127.052933 
	C2.967919,128.145752 2.498276,128.957748 1.355036,129.820496 
	C1.000000,88.256996 1.036200,46.513901 0.925170,4.771191 
	C0.917065,1.724232 1.520357,0.888793 4.713444,0.911555 
	C27.828894,1.076336 50.946060,1.000000 74.531342,1.000000 
z"/>
<path fill="#47704C" opacity="1.000000" stroke="none" 
	d="
M189.468781,301.000000 
	C189.000000,292.694519 189.275391,284.378082 188.946060,276.085663 
	C188.106903,254.956635 187.055634,233.835236 185.925888,212.719513 
	C185.778534,209.965393 186.560028,208.530090 189.031769,207.428284 
	C200.184860,202.456604 205.889938,193.133408 208.969955,181.844955 
	C209.246521,180.831314 209.538437,179.975876 210.665924,179.155121 
	C211.000000,218.047241 210.892654,257.095184 211.144165,296.140808 
	C211.173569,300.707703 209.792770,301.331146 205.883484,301.083496 
	C200.587677,300.747955 195.254639,301.000000 189.468781,301.000000 
z"/>
<path fill="#47704C" opacity="1.000000" stroke="none" 
	d="
M1.000000,290.482971 
	C4.286140,293.745422 6.618408,298.468811 11.834347,300.702728 
	C11.673890,301.000000 11.347780,301.000000 11.021670,301.000000 
	C7.760571,301.000000 3.009569,302.283539 1.620332,300.670959 
	C-0.067444,298.711792 1.079458,294.310608 1.000000,290.482971 
z"/>
<path fill="#47704C" opacity="1.000000" stroke="none" 
	d="
M1.000000,132.444168 
	C2.784654,134.376175 1.935918,136.975632 1.319138,139.764175 
	C1.000000,137.629440 1.000000,135.258896 1.000000,132.444168 
z"/>
<path fill="#47704C" opacity="1.000000" stroke="none" 
	d="
M211.000000,138.625000 
	C209.745850,138.322205 209.970673,137.338745 210.721405,136.152069 
	C211.000000,136.750000 211.000000,137.500000 211.000000,138.625000 
z"/>
<path fill="#47704C" opacity="1.000000" stroke="none" 
	d="
M13.000000,249.000000 
	C13.000000,223.012329 12.809192,197.522858 13.048567,172.037430 
	C13.344100,140.573013 15.487640,109.253960 24.094587,78.795929 
	C29.522856,59.586502 36.455162,40.909760 51.680183,26.923183 
	C63.615589,15.958640 77.613686,11.436141 94.047653,13.696366 
	C105.277206,15.240809 116.068428,17.400051 126.070107,22.972528 
	C142.509369,32.131737 152.433640,46.049168 157.034424,64.100204 
	C159.453751,73.592392 159.553314,83.373177 160.937088,92.993530 
	C162.790817,105.880997 164.261749,118.825188 165.776138,131.759186 
	C166.640320,139.139908 167.275299,146.547668 167.993820,153.945175 
	C169.302261,167.416656 170.666550,180.883240 171.871597,194.364029 
	C172.696045,203.586823 173.656189,212.820038 173.912598,222.066422 
	C174.487610,242.801056 176.600220,263.475494 176.133713,284.258606 
	C176.041748,288.355499 174.805481,289.128845 171.111862,289.073517 
	C158.287613,288.881500 145.452805,288.775452 132.634628,289.114258 
	C127.832130,289.241180 126.853363,287.511749 126.913620,283.137085 
	C127.133842,267.147827 126.677368,251.145325 127.094284,235.163956 
	C127.479248,220.407593 115.563499,208.911652 101.980270,209.981842 
	C94.554520,210.566895 87.085495,209.203232 79.646599,210.889099 
	C66.332047,213.906494 57.291214,227.273361 57.813015,238.093887 
	C58.550373,253.384201 57.866734,268.738586 58.085728,284.061371 
	C58.143452,288.100220 56.774601,289.148529 52.941856,289.072540 
	C42.118019,288.857941 31.281729,288.797028 20.461533,289.089447 
	C15.635564,289.219849 13.686276,287.051178 13.581557,282.724854 
	C13.313530,271.651703 13.184573,260.575165 13.000000,249.000000 
z"/>
<path fill="#47704C" opacity="1.000000" stroke="none" 
	d="
M177.664764,79.338623 
	C187.318375,89.883835 191.131180,102.774780 193.724503,115.918449 
	C196.955139,132.292175 199.925598,148.828568 198.894669,165.632126 
	C198.274933,175.733231 196.733185,185.804062 188.396225,193.115585 
	C187.399918,193.989380 186.467896,195.421829 185.083344,194.979843 
	C183.173050,194.370026 184.163666,192.452011 184.026855,191.111343 
	C182.686050,177.972031 181.403900,164.826706 180.107727,151.682846 
	C179.070251,141.162125 178.153473,130.627823 176.970673,120.123489 
	C175.568207,107.668488 173.972534,95.234688 172.371033,82.803238 
	C172.117401,80.834404 171.180420,78.345001 172.656784,77.182594 
	C174.311600,75.879662 175.627045,78.733543 177.664764,79.338623 
z"/>
<path fill="#000000" opacity="1.000000" stroke="none" 
	d="
M91.000000,126.000000 
	C83.003067,126.000000 75.464272,125.486771 68.016869,126.094109 
	C43.524406,128.091476 32.816494,117.770622 34.907196,92.729134 
	C35.308933,87.917320 35.565510,83.261841 37.567425,78.745361 
	C43.681774,64.950867 54.470901,57.823170 69.221321,57.113312 
	C80.690063,56.561375 92.212517,56.766956 103.700600,57.054852 
	C123.757339,57.557468 138.469040,74.229843 138.020386,91.655739 
	C137.887512,96.816879 137.521942,102.038612 138.101089,107.137390 
	C139.247375,117.229355 130.119186,127.101051 118.975586,126.156784 
	C109.877953,125.385887 100.662956,125.999977 91.000000,126.000000 
z"/>
</svg>