<svg version="1.1" id="Layer_1" xmlns="http://www.w3.org/2000/svg" xmlns:xlink="http://www.w3.org/1999/xlink" x="0px" y="0px"
	 width="100%" viewBox="0 0 210 300" enable-background="new 0 0 210 300" xml:space="preserve">
<path fill="#080808" opacity="1.000000" stroke="none" 
	d="
M1.227758,160.354324 
	C1.000000,155.310745 1.000000,150.621490 1.000000,145.466125 
	C2.077209,136.947784 1.627569,128.800751 2.523173,120.735489 
	C5.613942,92.901894 11.333259,65.757370 24.605715,40.781754 
	C32.576473,25.782669 43.229507,13.248877 59.072796,5.815096 
	C64.929756,3.066972 70.917831,1.502742 77.672348,1.228764 
	C79.388893,1.000000 80.777779,1.000000 82.583336,1.000000 
	C85.408669,2.071269 87.928604,1.307672 90.696854,1.224184 
	C92.714355,1.000000 94.428719,1.000000 96.571533,1.000000 
	C106.577774,1.976364 115.982803,3.384539 124.978432,7.306022 
	C138.480362,13.191952 149.537476,21.829966 157.789795,34.039974 
	C159.185913,36.105652 160.313568,38.465759 162.371002,39.923256 
	C166.621048,42.934040 167.155472,47.255062 167.050278,51.891708 
	C167.027451,52.898499 167.065323,54.045704 166.347321,54.745480 
	C161.280228,59.684006 157.232285,65.900040 149.712051,67.767334 
	C145.188507,68.890541 140.704590,70.176361 136.140076,71.134964 
	C131.037079,72.206680 126.128319,72.595467 121.014412,70.349777 
	C117.100540,68.631073 112.606880,68.452202 108.244049,68.459869 
	C99.418739,68.475388 90.593353,68.469780 81.767998,68.461159 
	C79.266953,68.458710 76.789604,68.338417 74.330872,67.755699 
	C62.735672,65.007637 54.043472,69.752419 50.084831,80.930122 
	C48.471344,85.485992 46.998253,90.095909 45.958050,94.808533 
	C44.198994,102.777962 45.909889,106.306396 52.641697,110.822266 
	C61.683029,116.887413 71.842049,119.077690 82.422768,119.462090 
	C91.901596,119.806458 101.403526,119.603439 110.894203,119.512192 
	C119.938843,119.425232 125.090782,114.372452 125.496216,105.342201 
	C125.690056,101.024773 125.294807,96.689156 126.112404,92.389938 
	C128.149399,81.678757 133.449921,74.004578 144.818192,71.722870 
	C147.762329,71.131958 150.660202,70.109077 153.219238,68.590721 
	C157.750656,65.902084 162.433853,64.931587 167.581879,66.055481 
	C169.081894,66.382957 170.695190,66.372765 171.850388,65.254036 
	C174.768021,62.428513 177.575241,63.618202 180.504257,65.178131 
	C188.875946,69.636688 193.916885,77.079330 197.880997,85.230675 
	C205.259521,100.403091 208.362518,116.737175 209.957748,133.394287 
	C210.241898,136.361176 210.722412,139.333206 210.770325,142.668854 
	C211.000000,153.354233 211.000000,163.708450 211.000000,174.531342 
	C210.040833,176.651382 210.206085,178.511810 209.945724,180.307739 
	C208.460739,190.551071 203.479797,198.814255 195.117722,204.815048 
	C189.128998,209.112640 183.389496,207.651382 179.472092,201.280151 
	C177.642776,198.304977 175.633759,195.387100 174.543839,192.040466 
	C173.189865,187.883011 172.210983,183.661697 174.577820,179.470108 
	C175.161880,178.435776 175.403610,177.214981 175.306534,176.082108 
	C174.170288,162.821243 178.791809,150.049561 178.601273,136.881470 
	C178.478241,128.378708 177.242584,119.985840 175.826111,111.619034 
	C175.770950,111.293259 175.673187,110.961243 175.521011,110.669662 
	C174.648773,108.998474 174.438263,105.896072 172.150085,106.489449 
	C169.802689,107.098198 170.863815,109.944931 171.352417,111.728790 
	C174.588638,123.544197 176.691299,135.555649 175.408844,147.775024 
	C174.162796,159.647476 175.648911,171.497803 173.617981,183.523331 
	C171.808807,194.235809 175.931137,205.203644 182.868042,214.309952 
	C186.247314,218.746048 187.134094,223.728516 187.681870,229.202850 
	C189.789551,250.266769 188.748428,271.446869 190.431534,292.514862 
	C190.640594,295.131836 190.972015,297.858368 189.260132,300.662567 
	C164.645767,301.000000 140.291550,301.000000 115.468658,301.000000 
	C113.021889,298.770569 113.380623,296.016998 113.375069,293.386444 
	C113.337135,275.405182 113.362740,257.423859 113.352028,239.442535 
	C113.350639,237.112839 113.421120,234.772614 112.921516,232.476791 
	C111.818588,227.408508 108.418488,224.146774 103.306625,223.812393 
	C97.495316,223.432266 91.639282,223.306778 85.841187,223.863510 
	C77.035583,224.709000 71.739716,230.602325 71.681664,239.526398 
	C71.565773,257.340637 71.667633,275.155884 71.626610,292.970612 
	C71.620918,295.442383 71.947182,297.993134 70.280396,300.638306 
	C51.645771,301.000000 33.291542,301.000000 14.468657,301.000000 
	C5.769472,299.036194 2.592194,295.644104 1.222319,287.297913 
	C1.000000,286.555542 1.000000,286.111115 1.000000,285.333313 
	C2.097590,282.541260 1.233381,279.949982 1.510980,277.000031 
	C1.511089,273.016296 1.511091,269.468414 1.510809,265.472260 
	C1.511257,262.015137 1.511032,259.006287 1.510793,255.545181 
	C1.511232,252.378723 1.511047,249.664490 1.510809,246.498672 
	C1.511258,243.042831 1.511034,240.038559 1.510781,236.586212 
	C1.474621,231.681335 1.586876,227.223862 1.225057,222.383759 
	C1.000000,209.979111 1.000000,197.958206 1.000000,185.468658 
	C2.074480,182.306671 1.250537,179.495743 1.510854,176.330643 
	C1.511078,173.936111 1.511123,171.962921 1.510776,169.567108 
	C1.481464,166.332596 1.574897,163.519928 1.227758,160.354324 
z"/>
<path fill="#FCFCFC" opacity="1.000000" stroke="none" 
	d="
M211.000000,142.531342 
	C208.286636,136.200592 208.434402,128.862427 207.066437,121.806984 
	C204.305298,107.566154 201.375305,93.418976 193.814987,80.758080 
	C189.810257,74.051514 184.587540,68.552124 177.428299,65.140015 
	C175.789276,64.358856 173.900909,63.312698 173.644775,66.538307 
	C173.464203,68.812187 171.796021,68.741043 170.351151,68.250145 
	C162.938828,65.731712 156.477127,68.748154 149.940933,71.526314 
	C148.276459,72.233788 146.566757,72.870522 144.827209,73.359825 
	C133.230225,76.621880 127.809021,83.954407 127.533089,96.339294 
	C127.398026,102.401535 128.404449,108.622543 124.639046,114.243965 
	C121.471375,118.973022 117.276138,121.369011 111.722862,121.409180 
	C101.060440,121.486320 90.343033,122.119835 79.749115,121.268959 
	C68.625206,120.375496 57.865768,117.525856 48.761337,110.204857 
	C43.826324,106.236557 42.200569,101.451118 43.884296,95.641853 
	C45.873055,88.780174 48.010841,81.932198 50.615856,75.286751 
	C53.323380,68.379807 65.597786,63.199741 72.463379,65.732506 
	C77.645592,67.644264 82.996223,67.010071 88.287941,67.045853 
	C98.597862,67.115570 109.464760,64.705940 119.047081,68.402275 
	C130.217667,72.711273 139.682968,68.031044 149.819504,66.268715 
	C154.373123,65.477036 157.315155,62.193630 160.214935,58.958691 
	C160.872925,58.224663 161.331802,57.308987 162.005569,56.592892 
	C163.562866,54.937744 164.998276,51.200603 165.281723,49.018780 
	C165.747269,45.435284 164.826904,42.852295 161.203354,41.510426 
	C160.554291,41.270069 160.124527,40.294685 159.707565,39.591072 
	C145.640625,15.853611 123.727501,5.075953 97.142731,1.384160 
	C133.770294,1.000000 170.540787,1.052693 207.310516,0.908895 
	C210.565933,0.896164 211.076080,1.811732 211.069565,4.798182 
	C210.969711,50.552849 211.000000,96.307800 211.000000,142.531342 
z"/>
<path fill="#FDFDFD" opacity="1.000000" stroke="none" 
	d="
M70.468658,301.000000 
	C69.130409,288.198029 69.808228,275.380768 69.633316,262.571625 
	C69.528679,254.909195 69.573242,247.244415 69.586563,239.580750 
	C69.604630,229.189178 76.658936,222.086472 87.137230,221.946381 
	C92.135124,221.879547 97.134880,221.905212 102.133392,221.942307 
	C110.313828,222.003021 114.802963,226.416733 114.821068,234.588974 
	C114.869415,256.416931 114.845444,278.245056 114.925110,300.536560 
	C100.312439,301.000000 85.624878,301.000000 70.468658,301.000000 
z"/>
<path fill="#FAFAFA" opacity="1.000000" stroke="none" 
	d="
M189.468781,301.000000 
	C187.889008,296.080780 188.466995,291.075409 188.410782,286.123901 
	C188.181931,265.966431 187.181335,245.846451 185.993347,225.730164 
	C185.800903,222.471344 184.910538,219.479477 182.882233,216.970352 
	C173.467804,205.324280 170.099762,192.010071 173.057617,177.504135 
	C174.933365,168.305084 172.294922,159.265350 173.486374,150.187485 
	C175.290253,136.443451 173.062408,123.122437 169.346268,109.928680 
	C168.695511,107.618248 168.001587,104.635048 171.340347,103.609543 
	C174.455627,102.652664 174.868713,105.529968 176.113449,107.439140 
	C178.264847,110.738998 177.956055,114.450356 178.492218,118.018929 
	C180.449509,131.046112 181.177460,144.013046 177.882645,157.023911 
	C176.927261,160.796616 177.613327,164.966736 177.376663,168.944534 
	C177.106247,173.490097 178.031097,178.267410 174.792526,182.295380 
	C174.083710,183.176971 174.434875,184.482849 174.503586,185.668961 
	C174.877792,192.129517 178.702057,197.143692 181.685364,202.401306 
	C184.009583,206.497375 189.394012,207.022217 193.564667,204.210724 
	C201.080215,199.144424 205.471344,191.855408 208.006195,183.323853 
	C208.808731,180.622772 209.508636,177.891205 210.627762,175.086792 
	C211.000000,215.379852 210.896362,255.760345 211.143600,296.138672 
	C211.171524,300.700836 209.799225,301.333130 205.884750,301.083832 
	C200.588715,300.746613 195.255066,301.000000 189.468781,301.000000 
z"/>
<path fill="#FCFCFC" opacity="1.000000" stroke="none" 
	d="
M77.531342,1.000000 
	C75.381905,2.939374 72.113831,2.561598 69.186806,3.426845 
	C50.347103,8.995987 37.437496,21.593952 27.851540,38.095116 
	C15.635530,59.123615 9.928276,82.282272 6.006845,105.995712 
	C3.888633,118.804817 2.809672,131.729141 1.398318,144.829834 
	C1.000000,98.259552 1.031663,51.519028 0.926864,4.778816 
	C0.920070,1.748626 1.496252,0.888520 4.707085,0.910412 
	C28.824699,1.074850 52.943947,1.000000 77.531342,1.000000 
z"/>
<path fill="#F4F4F4" opacity="1.000000" stroke="none" 
	d="
M1.000000,287.474121 
	C3.667619,292.942535 6.844949,298.400391 13.851391,300.679199 
	C9.739964,301.000000 3.564114,302.676392 1.716797,300.565186 
	C-0.471044,298.064880 1.073297,292.298828 1.000000,287.474121 
z"/>
<path fill="#171717" opacity="1.000000" stroke="none" 
	d="
M1.000000,222.464645 
	C3.160985,226.237396 1.453282,230.762390 1.959925,235.588135 
	C1.777855,236.204254 1.611262,236.353851 1.222335,236.251740 
	C1.000000,231.643097 1.000000,227.286194 1.000000,222.464645 
z"/>
<path fill="#747474" opacity="1.000000" stroke="none" 
	d="
M1.635824,264.769348 
	C1.870318,268.745575 1.917189,272.435913 1.888979,276.583282 
	C1.670477,277.190582 1.527055,277.340912 1.191816,277.245605 
	C1.000000,273.307098 1.000000,269.614166 1.000000,265.460632 
	C1.149400,264.827820 1.298801,264.655640 1.635824,264.769348 
z"/>
<path fill="#2C2C2C" opacity="1.000000" stroke="none" 
	d="
M1.000000,236.454102 
	C1.000000,236.000000 1.473635,236.011948 1.709042,236.033295 
	C1.940302,239.090317 1.936155,242.125992 1.889393,245.617828 
	C1.692616,246.210800 1.538455,246.347610 1.192146,246.242218 
	C1.000000,242.969406 1.000000,239.938812 1.000000,236.454102 
z"/>
<path fill="#5A5A5A" opacity="1.000000" stroke="none" 
	d="
M1.890168,264.602966 
	C1.823447,265.055206 1.411217,265.035126 1.205609,265.017578 
	C1.000000,261.969421 1.000000,258.938812 1.000000,255.454102 
	C1.152477,254.827072 1.304954,254.654129 1.635563,254.777618 
	C1.861426,258.099609 1.909158,261.125183 1.890168,264.602966 
z"/>
<path fill="#191919" opacity="1.000000" stroke="none" 
	d="
M1.673900,175.719009 
	C1.842866,178.768066 2.420491,181.626022 1.284964,184.712555 
	C1.000000,182.299988 1.000000,179.599976 1.000000,176.449982 
	C1.142648,175.833649 1.285297,175.667297 1.673900,175.719009 
z"/>
<path fill="#505050" opacity="1.000000" stroke="none" 
	d="
M1.000000,160.449982 
	C3.070576,162.472397 1.489401,165.349945 1.861744,168.438492 
	C1.726126,169.083954 1.617173,169.298706 1.254110,169.256744 
	C1.000000,166.299988 1.000000,163.599976 1.000000,160.449982 
z"/>
<path fill="#414141" opacity="1.000000" stroke="none" 
	d="
M1.872595,254.622574 
	C1.813695,255.074051 1.406707,255.038559 1.203354,255.019287 
	C1.000000,252.299988 1.000000,249.599976 1.000000,246.449982 
	C1.000000,246.000000 1.425085,246.029724 1.635931,246.051849 
	C1.875017,248.773026 1.903256,251.472061 1.872595,254.622574 
z"/>
<path fill="#393939" opacity="1.000000" stroke="none" 
	d="
M90.555832,1.000000 
	C88.631081,2.815811 86.042061,1.870263 83.253326,1.298625 
	C85.370560,1.000000 87.741112,1.000000 90.555832,1.000000 
z"/>
<path fill="#8D8D8D" opacity="1.000000" stroke="none" 
	d="
M1.000000,277.444153 
	C1.000000,277.000000 1.406154,277.036591 1.610026,277.038452 
	C1.785436,279.563019 1.756974,282.085724 1.364256,284.804230 
	C1.000000,282.629425 1.000000,280.258881 1.000000,277.444153 
z"/>
<path fill="#2B2B2B" opacity="1.000000" stroke="none" 
	d="
M1.000000,169.437500 
	C1.000000,169.000000 1.419377,168.941147 1.627228,168.905167 
	C1.876703,170.934464 1.918326,172.999725 1.939902,175.501038 
	C1.919854,175.937088 1.460598,175.978348 1.230299,175.989166 
	C1.000000,173.958328 1.000000,171.916672 1.000000,169.437500 
z"/>
<path fill="#FCFCFC" opacity="1.000000" stroke="none" 
	d="
M33.825161,50.885246 
	C38.810410,40.955685 44.710884,32.172588 52.882458,25.051498 
	C64.668938,14.780211 78.457253,11.392537 93.751091,12.922806 
	C113.465096,14.895345 130.987473,21.391729 144.199310,36.987099 
	C146.902740,40.178257 148.899017,43.831799 151.244324,47.254364 
	C153.852524,51.060581 152.718521,53.486710 149.725784,56.590851 
	C140.489029,66.171417 130.031235,66.246170 118.784302,61.356213 
	C112.849197,58.775742 106.749420,57.783688 100.312744,57.888580 
	C89.982521,58.056915 79.647079,57.870674 69.314728,57.950233 
	C51.112885,58.090385 36.505348,71.969093 35.580589,90.059784 
	C35.342682,94.713829 35.379284,99.398201 35.586079,104.055481 
	C36.122452,116.134995 45.253773,125.576363 57.407631,125.759506 
	C78.568527,126.078369 99.739014,125.992470 120.902702,125.788132 
	C130.426178,125.696182 137.129166,118.519699 137.504837,108.687042 
	C137.727356,102.862991 137.657242,97.028069 137.854568,91.202637 
	C138.028458,86.068954 139.710846,82.248154 145.339935,80.454742 
	C152.936462,78.034500 160.192657,76.527931 168.498077,76.775604 
	C177.534561,77.045074 181.218506,81.878639 184.775909,88.063324 
	C191.882935,100.419220 194.217285,114.271187 196.445175,128.067947 
	C199.050247,144.200348 201.245316,160.404175 197.994415,176.727448 
	C196.669327,183.380859 194.015747,189.383286 188.623215,193.897552 
	C185.944794,196.139755 184.481506,195.178650 183.616959,192.292725 
	C183.334396,191.349457 183.239609,190.311859 183.260300,189.321625 
	C183.526733,176.572144 181.989304,163.694931 185.865143,151.195511 
	C186.953339,147.686172 185.582840,144.281479 185.354126,140.854782 
	C184.701202,131.072922 187.013092,121.414520 185.690033,111.544647 
	C184.336060,101.444183 179.755844,93.023117 174.236801,84.982109 
	C171.589340,81.124863 167.835037,82.067696 165.806030,86.299248 
	C164.750351,88.500870 164.537109,90.755692 164.592148,93.092094 
	C164.780212,101.077133 165.573151,109.284157 164.573898,116.988487 
	C163.680176,123.879120 165.928482,130.683731 163.806885,137.399673 
	C163.229706,139.226715 163.265747,141.411606 163.595062,143.333786 
	C165.466873,154.258865 165.285233,165.268173 164.347397,176.190887 
	C162.980652,192.108658 166.517746,207.268753 170.395752,222.400421 
	C172.177109,229.351028 174.104996,236.343857 173.353622,243.445892 
	C172.574951,250.806152 176.968506,257.039185 176.572388,264.283081 
	C176.182495,271.413025 176.714233,278.605286 177.074646,285.758484 
	C177.222748,288.697723 176.577255,289.818665 173.319550,289.776764 
	C158.989120,289.592407 144.652954,289.567902 130.323486,289.787018 
	C126.540260,289.844818 126.047066,288.331543 126.072464,285.108459 
	C126.205147,268.276764 126.156120,251.443481 126.128593,234.610809 
	C126.104729,220.016479 116.762032,210.658768 102.117050,210.533691 
	C96.784302,210.488144 91.445801,210.374802 86.118668,210.553299 
	C69.860916,211.098068 58.142628,223.319565 58.130440,239.606110 
	C58.118965,254.938828 58.012249,270.272858 58.198631,285.603241 
	C58.239613,288.974030 57.218311,289.816956 53.993610,289.764374 
	C42.830215,289.582306 31.662062,289.715363 20.496035,289.662354 
	C14.801719,289.635315 12.938345,287.840698 12.914246,282.257751 
	C12.721477,237.601013 11.298960,192.930023 13.237830,148.292877 
	C14.556729,117.928825 18.573147,87.938057 30.007370,59.421867 
	C31.120375,56.646114 32.435307,53.951321 33.825161,50.885246 
z"/>
</svg>